<svg width="2600" height="740" viewBox="0 0 2600 740" fill="none" xmlns="http://www.w3.org/2000/svg">
<path d="M627.092 513.683H662.868V477.904H627.092V513.683ZM769.446 370.838V406.549H805.154V370.634L769.446 370.838ZM320.21 304.993C308.308 299.552 259.677 283.09 219.277 314.448C232.064 310.912 245.254 309.037 258.521 308.87C255.87 310.664 253.728 313.113 252.303 315.979C250.877 318.845 250.217 322.031 250.385 325.227C250.554 328.424 251.545 331.523 253.264 334.223C254.983 336.923 257.371 339.133 260.195 340.638C263.02 342.144 266.186 342.893 269.386 342.814C272.585 342.735 275.71 341.83 278.457 340.187C281.204 338.545 283.48 336.22 285.063 333.438C286.647 330.656 287.485 327.512 287.495 324.311C287.503 321.476 286.849 318.677 285.586 316.138C284.323 313.599 282.484 311.39 280.218 309.687C291.793 310.773 303.205 313.192 314.225 316.897L320.21 304.993ZM734.011 371.586C734.289 305.847 716.373 241.312 682.245 185.127C648.117 128.942 599.109 83.2968 540.645 53.2455V53.2455C435.971 0.120679 322.999 1.27705 218.188 54.6059C57.8101 136.232 -4.35521 330.773 39.8542 474.775C66.796 562.861 126.918 637.024 207.52 681.601C288.122 726.177 382.893 737.675 471.815 713.667V714.143C529.648 697.329 582.062 665.643 623.827 622.246L513.848 515.928L449.506 538.103L432.774 607.145C333.813 614.355 305.111 640.68 271.104 630.816C246.482 624.014 237.096 582.181 233.356 568.509C227.234 555.517 224.786 561.707 212.951 546.47L262.534 521.234H204.177C204.177 521.234 210.231 494.025 202.613 473.074C202.613 473.074 200.233 468.789 163.845 462.803C150.242 447.294 203.225 375.804 204.654 326.76L171.53 310.911C171.53 310.911 191.935 194.186 237.164 130.178C237.573 129.022 237.777 128.341 237.777 128.341C237.777 128.341 356.802 113.921 455.423 171.127L444.201 228.945L444.881 227.721C508.611 251.8 553.704 298.259 553.704 366.893H589.48V334.855H662.595V370.77H627.024V442.125H663.14V406.413H698.099V442.125H733.875V406.345H698.235V371.586H734.011ZM624.779 299.075H589.004V263.296H624.779V299.075ZM662.459 334.855V299.075H698.235V334.855H662.459Z" fill="url(#paint0_linear_304_2)"/>
<path d="M1020.4 380.2C1020.4 393.8 1022 406.067 1025.2 417C1028.67 427.933 1033.47 437.4 1039.6 445.4C1046 453.133 1053.73 459.133 1062.8 463.4C1071.87 467.667 1082.27 469.8 1094 469.8C1105.47 469.8 1115.73 467.667 1124.8 463.4C1134.13 459.133 1141.87 453.133 1148 445.4C1154.4 437.4 1159.2 427.933 1162.4 417C1165.87 406.067 1167.6 393.8 1167.6 380.2C1167.6 366.6 1165.87 354.333 1162.4 343.4C1159.2 332.2 1154.4 322.733 1148 315C1141.87 307 1134.13 300.867 1124.8 296.6C1115.73 292.333 1105.47 290.2 1094 290.2C1082.27 290.2 1071.87 292.467 1062.8 297C1053.73 301.267 1046 307.4 1039.6 315.4C1033.47 323.133 1028.67 332.6 1025.2 343.8C1022 354.733 1020.4 366.867 1020.4 380.2ZM1232 380.2C1232 403.933 1228.4 424.867 1221.2 443C1214.27 460.867 1204.67 475.933 1192.4 488.2C1180.13 500.2 1165.47 509.267 1148.4 515.4C1131.6 521.533 1113.47 524.6 1094 524.6C1075.07 524.6 1057.2 521.533 1040.4 515.4C1023.6 509.267 1008.93 500.2 996.4 488.2C983.867 475.933 974 460.867 966.8 443C959.6 424.867 956 403.933 956 380.2C956 356.467 959.733 335.667 967.2 317.8C974.667 299.667 984.667 284.467 997.2 272.2C1010 259.933 1024.67 250.733 1041.2 244.6C1058 238.467 1075.6 235.4 1094 235.4C1112.93 235.4 1130.8 238.467 1147.6 244.6C1164.4 250.733 1179.07 259.933 1191.6 272.2C1204.13 284.467 1214 299.667 1221.2 317.8C1228.4 335.667 1232 356.467 1232 380.2Z" fill="#006388"/>
<path d="M1363.4 468.2C1366.33 468.467 1369.67 468.733 1373.4 469C1377.4 469 1382.07 469 1387.4 469C1418.6 469 1441.67 461.133 1456.6 445.4C1471.8 429.667 1479.4 407.933 1479.4 380.2C1479.4 351.133 1472.2 329.133 1457.8 314.2C1443.4 299.267 1420.6 291.8 1389.4 291.8C1385.13 291.8 1380.73 291.933 1376.2 292.2C1371.67 292.2 1367.4 292.467 1363.4 293V468.2ZM1543.8 380.2C1543.8 404.2 1540.07 425.133 1532.6 443C1525.13 460.867 1514.47 475.667 1500.6 487.4C1487 499.133 1470.33 507.933 1450.6 513.8C1430.87 519.667 1408.73 522.6 1384.2 522.6C1373 522.6 1359.93 522.067 1345 521C1330.07 520.2 1315.4 518.333 1301 515.4V245.4C1315.4 242.733 1330.33 241 1345.8 240.2C1361.53 239.133 1375 238.6 1386.2 238.6C1409.93 238.6 1431.4 241.267 1450.6 246.6C1470.07 251.933 1486.73 260.333 1500.6 271.8C1514.47 283.267 1525.13 297.933 1532.6 315.8C1540.07 333.667 1543.8 355.133 1543.8 380.2Z" fill="#006388"/>
<path d="M1612 241.8H1674.4V519H1612V241.8Z" fill="#006388"/>
<path d="M1830.6 471.4C1839.4 471.4 1846.6 470.733 1852.2 469.4C1858.07 467.8 1862.73 465.8 1866.2 463.4C1869.67 460.733 1872.07 457.667 1873.4 454.2C1874.73 450.733 1875.4 446.867 1875.4 442.6C1875.4 433.533 1871.13 426.067 1862.6 420.2C1854.07 414.067 1839.4 407.533 1818.6 400.6C1809.53 397.4 1800.47 393.8 1791.4 389.8C1782.33 385.533 1774.2 380.333 1767 374.2C1759.8 367.8 1753.93 360.2 1749.4 351.4C1744.87 342.333 1742.6 331.4 1742.6 318.6C1742.6 305.8 1745 294.333 1749.8 284.2C1754.6 273.8 1761.4 265 1770.2 257.8C1779 250.6 1789.67 245.133 1802.2 241.4C1814.73 237.4 1828.87 235.4 1844.6 235.4C1863.27 235.4 1879.4 237.4 1893 241.4C1906.6 245.4 1917.8 249.8 1926.6 254.6L1908.6 303.8C1900.87 299.8 1892.2 296.333 1882.6 293.4C1873.27 290.2 1861.93 288.6 1848.6 288.6C1833.67 288.6 1822.87 290.733 1816.2 295C1809.8 299 1806.6 305.267 1806.6 313.8C1806.6 318.867 1807.8 323.133 1810.2 326.6C1812.6 330.067 1815.93 333.267 1820.2 336.2C1824.73 338.867 1829.8 341.4 1835.4 343.8C1841.27 345.933 1847.67 348.2 1854.6 350.6C1869 355.933 1881.53 361.267 1892.2 366.6C1902.87 371.667 1911.67 377.667 1918.6 384.6C1925.8 391.533 1931.13 399.667 1934.6 409C1938.07 418.333 1939.8 429.667 1939.8 443C1939.8 468.867 1930.73 489 1912.6 503.4C1894.47 517.533 1867.13 524.6 1830.6 524.6C1818.33 524.6 1807.27 523.8 1797.4 522.2C1787.53 520.867 1778.73 519.133 1771 517C1763.53 514.867 1757 512.6 1751.4 510.2C1746.07 507.8 1741.53 505.533 1737.8 503.4L1755.4 453.8C1763.67 458.333 1773.8 462.467 1785.8 466.2C1798.07 469.667 1813 471.4 1830.6 471.4Z" fill="#006388"/>
<path d="M2079.6 471.4C2088.4 471.4 2095.6 470.733 2101.2 469.4C2107.07 467.8 2111.73 465.8 2115.2 463.4C2118.67 460.733 2121.07 457.667 2122.4 454.2C2123.73 450.733 2124.4 446.867 2124.4 442.6C2124.4 433.533 2120.13 426.067 2111.6 420.2C2103.07 414.067 2088.4 407.533 2067.6 400.6C2058.53 397.4 2049.47 393.8 2040.4 389.8C2031.33 385.533 2023.2 380.333 2016 374.2C2008.8 367.8 2002.93 360.2 1998.4 351.4C1993.87 342.333 1991.6 331.4 1991.6 318.6C1991.6 305.8 1994 294.333 1998.8 284.2C2003.6 273.8 2010.4 265 2019.2 257.8C2028 250.6 2038.67 245.133 2051.2 241.4C2063.73 237.4 2077.87 235.4 2093.6 235.4C2112.27 235.4 2128.4 237.4 2142 241.4C2155.6 245.4 2166.8 249.8 2175.6 254.6L2157.6 303.8C2149.87 299.8 2141.2 296.333 2131.6 293.4C2122.27 290.2 2110.93 288.6 2097.6 288.6C2082.67 288.6 2071.87 290.733 2065.2 295C2058.8 299 2055.6 305.267 2055.6 313.8C2055.6 318.867 2056.8 323.133 2059.2 326.6C2061.6 330.067 2064.93 333.267 2069.2 336.2C2073.73 338.867 2078.8 341.4 2084.4 343.8C2090.27 345.933 2096.67 348.2 2103.6 350.6C2118 355.933 2130.53 361.267 2141.2 366.6C2151.87 371.667 2160.67 377.667 2167.6 384.6C2174.8 391.533 2180.13 399.667 2183.6 409C2187.07 418.333 2188.8 429.667 2188.8 443C2188.8 468.867 2179.73 489 2161.6 503.4C2143.47 517.533 2116.13 524.6 2079.6 524.6C2067.33 524.6 2056.27 523.8 2046.4 522.2C2036.53 520.867 2027.73 519.133 2020 517C2012.53 514.867 2006 512.6 2000.4 510.2C1995.07 507.8 1990.53 505.533 1986.8 503.4L2004.4 453.8C2012.67 458.333 2022.8 462.467 2034.8 466.2C2047.07 469.667 2062 471.4 2079.6 471.4Z" fill="#006388"/>
<path d="M2253 519V241.8H2440.2V294.2H2315.4V348.6H2426.2V399.8H2315.4V466.6H2449.4V519H2253Z" fill="#006388"/>
<path d="M2512 241.8H2574.4V519H2512V241.8Z" fill="#006388"/>
<defs>
<linearGradient id="paint0_linear_304_2" x1="149.29" y1="641.564" x2="606.539" y2="96.7576" gradientUnits="userSpaceOnUse">
<stop stop-color="#00B0B7"/>
<stop offset="0.06" stop-color="#06A5B1"/>
<stop offset="0.28" stop-color="#1787A0"/>
<stop offset="0.39" stop-color="#1E7B9A"/>
<stop offset="0.7" stop-color="#61ACDF"/>
<stop offset="1" stop-color="#2D6AB1"/>
</linearGradient>
</defs>
</svg>
