<svg id="Layer_1" data-name="Layer 1" xmlns="http://www.w3.org/2000/svg" xmlns:xlink="http://www.w3.org/1999/xlink" viewBox="0 0 461.96 155.98"><defs><style>.cls-1{fill:url(#Naamloos_verloop_563);}.cls-2{font-size:16.35px;font-family:FiraSans-SemiBold, Fira Sans;font-weight:600;}.cls-3{letter-spacing:-0.01em;}.cls-4{letter-spacing:-0.01em;}.cls-5{letter-spacing:-0.01em;}.cls-6{letter-spacing:0em;}.cls-7{letter-spacing:-0.02em;}.cls-8{letter-spacing:-0.06em;}.cls-9{fill:#006388;}</style><linearGradient id="Naamloos_verloop_563" x1="68.36" y1="117.91" x2="135.58" y2="37.81" gradientUnits="userSpaceOnUse"><stop offset="0" stop-color="#00b0b7"/><stop offset="0.06" stop-color="#06a5b1"/><stop offset="0.28" stop-color="#1787a0"/><stop offset="0.39" stop-color="#1e7b9a"/><stop offset="0.7" stop-color="#61acdf"/><stop offset="1" stop-color="#2d6ab1"/></linearGradient></defs><title>word_colour</title><path class="cls-1" d="M138.61,99.11h5.26V93.85h-5.26Zm20.92-21v5.25h5.26V78.08Zm-66-9.65c-1.75-.8-8.89-3.22-14.84,1.39A22.75,22.75,0,0,1,84.42,69a2.75,2.75,0,1,0,3.19.12,22.12,22.12,0,0,1,5,1.06Zm60.84,9.79a52.37,52.37,0,0,0-28.43-46.8h0c-15.39-7.81-32-7.64-47.41.2-23.54,12-32.68,40.6-26.21,61.77a52.18,52.18,0,0,0,63.5,35.12l0,.07a50.67,50.67,0,0,0,22.36-13.51L122,99.44l-9.47,3.26S110,112.85,110,112.85c-14.54,1.06-18.72,4.93-23.79,3.48-3.62-1-5-7.15-5.54-9.16-.91-1.91-1.27-1-3-3.24L85,100.22l-8.58,0s.9-4-.23-7.08c0,0-.35-.63-5.69-1.51-2-2.28,5.78-12.79,6-20l-4.87-2.33s3-17.16,9.64-26.57l.1-.27s17.49-2.12,32,6.29l-1.66,8.5.11-.18c9.36,3.54,16,10.37,16,20.46h5.26V72.82h10.75V78.1h-5.22V88.59h5.31V83.34h5.14v5.25h5.25V83.33h-5.24V78.22Zm-16-10.66H133V62.3h5.26Zm5.55,5.26V67.56h5.26v5.26Z"/><text class="cls-2" transform="translate(164.79 126.43)">ODI<tspan class="cls-3" x="26.74" y="0">S</tspan><tspan x="35.8" y="0">SEI Soci</tspan><tspan class="cls-4" x="93.68" y="0">a</tspan><tspan x="102.47" y="0">l </tspan><tspan class="cls-5" x="111.3" y="0">D</tspan><tspan x="121.76" y="0">a</tspan><tspan class="cls-3" x="130.71" y="0">t</tspan><tspan class="cls-6" x="136.74" y="0">a Scien</tspan><tspan class="cls-7" x="189.82" y="0">c</tspan><tspan class="cls-6" x="197.31" y="0">e </tspan><tspan class="cls-8" x="210.31" y="0">T</tspan><tspan class="cls-4" x="218.14" y="0">e</tspan><tspan x="226.99" y="0">am</tspan></text><path class="cls-9" d="M210.25,31.93a33.47,33.47,0,0,1,11.27,7.17L212.9,49.28q-7.49-5.91-15.69-5.92c-2.84,0-5,.54-6.49,1.61a5.26,5.26,0,0,0-2.24,4.52,5.13,5.13,0,0,0,1.14,3.43,11.27,11.27,0,0,0,3.85,2.6A81.14,81.14,0,0,0,202,58.63q11.12,3.54,16.26,8.89t5.14,14.8a21.17,21.17,0,0,1-3.53,12.1,23,23,0,0,1-10.24,8.16,39.24,39.24,0,0,1-15.74,2.91q-17.24,0-28.15-10.49l9.45-10.5q8.63,7.06,18,7.07,4.88,0,7.58-2.13a6.86,6.86,0,0,0,2.7-5.67,7.47,7.47,0,0,0-1-4.1,9,9,0,0,0-3.69-2.91A54.86,54.86,0,0,0,191,73.91q-12.27-3.85-17.25-9.25a19.27,19.27,0,0,1-5-13.61,19,19,0,0,1,3.48-11.32,22.34,22.34,0,0,1,9.66-7.54,35,35,0,0,1,13.87-2.65A40.74,40.74,0,0,1,210.25,31.93Z"/><path class="cls-9" d="M279,51.05q7.59,8.21,7.58,22.86t-7.63,23q-7.64,8.46-21.46,8.47-14,0-21.6-8.32T228.27,73.8q0-14.34,7.64-22.65t21.55-8.31Q271.4,42.84,279,51.05ZM249.67,60q-2.38,4.17-2.39,13.82,0,10.08,2.39,14.39t7.79,4.31q5.42,0,7.74-4.31t2.34-14.28q0-9.68-2.39-13.87t-7.69-4.21Q252.06,55.83,249.67,60Z"/><path class="cls-9" d="M344.11,39.15q10.38,7.74,10.39,28.11,0,36.36-36.47,36.36H295V31.41h21.61Q333.73,31.41,344.11,39.15Zm-29.92,6V89.9h5q7.89,0,11.68-5t3.8-17.66q0-8.73-1.82-13.56c-1.22-3.22-2.95-5.46-5.2-6.7a17.51,17.51,0,0,0-8.57-1.87Z"/><path class="cls-9" d="M392.31,103.62,389.92,92.4H375l-2.38,11.22H353.36L371.64,44.4h21.92l18.18,59.22Zm-14.75-24h9.66L382.34,57Z"/></svg>