<svg width="462" height="156" viewBox="0 0 462 156" fill="none" xmlns="http://www.w3.org/2000/svg">
<path d="M138.61 99.11H143.87V93.85H138.61V99.11ZM159.53 78.11V83.36H164.79V78.08L159.53 78.11ZM93.53 68.46C91.78 67.66 84.64 65.24 78.69 69.85C80.556 69.3237 82.4816 69.038 84.42 69C83.933 69.3202 83.5603 69.7869 83.3557 70.3327C83.1512 70.8785 83.1253 71.4752 83.2819 72.0366C83.4385 72.5981 83.7695 73.0953 84.227 73.4564C84.6845 73.8175 85.245 74.0239 85.8275 74.0459C86.4099 74.0678 86.9843 73.904 87.4676 73.5783C87.951 73.2526 88.3184 72.7817 88.5167 72.2336C88.7151 71.6855 88.7341 71.0885 88.5712 70.5289C88.4082 69.9693 88.0716 69.4759 87.61 69.12C89.312 69.2789 90.9899 69.6346 92.61 70.18L93.53 68.46ZM154.37 78.25C154.411 68.5855 151.777 59.0981 146.759 50.8382C141.741 42.5782 134.536 35.8679 125.94 31.45V31.45C110.55 23.64 93.94 23.81 78.53 31.65C54.99 43.65 45.85 72.25 52.32 93.42C56.279 106.369 65.1166 117.272 76.9657 123.825C88.8148 130.379 102.747 132.069 115.82 128.54V128.61C124.326 126.139 132.036 121.48 138.18 115.1L122 99.44L112.53 102.7L110 112.85C95.46 113.91 91.28 117.78 86.21 116.33C82.59 115.33 81.21 109.18 80.67 107.17C79.76 105.26 79.4 106.17 77.67 103.93L85 100.22H76.42C76.42 100.22 77.32 96.22 76.19 93.14C76.19 93.14 75.84 92.51 70.5 91.63C68.5 89.35 76.28 78.84 76.5 71.63L71.63 69.3C71.63 69.3 74.63 52.14 81.27 42.73L81.37 42.46C81.37 42.46 98.86 40.34 113.37 48.75L111.71 57.25L111.82 57.07C121.18 60.61 127.82 67.44 127.82 77.53H133.08V72.82H143.83V78.1H138.61V88.59H143.92V83.34H149.06V88.59H154.31V83.33H149.07V78.22L154.37 78.25ZM138.37 67.59H133V62.3H138.26L138.37 67.59ZM143.92 72.85V67.56H149.18V72.82L143.92 72.85Z" fill="white"/>
<path d="M167.657 113.424C168.693 113.424 169.586 113.659 170.339 114.127C171.091 114.585 171.668 115.255 172.072 116.138C172.475 117.021 172.677 118.089 172.677 119.343C172.677 120.575 172.475 121.637 172.072 122.531C171.668 123.414 171.091 124.09 170.339 124.559C169.586 125.027 168.693 125.262 167.657 125.262C166.622 125.262 165.722 125.033 164.959 124.575C164.207 124.106 163.63 123.43 163.226 122.547C162.823 121.654 162.621 120.585 162.621 119.343C162.621 118.122 162.823 117.07 163.226 116.187C163.64 115.294 164.224 114.612 164.976 114.144C165.739 113.664 166.633 113.424 167.657 113.424ZM167.657 115.223C166.829 115.223 166.202 115.55 165.777 116.204C165.363 116.858 165.156 117.904 165.156 119.343C165.156 120.782 165.368 121.828 165.793 122.482C166.218 123.136 166.84 123.463 167.657 123.463C168.486 123.463 169.107 123.142 169.521 122.498C169.935 121.844 170.142 120.793 170.142 119.343C170.142 117.893 169.935 116.847 169.521 116.204C169.107 115.55 168.486 115.223 167.657 115.223ZM177.457 113.686C179.223 113.686 180.635 114.089 181.692 114.896C182.76 115.691 183.294 117.157 183.294 119.294C183.294 121.387 182.771 122.864 181.725 123.725C180.689 124.575 179.359 125 177.735 125H174.498V113.686H177.457ZM176.901 115.452V123.234H177.882C178.809 123.234 179.523 122.951 180.024 122.384C180.537 121.806 180.793 120.776 180.793 119.294C180.793 118.269 180.662 117.474 180.4 116.907C180.15 116.34 179.812 115.958 179.387 115.762C178.962 115.555 178.444 115.452 177.833 115.452H176.901ZM187.535 113.686V125H185.132V113.686H187.535ZM193.388 113.424C194.205 113.424 194.914 113.544 195.513 113.784C196.124 114.013 196.685 114.367 197.197 114.847L196.053 116.171C195.65 115.844 195.246 115.604 194.843 115.452C194.44 115.299 194.009 115.223 193.551 115.223C193.05 115.223 192.647 115.332 192.341 115.55C192.047 115.757 191.9 116.057 191.9 116.449C191.9 116.721 191.96 116.945 192.08 117.119C192.211 117.294 192.434 117.457 192.75 117.61C193.066 117.762 193.54 117.937 194.173 118.133C195.295 118.493 196.135 118.94 196.69 119.474C197.246 119.997 197.524 120.749 197.524 121.73C197.524 122.428 197.35 123.043 197.001 123.578C196.652 124.101 196.145 124.515 195.481 124.82C194.816 125.114 194.036 125.262 193.143 125.262C192.249 125.262 191.453 125.12 190.755 124.836C190.058 124.553 189.458 124.166 188.957 123.676L190.183 122.319C190.619 122.689 191.072 122.973 191.54 123.169C192.009 123.354 192.521 123.447 193.077 123.447C193.666 123.447 194.134 123.31 194.483 123.038C194.843 122.765 195.023 122.384 195.023 121.893C195.023 121.588 194.957 121.338 194.827 121.141C194.707 120.934 194.494 120.749 194.189 120.585C193.884 120.422 193.442 120.253 192.865 120.079C191.633 119.697 190.75 119.239 190.216 118.705C189.693 118.171 189.431 117.474 189.431 116.612C189.431 115.98 189.6 115.424 189.938 114.945C190.276 114.454 190.745 114.078 191.344 113.817C191.944 113.555 192.625 113.424 193.388 113.424ZM202.457 113.424C203.274 113.424 203.983 113.544 204.582 113.784C205.193 114.013 205.754 114.367 206.266 114.847L205.122 116.171C204.719 115.844 204.315 115.604 203.912 115.452C203.509 115.299 203.078 115.223 202.62 115.223C202.119 115.223 201.716 115.332 201.411 115.55C201.116 115.757 200.969 116.057 200.969 116.449C200.969 116.721 201.029 116.945 201.149 117.119C201.28 117.294 201.503 117.457 201.819 117.61C202.135 117.762 202.61 117.937 203.242 118.133C204.364 118.493 205.204 118.94 205.76 119.474C206.316 119.997 206.593 120.749 206.593 121.73C206.593 122.428 206.419 123.043 206.07 123.578C205.721 124.101 205.215 124.515 204.55 124.82C203.885 125.114 203.105 125.262 202.212 125.262C201.318 125.262 200.522 125.12 199.825 124.836C199.127 124.553 198.527 124.166 198.026 123.676L199.252 122.319C199.688 122.689 200.141 122.973 200.609 123.169C201.078 123.354 201.59 123.447 202.146 123.447C202.735 123.447 203.204 123.31 203.552 123.038C203.912 122.765 204.092 122.384 204.092 121.893C204.092 121.588 204.027 121.338 203.896 121.141C203.776 120.934 203.563 120.749 203.258 120.585C202.953 120.422 202.511 120.253 201.934 120.079C200.702 119.697 199.819 119.239 199.285 118.705C198.762 118.171 198.5 117.474 198.5 116.612C198.5 115.98 198.669 115.424 199.007 114.945C199.345 114.454 199.814 114.078 200.413 113.817C201.013 113.555 201.694 113.424 202.457 113.424ZM215.004 113.686L214.743 115.435H210.655V118.378H214.22V120.111H210.655V123.234H215.037V125H208.252V113.686H215.004ZM219.293 113.686V125H216.89V113.686H219.293ZM229.137 113.424C229.955 113.424 230.663 113.544 231.263 113.784C231.873 114.013 232.435 114.367 232.947 114.847L231.802 116.171C231.399 115.844 230.996 115.604 230.593 115.452C230.189 115.299 229.759 115.223 229.301 115.223C228.8 115.223 228.396 115.332 228.091 115.55C227.797 115.757 227.65 116.057 227.65 116.449C227.65 116.721 227.71 116.945 227.829 117.119C227.96 117.294 228.184 117.457 228.5 117.61C228.816 117.762 229.29 117.937 229.922 118.133C231.045 118.493 231.884 118.94 232.44 119.474C232.996 119.997 233.274 120.749 233.274 121.73C233.274 122.428 233.1 123.043 232.751 123.578C232.402 124.101 231.895 124.515 231.23 124.82C230.565 125.114 229.786 125.262 228.892 125.262C227.998 125.262 227.203 125.12 226.505 124.836C225.807 124.553 225.208 124.166 224.707 123.676L225.933 122.319C226.369 122.689 226.821 122.973 227.29 123.169C227.759 123.354 228.271 123.447 228.827 123.447C229.415 123.447 229.884 123.31 230.233 123.038C230.593 122.765 230.772 122.384 230.772 121.893C230.772 121.588 230.707 121.338 230.576 121.141C230.456 120.934 230.244 120.749 229.939 120.585C229.633 120.422 229.192 120.253 228.614 120.079C227.383 119.697 226.5 119.239 225.966 118.705C225.442 118.171 225.181 117.474 225.181 116.612C225.181 115.98 225.35 115.424 225.688 114.945C226.025 114.454 226.494 114.078 227.094 113.817C227.693 113.555 228.374 113.424 229.137 113.424ZM238.529 116.073C239.826 116.073 240.84 116.482 241.57 117.299C242.301 118.106 242.666 119.228 242.666 120.667C242.666 121.583 242.497 122.389 242.159 123.087C241.832 123.774 241.352 124.308 240.72 124.689C240.099 125.071 239.363 125.262 238.513 125.262C237.216 125.262 236.197 124.858 235.456 124.052C234.725 123.234 234.36 122.106 234.36 120.667C234.36 119.752 234.524 118.95 234.851 118.264C235.189 117.566 235.668 117.027 236.289 116.645C236.922 116.264 237.668 116.073 238.529 116.073ZM238.529 117.806C237.941 117.806 237.499 118.04 237.205 118.509C236.922 118.967 236.78 119.686 236.78 120.667C236.78 121.648 236.922 122.373 237.205 122.842C237.499 123.3 237.935 123.528 238.513 123.528C239.091 123.528 239.521 123.3 239.805 122.842C240.099 122.373 240.246 121.648 240.246 120.667C240.246 119.686 240.104 118.967 239.821 118.509C239.538 118.04 239.107 117.806 238.529 117.806ZM248.045 116.073C248.623 116.073 249.14 116.16 249.598 116.334C250.067 116.498 250.508 116.76 250.922 117.119L249.909 118.493C249.625 118.275 249.347 118.117 249.075 118.019C248.813 117.92 248.524 117.871 248.208 117.871C246.977 117.871 246.361 118.82 246.361 120.716C246.361 121.675 246.519 122.362 246.835 122.776C247.151 123.191 247.603 123.398 248.192 123.398C248.497 123.398 248.775 123.354 249.026 123.267C249.277 123.169 249.571 123.011 249.909 122.793L250.922 124.248C250.094 124.924 249.146 125.262 248.078 125.262C247.227 125.262 246.486 125.076 245.854 124.706C245.233 124.335 244.753 123.812 244.415 123.136C244.077 122.449 243.908 121.648 243.908 120.733C243.908 119.817 244.077 119.01 244.415 118.313C244.753 117.604 245.233 117.054 245.854 116.661C246.486 116.269 247.216 116.073 248.045 116.073ZM254.561 116.334V125H252.239V116.334H254.561ZM253.384 111.871C253.798 111.871 254.136 112.002 254.397 112.263C254.67 112.514 254.806 112.836 254.806 113.228C254.806 113.62 254.67 113.947 254.397 114.209C254.136 114.46 253.798 114.585 253.384 114.585C252.97 114.585 252.632 114.46 252.37 114.209C252.108 113.947 251.978 113.62 251.978 113.228C251.978 112.836 252.108 112.514 252.37 112.263C252.632 112.002 252.97 111.871 253.384 111.871ZM263.475 122.597C263.475 122.934 263.524 123.185 263.623 123.349C263.721 123.501 263.884 123.616 264.113 123.692L263.623 125.229C263.11 125.185 262.691 125.065 262.364 124.869C262.047 124.673 261.802 124.368 261.628 123.954C261.061 124.826 260.194 125.262 259.028 125.262C258.167 125.262 257.48 125.016 256.968 124.526C256.467 124.024 256.216 123.376 256.216 122.58C256.216 121.632 256.559 120.907 257.246 120.406C257.933 119.904 258.919 119.654 260.205 119.654H261.203V119.228C261.203 118.694 261.083 118.324 260.843 118.117C260.603 117.91 260.205 117.806 259.649 117.806C259.039 117.806 258.276 117.959 257.36 118.264L256.837 116.711C257.916 116.285 258.985 116.073 260.042 116.073C261.219 116.073 262.086 116.329 262.642 116.841C263.197 117.343 263.475 118.095 263.475 119.098V122.597ZM259.666 123.594C260.32 123.594 260.832 123.272 261.203 122.629V120.978H260.434C259.181 120.978 258.554 121.447 258.554 122.384C258.554 122.765 258.647 123.065 258.832 123.283C259.028 123.49 259.306 123.594 259.666 123.594ZM267.794 125.262C267.085 125.262 266.535 125.06 266.142 124.657C265.75 124.242 265.554 123.659 265.554 122.907V112.885L267.875 112.623V122.842C267.875 123.223 268.033 123.414 268.349 123.414C268.524 123.414 268.676 123.381 268.807 123.316L269.281 124.967C268.835 125.164 268.339 125.262 267.794 125.262ZM277.473 113.686C279.239 113.686 280.651 114.089 281.708 114.896C282.776 115.691 283.31 117.157 283.31 119.294C283.31 121.387 282.787 122.864 281.741 123.725C280.705 124.575 279.375 125 277.751 125H274.514V113.686H277.473ZM276.918 115.452V123.234H277.899C278.825 123.234 279.539 122.951 280.04 122.384C280.553 121.806 280.809 120.776 280.809 119.294C280.809 118.269 280.678 117.474 280.416 116.907C280.166 116.34 279.828 115.958 279.403 115.762C278.978 115.555 278.46 115.452 277.849 115.452H276.918ZM291.561 122.597C291.561 122.934 291.61 123.185 291.708 123.349C291.806 123.501 291.97 123.616 292.199 123.692L291.708 125.229C291.196 125.185 290.776 125.065 290.449 124.869C290.133 124.673 289.888 124.368 289.713 123.954C289.147 124.826 288.28 125.262 287.114 125.262C286.253 125.262 285.566 125.016 285.054 124.526C284.552 124.024 284.302 123.376 284.302 122.58C284.302 121.632 284.645 120.907 285.332 120.406C286.018 119.904 287.005 119.654 288.291 119.654H289.288V119.228C289.288 118.694 289.168 118.324 288.929 118.117C288.689 117.91 288.291 117.806 287.735 117.806C287.125 117.806 286.362 117.959 285.446 118.264L284.923 116.711C286.002 116.285 287.07 116.073 288.127 116.073C289.305 116.073 290.171 116.329 290.727 116.841C291.283 117.343 291.561 118.095 291.561 119.098V122.597ZM287.751 123.594C288.405 123.594 288.918 123.272 289.288 122.629V120.978H288.52C287.266 120.978 286.64 121.447 286.64 122.384C286.64 122.765 286.732 123.065 286.918 123.283C287.114 123.49 287.392 123.594 287.751 123.594ZM299.064 124.591C298.747 124.809 298.388 124.973 297.984 125.082C297.592 125.202 297.2 125.262 296.807 125.262C295.913 125.251 295.238 124.995 294.78 124.493C294.322 123.992 294.093 123.256 294.093 122.286V117.969H292.802V116.334H294.093V114.438L296.415 114.16V116.334H298.41L298.181 117.969H296.415V122.237C296.415 122.651 296.486 122.951 296.627 123.136C296.769 123.321 296.987 123.414 297.281 123.414C297.576 123.414 297.903 123.316 298.262 123.12L299.064 124.591ZM306.538 122.597C306.538 122.934 306.587 123.185 306.685 123.349C306.783 123.501 306.947 123.616 307.175 123.692L306.685 125.229C306.173 125.185 305.753 125.065 305.426 124.869C305.11 124.673 304.865 124.368 304.69 123.954C304.123 124.826 303.257 125.262 302.091 125.262C301.23 125.262 300.543 125.016 300.031 124.526C299.529 124.024 299.278 123.376 299.278 122.58C299.278 121.632 299.622 120.907 300.308 120.406C300.995 119.904 301.982 119.654 303.268 119.654H304.265V119.228C304.265 118.694 304.145 118.324 303.905 118.117C303.666 117.91 303.268 117.806 302.712 117.806C302.102 117.806 301.339 117.959 300.423 118.264L299.9 116.711C300.979 116.285 302.047 116.073 303.104 116.073C304.282 116.073 305.148 116.329 305.704 116.841C306.26 117.343 306.538 118.095 306.538 119.098V122.597ZM302.728 123.594C303.382 123.594 303.895 123.272 304.265 122.629V120.978H303.497C302.243 120.978 301.616 121.447 301.616 122.384C301.616 122.765 301.709 123.065 301.894 123.283C302.091 123.49 302.369 123.594 302.728 123.594ZM316.348 113.424C317.166 113.424 317.874 113.544 318.474 113.784C319.084 114.013 319.645 114.367 320.158 114.847L319.013 116.171C318.61 115.844 318.207 115.604 317.803 115.452C317.4 115.299 316.969 115.223 316.512 115.223C316.01 115.223 315.607 115.332 315.302 115.55C315.007 115.757 314.86 116.057 314.86 116.449C314.86 116.721 314.92 116.945 315.04 117.119C315.171 117.294 315.394 117.457 315.71 117.61C316.027 117.762 316.501 117.937 317.133 118.133C318.256 118.493 319.095 118.94 319.651 119.474C320.207 119.997 320.485 120.749 320.485 121.73C320.485 122.428 320.31 123.043 319.961 123.578C319.613 124.101 319.106 124.515 318.441 124.82C317.776 125.114 316.997 125.262 316.103 125.262C315.209 125.262 314.413 125.12 313.716 124.836C313.018 124.553 312.419 124.166 311.917 123.676L313.143 122.319C313.579 122.689 314.032 122.973 314.501 123.169C314.969 123.354 315.482 123.447 316.037 123.447C316.626 123.447 317.095 123.31 317.444 123.038C317.803 122.765 317.983 122.384 317.983 121.893C317.983 121.588 317.918 121.338 317.787 121.141C317.667 120.934 317.454 120.749 317.149 120.585C316.844 120.422 316.403 120.253 315.825 120.079C314.593 119.697 313.71 119.239 313.176 118.705C312.653 118.171 312.391 117.474 312.391 116.612C312.391 115.98 312.56 115.424 312.898 114.945C313.236 114.454 313.705 114.078 314.304 113.817C314.904 113.555 315.585 113.424 316.348 113.424ZM325.707 116.073C326.285 116.073 326.803 116.16 327.261 116.334C327.729 116.498 328.171 116.76 328.585 117.119L327.571 118.493C327.288 118.275 327.01 118.117 326.737 118.019C326.476 117.92 326.187 117.871 325.871 117.871C324.639 117.871 324.023 118.82 324.023 120.716C324.023 121.675 324.181 122.362 324.497 122.776C324.814 123.191 325.266 123.398 325.854 123.398C326.16 123.398 326.438 123.354 326.688 123.267C326.939 123.169 327.233 123.011 327.571 122.793L328.585 124.248C327.757 124.924 326.808 125.262 325.74 125.262C324.89 125.262 324.149 125.076 323.516 124.706C322.895 124.335 322.416 123.812 322.078 123.136C321.74 122.449 321.571 121.648 321.571 120.733C321.571 119.817 321.74 119.01 322.078 118.313C322.416 117.604 322.895 117.054 323.516 116.661C324.149 116.269 324.879 116.073 325.707 116.073ZM332.223 116.334V125H329.902V116.334H332.223ZM331.046 111.871C331.46 111.871 331.798 112.002 332.06 112.263C332.332 112.514 332.469 112.836 332.469 113.228C332.469 113.62 332.332 113.947 332.06 114.209C331.798 114.46 331.46 114.585 331.046 114.585C330.632 114.585 330.294 114.46 330.033 114.209C329.771 113.947 329.64 113.62 329.64 113.228C329.64 112.836 329.771 112.514 330.033 112.263C330.294 112.002 330.632 111.871 331.046 111.871ZM341.841 120.471C341.841 120.58 341.825 120.88 341.792 121.37H336.38C336.456 122.155 336.669 122.711 337.018 123.038C337.366 123.365 337.841 123.528 338.44 123.528C338.811 123.528 339.16 123.469 339.487 123.349C339.814 123.229 340.168 123.038 340.549 122.776L341.514 124.084C340.544 124.869 339.448 125.262 338.228 125.262C336.865 125.262 335.819 124.853 335.088 124.035C334.358 123.218 333.993 122.111 333.993 120.716C333.993 119.833 334.146 119.043 334.451 118.346C334.767 117.637 335.219 117.081 335.808 116.678C336.407 116.275 337.116 116.073 337.933 116.073C339.165 116.073 340.124 116.46 340.811 117.234C341.498 118.008 341.841 119.087 341.841 120.471ZM339.536 119.817C339.536 118.378 339.018 117.659 337.982 117.659C337.503 117.659 337.127 117.839 336.854 118.198C336.593 118.547 336.435 119.119 336.38 119.915H339.536V119.817ZM348.361 116.073C349.124 116.073 349.718 116.307 350.143 116.776C350.568 117.234 350.781 117.871 350.781 118.689V125H348.459V119.081C348.459 118.613 348.377 118.286 348.214 118.1C348.061 117.904 347.827 117.806 347.511 117.806C347.184 117.806 346.884 117.91 346.612 118.117C346.35 118.313 346.094 118.613 345.843 119.016V125H343.521V116.334H345.532L345.712 117.43C346.072 116.983 346.464 116.645 346.89 116.416C347.326 116.187 347.816 116.073 348.361 116.073ZM356.603 116.073C357.181 116.073 357.699 116.16 358.156 116.334C358.625 116.498 359.066 116.76 359.481 117.119L358.467 118.493C358.184 118.275 357.906 118.117 357.633 118.019C357.372 117.92 357.083 117.871 356.767 117.871C355.535 117.871 354.919 118.82 354.919 120.716C354.919 121.675 355.077 122.362 355.393 122.776C355.709 123.191 356.162 123.398 356.75 123.398C357.055 123.398 357.333 123.354 357.584 123.267C357.835 123.169 358.129 123.011 358.467 122.793L359.481 124.248C358.652 124.924 357.704 125.262 356.636 125.262C355.786 125.262 355.044 125.076 354.412 124.706C353.791 124.335 353.311 123.812 352.973 123.136C352.635 122.449 352.467 121.648 352.467 120.733C352.467 119.817 352.635 119.01 352.973 118.313C353.311 117.604 353.791 117.054 354.412 116.661C355.044 116.269 355.775 116.073 356.603 116.073ZM367.803 120.471C367.803 120.58 367.787 120.88 367.754 121.37H362.342C362.418 122.155 362.631 122.711 362.98 123.038C363.328 123.365 363.803 123.528 364.402 123.528C364.773 123.528 365.122 123.469 365.449 123.349C365.776 123.229 366.13 123.038 366.511 122.776L367.476 124.084C366.506 124.869 365.41 125.262 364.19 125.262C362.827 125.262 361.781 124.853 361.05 124.035C360.32 123.218 359.955 122.111 359.955 120.716C359.955 119.833 360.108 119.043 360.413 118.346C360.729 117.637 361.181 117.081 361.77 116.678C362.369 116.275 363.078 116.073 363.895 116.073C365.127 116.073 366.086 116.46 366.773 117.234C367.46 118.008 367.803 119.087 367.803 120.471ZM365.498 119.817C365.498 118.378 364.98 117.659 363.944 117.659C363.465 117.659 363.089 117.839 362.816 118.198C362.555 118.547 362.397 119.119 362.342 119.915H365.498V119.817ZM381.029 113.686L380.767 115.566H377.906V125H375.503V115.566H372.494V113.686H381.029ZM388.64 120.471C388.64 120.58 388.623 120.88 388.591 121.37H383.179C383.255 122.155 383.468 122.711 383.816 123.038C384.165 123.365 384.639 123.528 385.239 123.528C385.609 123.528 385.958 123.469 386.285 123.349C386.612 123.229 386.966 123.038 387.348 122.776L388.313 124.084C387.343 124.869 386.247 125.262 385.026 125.262C383.664 125.262 382.617 124.853 381.887 124.035C381.157 123.218 380.792 122.111 380.792 120.716C380.792 119.833 380.944 119.043 381.249 118.346C381.566 117.637 382.018 117.081 382.606 116.678C383.206 116.275 383.914 116.073 384.732 116.073C385.964 116.073 386.923 116.46 387.61 117.234C388.296 118.008 388.64 119.087 388.64 120.471ZM386.334 119.817C386.334 118.378 385.817 117.659 384.781 117.659C384.301 117.659 383.925 117.839 383.653 118.198C383.391 118.547 383.233 119.119 383.179 119.915H386.334V119.817ZM396.782 122.597C396.782 122.934 396.831 123.185 396.929 123.349C397.027 123.501 397.191 123.616 397.42 123.692L396.929 125.229C396.417 125.185 395.997 125.065 395.67 124.869C395.354 124.673 395.109 124.368 394.935 123.954C394.368 124.826 393.501 125.262 392.335 125.262C391.474 125.262 390.787 125.016 390.275 124.526C389.773 124.024 389.523 123.376 389.523 122.58C389.523 121.632 389.866 120.907 390.553 120.406C391.24 119.904 392.226 119.654 393.512 119.654H394.51V119.228C394.51 118.694 394.39 118.324 394.15 118.117C393.91 117.91 393.512 117.806 392.956 117.806C392.346 117.806 391.583 117.959 390.667 118.264L390.144 116.711C391.223 116.285 392.291 116.073 393.349 116.073C394.526 116.073 395.392 116.329 395.948 116.841C396.504 117.343 396.782 118.095 396.782 119.098V122.597ZM392.973 123.594C393.627 123.594 394.139 123.272 394.51 122.629V120.978H393.741C392.488 120.978 391.861 121.447 391.861 122.384C391.861 122.765 391.953 123.065 392.139 123.283C392.335 123.49 392.613 123.594 392.973 123.594ZM408.47 116.073C409.157 116.073 409.708 116.307 410.122 116.776C410.547 117.245 410.759 117.882 410.759 118.689V125H408.438V119.081C408.438 118.231 408.154 117.806 407.587 117.806C407.282 117.806 407.015 117.904 406.786 118.1C406.557 118.296 406.323 118.602 406.083 119.016V125H403.762V119.081C403.762 118.231 403.478 117.806 402.911 117.806C402.606 117.806 402.339 117.91 402.11 118.117C401.881 118.313 401.652 118.613 401.424 119.016V125H399.102V116.334H401.113L401.293 117.414C401.62 116.978 401.985 116.645 402.388 116.416C402.802 116.187 403.277 116.073 403.811 116.073C404.301 116.073 404.726 116.198 405.086 116.449C405.446 116.689 405.707 117.032 405.871 117.479C406.23 117.01 406.617 116.661 407.032 116.433C407.457 116.193 407.936 116.073 408.47 116.073Z" fill="white"/>
<path d="M210.25 31.93C214.45 33.5385 218.283 35.977 221.52 39.1L212.9 49.28C207.907 45.34 202.677 43.3667 197.21 43.36C194.37 43.36 192.21 43.9 190.72 44.97C189.998 45.4754 189.414 46.1541 189.023 46.9439C188.632 47.7337 188.445 48.6092 188.48 49.49C188.432 50.7338 188.837 51.9528 189.62 52.92C190.709 54.0446 192.02 54.9301 193.47 55.52C196.253 56.7151 199.101 57.7533 202 58.63C209.414 60.99 214.834 63.9533 218.26 67.52C221.687 71.0867 223.4 76.02 223.4 82.32C223.479 86.6182 222.248 90.8386 219.87 94.42C217.32 98.0746 213.762 100.91 209.63 102.58C204.639 104.621 199.281 105.612 193.89 105.49C182.397 105.49 173.014 101.993 165.74 95L175.19 84.5C180.944 89.2067 186.944 91.5633 193.19 91.57C196.444 91.57 198.97 90.86 200.77 89.44C201.639 88.7781 202.338 87.9183 202.807 86.9321C203.277 85.9459 203.504 84.8618 203.47 83.77C203.538 82.3356 203.191 80.9121 202.47 79.67C201.52 78.3903 200.246 77.3861 198.78 76.76C196.262 75.6152 193.662 74.6625 191 73.91C182.82 71.3433 177.07 68.26 173.75 64.66C170.375 60.9473 168.581 56.0646 168.75 51.05C168.675 47.0023 169.894 43.0362 172.23 39.73C174.684 36.3654 178.03 33.7538 181.89 32.19C186.286 30.3735 191.005 29.4718 195.76 29.54C200.695 29.4523 205.605 30.2622 210.25 31.93V31.93Z" fill="white"/>
<path d="M279 51.05C284.06 56.5233 286.587 64.1433 286.58 73.91C286.573 83.6766 284.03 91.3433 278.95 96.91C273.857 102.55 266.703 105.373 257.49 105.38C248.157 105.38 240.957 102.607 235.89 97.06C230.823 91.5133 228.283 83.76 228.27 73.8C228.27 64.24 230.817 56.69 235.91 51.15C241.003 45.61 248.187 42.84 257.46 42.84C266.753 42.84 273.933 45.5766 279 51.05ZM249.67 60C248.083 62.78 247.287 67.3866 247.28 73.82C247.28 80.54 248.077 85.3366 249.67 88.21C251.263 91.0833 253.86 92.52 257.46 92.52C261.073 92.52 263.653 91.0833 265.2 88.21C266.747 85.3366 267.527 80.5766 267.54 73.93C267.54 67.4766 266.743 62.8533 265.15 60.06C263.557 57.2666 260.993 55.8633 257.46 55.85C253.86 55.8366 251.263 57.22 249.67 60Z" fill="white"/>
<path d="M344.11 39.15C351.03 44.31 354.493 53.68 354.5 67.26C354.5 91.5 342.343 103.62 318.03 103.62H295V31.41H316.61C328.023 31.41 337.19 33.99 344.11 39.15ZM314.19 45.15V89.9H319.19C324.45 89.9 328.343 88.2334 330.87 84.9C333.397 81.5667 334.663 75.68 334.67 67.24C334.67 61.42 334.063 56.9 332.85 53.68C331.63 50.46 329.9 48.22 327.65 46.98C324.998 45.6397 322.049 44.9962 319.08 45.11L314.19 45.15Z" fill="white"/>
<path d="M392.31 103.62L389.92 92.4H375L372.62 103.62H353.36L371.64 44.4H393.56L411.74 103.62H392.31ZM377.56 79.62H387.22L382.34 57L377.56 79.62Z" fill="white"/>
</svg>
