<?xml version="1.0" encoding="UTF-8" standalone="no"?>
<svg
   id="Layer_1"
   data-name="Layer 1"
   viewBox="0 0 461.96 155.98"
   version="1.1"
   sodipodi:docname="word_colour_fontembedded.svg"
   inkscape:version="1.2.2 (732a01da63, 2022-12-09)"
   xmlns:inkscape="http://www.inkscape.org/namespaces/inkscape"
   xmlns:sodipodi="http://sodipodi.sourceforge.net/DTD/sodipodi-0.dtd"
   xmlns="http://www.w3.org/2000/svg"
   xmlns:svg="http://www.w3.org/2000/svg"
   xmlns:rdf="http://www.w3.org/1999/02/22-rdf-syntax-ns#"
   xmlns:cc="http://creativecommons.org/ns#"
   xmlns:dc="http://purl.org/dc/elements/1.1/">
  <sodipodi:namedview
     id="namedview60"
     pagecolor="#ffffff"
     bordercolor="#000000"
     borderopacity="0.25"
     inkscape:showpageshadow="2"
     inkscape:pageopacity="0.0"
     inkscape:pagecheckerboard="0"
     inkscape:deskcolor="#d1d1d1"
     showgrid="false"
     inkscape:zoom="1.5130145"
     inkscape:cx="161.59792"
     inkscape:cy="78.320464"
     inkscape:window-width="2560"
     inkscape:window-height="1370"
     inkscape:window-x="1252"
     inkscape:window-y="-4"
     inkscape:window-maximized="1"
     inkscape:current-layer="text49" />
  <defs
     id="defs17">
    <style
       id="style2">.cls-1{fill:url(#Naamloos_verloop_563);}.cls-2{font-size:16.35px;font-family:FiraSans-SemiBold, Fira Sans;font-weight:600;}.cls-3{letter-spacing:-0.01em;}.cls-4{letter-spacing:-0.01em;}.cls-5{letter-spacing:-0.01em;}.cls-6{letter-spacing:0em;}.cls-7{letter-spacing:-0.02em;}.cls-8{letter-spacing:-0.06em;}.cls-9{fill:#006388;}</style>
    <linearGradient
       id="Naamloos_verloop_563"
       x1="68.36"
       y1="117.91"
       x2="135.58"
       y2="37.81"
       gradientUnits="userSpaceOnUse">
      <stop
         offset="0"
         stop-color="#00b0b7"
         id="stop4" />
      <stop
         offset="0.06"
         stop-color="#06a5b1"
         id="stop6" />
      <stop
         offset="0.28"
         stop-color="#1787a0"
         id="stop8" />
      <stop
         offset="0.39"
         stop-color="#1e7b9a"
         id="stop10" />
      <stop
         offset="0.7"
         stop-color="#61acdf"
         id="stop12" />
      <stop
         offset="1"
         stop-color="#2d6ab1"
         id="stop14" />
    </linearGradient>
  </defs>
  <title
     id="title19">word_colour</title>
  <path
     class="cls-1"
     d="M138.61,99.11h5.26V93.85h-5.26Zm20.92-21v5.25h5.26V78.08Zm-66-9.65c-1.75-.8-8.89-3.22-14.84,1.39A22.75,22.75,0,0,1,84.42,69a2.75,2.75,0,1,0,3.19.12,22.12,22.12,0,0,1,5,1.06Zm60.84,9.79a52.37,52.37,0,0,0-28.43-46.8h0c-15.39-7.81-32-7.64-47.41.2-23.54,12-32.68,40.6-26.21,61.77a52.18,52.18,0,0,0,63.5,35.12l0,.07a50.67,50.67,0,0,0,22.36-13.51L122,99.44l-9.47,3.26S110,112.85,110,112.85c-14.54,1.06-18.72,4.93-23.79,3.48-3.62-1-5-7.15-5.54-9.16-.91-1.91-1.27-1-3-3.24L85,100.22l-8.58,0s.9-4-.23-7.08c0,0-.35-.63-5.69-1.51-2-2.28,5.78-12.79,6-20l-4.87-2.33s3-17.16,9.64-26.57l.1-.27s17.49-2.12,32,6.29l-1.66,8.5.11-.18c9.36,3.54,16,10.37,16,20.46h5.26V72.82h10.75V78.1h-5.22V88.59h5.31V83.34h5.14v5.25h5.25V83.33h-5.24V78.22Zm-16-10.66H133V62.3h5.26Zm5.55,5.26V67.56h5.26v5.26Z"
     id="path21" />
  <g
     aria-label="ODISSEI SocialData ScienceTeam"
     transform="translate(164.79 126.43)"
     id="text49"
     class="cls-2"
     style="font-weight:600;font-size:16.35px;font-family:FiraSans-SemiBold, 'Fira Sans'">
    <path
       d="m 5.6571001,-11.5758 q 1.5532501,0 2.6814001,0.70305 1.12815,0.6867 1.7330998,2.0110498 0.60495,1.32435 0.60495,3.2046001 0,1.84755 -0.60495,3.18825 -0.6049498,1.3243501 -1.7330998,2.02740009 -1.12815,0.70305002 -2.6814001,0.70305002 -1.55325,0 -2.69775,-0.68670002 Q 1.8312,-1.12815 1.22625,-2.4525001 q -0.60494999,-1.3407 -0.60494999,-3.2046 0,-1.8312001 0.60494999,-3.1555501 0.6213,-1.3406998 1.7494501,-2.0437498 1.1445,-0.7194 2.6814,-0.7194 z m 0,1.7984998 q -1.2426,0 -1.88025,0.981 -0.6213,0.981 -0.6213,3.1392001 0,2.1582 0.63765,3.1392 0.63765,0.9810001 1.8639,0.9810001 1.2426001,0 1.8639001,-0.9646501 0.6213,-0.981 0.6213,-3.15555 0,-2.1745501 -0.6213,-3.1392001 -0.6213,-0.981 -1.8639001,-0.981 z"
       id="path343" />
    <path
       d="m 15.45075,-11.3142 q 2.6487,0 4.23465,1.2099 1.6023,1.1935498 1.6023,4.3981499 0,3.1392 -1.5696,4.4308501 Q 18.16485,0 15.7287,0 h -3.2373 v -11.3142 z m -0.5559,1.7657998 V -1.7658 h 0.981 q 1.38975,0 2.14185,-0.8502001 0.76845,-0.86655 0.76845,-3.09015 0,-1.5369001 -0.3924,-2.3871001 -0.37605,-0.8502 -1.0137,-1.1445 -0.63765,-0.31065 -1.55325,-0.31065 z"
       id="path345" />
    <path
       d="m 25.522343,0 h -2.40345 v -11.3142 h 2.40345 z"
       id="path347" />
    <path
       d="m 31.3834,-11.5758 q 1.22625,0 2.1255,0.3597 0.9156,0.34335 1.68405,1.06275 l -1.1445,1.3243498 q -0.60495,-0.4905 -1.2099,-0.7194 -0.60495,-0.2289 -1.29165,-0.2289 -0.7521,0 -1.2099,0.327 -0.44145,0.31065 -0.44145,0.89925 0,0.40875 0.17985,0.67035 0.1962,0.2616 0.67035,0.4905 0.47415,0.2289 1.42245,0.5232 1.68405,0.5395501 2.5179,1.3407001 0.83385,0.7848 0.83385,2.2563 0,1.0464 -0.5232,1.8475501 -0.5232,0.78479999 -1.52055,1.2426 -0.99735,0.44145001 -2.33805,0.44145001 -1.3407,0 -2.3871,-0.42510001 -1.0464,-0.42510001 -1.7985,-1.16085 l 1.2426,-1.3570501 q 0.63765,0.5559001 1.3407,0.8502001 0.70305,0.27795 1.5369,0.27795 0.8829,0 1.4061,-0.40875 0.53955,-0.4087501 0.53955,-1.1445001 0,-0.4578 -0.1962,-0.7521 -0.17985,-0.31065 -0.63765,-0.5559 -0.4578,-0.24525 -1.32435,-0.50685 -1.84755,-0.57225 -2.6487,-1.3734 -0.7848,-0.8011501 -0.7848,-2.0928001 0,-0.9483 0.50685,-1.6676998 0.50685,-0.73575 1.4061,-1.12815 0.89925,-0.3924 2.04375,-0.3924 z"
       style="letter-spacing:-0.01em"
       id="path349" />
    <path
       d="m 40.443399,-11.5758 q 1.22625,0 2.1255,0.3597 0.9156,0.34335 1.68405,1.06275 l -1.1445,1.3243498 q -0.60495,-0.4905 -1.2099,-0.7194 -0.60495,-0.2289 -1.29165,-0.2289 -0.7521,0 -1.2099,0.327 -0.44145,0.31065 -0.44145,0.89925 0,0.40875 0.17985,0.67035 0.1962,0.2616 0.67035,0.4905 0.47415,0.2289 1.42245,0.5232 1.68405,0.5395501 2.5179,1.3407001 0.83385,0.7848 0.83385,2.2563 0,1.0464 -0.5232,1.8475501 -0.5232,0.78479999 -1.52055,1.2426 -0.99735,0.44145001 -2.33805,0.44145001 -1.3407,0 -2.3871,-0.42510001 -1.0464,-0.42510001 -1.7985,-1.16085 l 1.2426,-1.3570501 q 0.63765,0.5559001 1.3407,0.8502001 0.70305,0.27795 1.5369,0.27795 0.8829,0 1.4061,-0.40875 0.53955,-0.4087501 0.53955,-1.1445001 0,-0.4578 -0.1962,-0.7521 -0.17985,-0.31065 -0.63765,-0.5559 -0.4578,-0.24525 -1.32435,-0.50685 -1.84755,-0.57225 -2.6487,-1.3734 -0.7848,-0.8011501 -0.7848,-2.0928001 0,-0.9483 0.50685,-1.6676998 0.50685,-0.73575 1.4061,-1.12815 0.89925,-0.3924 2.04375,-0.3924 z"
       id="path351" />
    <path
       d="m 52.722258,-9.5647502 h -4.0875 v 2.943 h 3.5643 v 1.7331001 h -3.5643 V -1.7658 h 4.3818 V 0 h -6.78525 v -11.3142 h 6.75255 z"
       id="path353" />
    <path
       d="m 57.267555,0 h -2.40345 v -11.3142 h 2.40345 z"
       id="path355" />
    <path
       d="m 67.110258,-11.5758 q 1.22625,0 2.1255,0.3597 0.9156,0.34335 1.68405,1.06275 l -1.1445,1.3243498 q -0.60495,-0.4905 -1.2099,-0.7194 -0.60495,-0.2289 -1.29165,-0.2289 -0.7521,0 -1.2099,0.327 -0.44145,0.31065 -0.44145,0.89925 0,0.40875 0.17985,0.67035 0.1962,0.2616 0.67035,0.4905 0.47415,0.2289 1.42245,0.5232 1.68405,0.5395501 2.5179,1.3407001 0.83385,0.7848 0.83385,2.2563 0,1.0464 -0.5232,1.8475501 -0.5232,0.78479999 -1.52055,1.2426 -0.99735,0.44145001 -2.33805,0.44145001 -1.3407,0 -2.3871,-0.42510001 -1.0464,-0.42510001 -1.7985,-1.16085 l 1.2426,-1.3570501 q 0.63765,0.5559001 1.3407,0.8502001 0.70305,0.27795 1.5369,0.27795 0.8829,0 1.4061,-0.40875 0.53955,-0.4087501 0.53955,-1.1445001 0,-0.4578 -0.1962,-0.7521 -0.17985,-0.31065 -0.63765,-0.5559 -0.4578,-0.24525 -1.32435,-0.50685 -1.84755,-0.57225 -2.6487,-1.3734 -0.7848,-0.8011501 -0.7848,-2.0928001 0,-0.9483 0.50685,-1.6676998 0.50685,-0.73575 1.4061,-1.12815 0.89925,-0.3924 2.04375,-0.3924 z"
       id="path357" />
    <path
       d="m 76.495167,-8.9271002 q 1.94565,0 3.0411,1.22625 1.09545,1.2099 1.09545,3.3681001 0,1.3734 -0.50685,2.4198001 -0.4905,1.03004998 -1.4388,1.60229999 -0.93195,0.57225002 -2.20725,0.57225002 -1.94565,0 -3.05745,-1.20990003 -1.09545,-1.22625008 -1.09545,-3.38445008 0,-1.3734 0.4905,-2.4034501 0.50685,-1.0464 1.4388,-1.61865 0.9483,-0.57225 2.23995,-0.57225 z m 0,1.7331 q -0.8829,0 -1.32435,0.70305 -0.4251,0.6867001 -0.4251,2.1582001 0,1.4715 0.4251,2.17455 0.44145,0.6867001 1.308,0.6867001 0.86655,0 1.29165,-0.6867001 0.44145,-0.70305 0.44145,-2.17455 0,-1.4715 -0.4251,-2.1582001 -0.4251,-0.70305 -1.29165,-0.70305 z"
       id="path359" />
    <path
       d="m 86.01086,-8.9271002 q 0.86655,0 1.55325,0.2616 0.70305,0.24525 1.32435,0.7848 l -1.0137,1.3734 q -0.4251,-0.327 -0.83385,-0.47415 -0.3924,-0.14715 -0.86655,-0.14715 -1.84755,0 -1.84755,2.8449001 0,1.4388 0.47415,2.0601 0.47415,0.6213001 1.35705,0.6213001 0.4578,0 0.83385,-0.1308 0.37605,-0.14715 0.8829,-0.4741501 l 1.0137,1.45515008 q -1.2426,1.01370003 -2.8449,1.01370003 -1.2753,0 -2.2236,-0.55590002 -0.93195,-0.55590001 -1.4388,-1.56959999 -0.50685,-1.0300501 -0.50685,-2.4034501 0,-1.3734 0.50685,-2.4198001 0.50685,-1.06275 1.4388,-1.65135 0.9483,-0.5886 2.1909,-0.5886 z"
       id="path361" />
    <path
       d="m 92.534521,0 h -2.3217 v -8.6655002 h 2.3217 z m -1.1772,-13.12905 q 0.6213,0 1.0137,0.3924 0.40875,0.37605 0.40875,0.96465 0,0.5886 -0.40875,0.981 -0.3924,0.37605 -1.0137,0.37605 -0.6213,0 -1.0137,-0.37605 -0.3924,-0.3924 -0.3924,-0.981 0,-0.5886 0.3924,-0.96465 0.3924,-0.3924 1.0137,-0.3924 z"
       id="path363" />
    <path
       d="m 101.44625,-2.4034501 q 0,0.5068501 0.14715,0.7521001 0.14715,0.2289 0.4905,0.34335 l -0.4905,1.53690001 Q 100.82495,0.14715 100.33445,-0.1308 99.8603,-0.42510001 99.5987,-1.03005 q -0.86655,1.29165001 -2.59965,1.29165001 -1.29165,0 -2.0601,-0.73575002 -0.7521,-0.75209999 -0.7521,-1.94565009 0,-1.42245 1.03005,-2.17455 1.03005,-0.7521 2.95935,-0.7521 h 0.99735 v -0.4251 q 0,-0.8011501 -0.3597,-1.1118001 -0.3597,-0.31065 -1.19355,-0.31065 -0.9156,0 -2.289,0.4578 l -0.5232,-1.55325 q 1.61865,-0.63765 3.2046,-0.63765 1.7658,0 2.59965,0.76845 0.83385,0.7521 0.83385,2.2563001 z M 97.6367,-1.4061 q 0.981,0 1.5369,-0.9646501 v -1.65135 h -0.76845 q -1.88025,0 -1.88025,1.4061 0,0.5722501 0.27795,0.8992501 0.2943,0.31065 0.83385,0.31065 z"
       style="letter-spacing:-0.01em"
       id="path365" />
    <path
       d="m 105.7727,0.26160001 q -1.06275,0 -1.65135,-0.60495002 -0.5886,-0.62130001 -0.5886,-1.74944999 v -10.02255 l 2.3217,-0.2616 v 10.2187499 q 0,0.5722501 0.47415,0.5722501 0.2616,0 0.4578,-0.0981 l 0.47415,1.65135 q -0.67035,0.29430001 -1.48785,0.29430001 z"
       id="path367" />
    <path
       d="m 115.4529,-11.3142 q 2.6487,0 4.23465,1.2099 1.6023,1.1935498 1.6023,4.3981499 0,3.1392 -1.5696,4.4308501 Q 118.167,0 115.73085,0 h -3.2373 v -11.3142 z m -0.5559,1.7657998 V -1.7658 h 0.981 q 1.38975,0 2.14185,-0.8502001 0.76845,-0.86655 0.76845,-3.09015 0,-1.5369001 -0.3924,-2.3871001 -0.37605,-0.8502 -1.0137,-1.1445 -0.63765,-0.31065 -1.55325,-0.31065 z"
       style="letter-spacing:-0.01em"
       id="path369" />
    <path
       d="m 129.52625,-2.4034501 q 0,0.5068501 0.14715,0.7521001 0.14715,0.2289 0.4905,0.34335 l -0.4905,1.53690001 Q 128.90495,0.14715 128.41445,-0.1308 q -0.47415,-0.29430001 -0.73575,-0.89925 -0.86655,1.29165001 -2.59965,1.29165001 -1.29165,0 -2.0601,-0.73575002 -0.7521,-0.75209999 -0.7521,-1.94565009 0,-1.42245 1.03005,-2.17455 1.03005,-0.7521 2.95935,-0.7521 h 0.99735 v -0.4251 q 0,-0.8011501 -0.3597,-1.1118001 -0.3597,-0.31065 -1.19355,-0.31065 -0.9156,0 -2.289,0.4578 l -0.5232,-1.55325 q 1.61865,-0.63765 3.2046,-0.63765 1.7658,0 2.59965,0.76845 0.83385,0.7521 0.83385,2.2563001 z M 125.7167,-1.4061 q 0.981,0 1.5369,-0.9646501 v -1.65135 h -0.76845 q -1.88025,0 -1.88025,1.4061 0,0.5722501 0.27795,0.8992501 0.2943,0.31065 0.83385,0.31065 z"
       id="path371" />
    <path
       d="m 137.03746,-0.40875001 q -0.47415,0.32700001 -1.0791,0.49050001 -0.5886,0.17985001 -1.1772,0.17985001 -1.3407,-0.01635 -2.0274,-0.76845002 -0.6867,-0.75209999 -0.6867,-2.20725009 v -4.3164001 h -1.29165 v -1.635 h 1.29165 V -10.5621 l 2.3217,-0.27795 v 2.1745498 h 1.9947 l -0.2289,1.635 h -1.7658 v 4.2673501 q 0,0.6213001 0.21255,0.8992501 0.21255,0.27795 0.654,0.27795 0.4578,0 0.981,-0.31065 z"
       style="letter-spacing:-0.01em"
       id="path373" />
    <path
       d="m 144.50626,-2.4034501 q 0,0.5068501 0.14715,0.7521001 0.14715,0.2289 0.4905,0.34335 l -0.4905,1.53690001 Q 143.88496,0.14715 143.39446,-0.1308 q -0.47415,-0.29430001 -0.73575,-0.89925 -0.86655,1.29165001 -2.59965,1.29165001 -1.29165,0 -2.0601,-0.73575002 -0.7521,-0.75209999 -0.7521,-1.94565009 0,-1.42245 1.03005,-2.17455 1.03005,-0.7521 2.95935,-0.7521 h 0.99735 v -0.4251 q 0,-0.8011501 -0.3597,-1.1118001 -0.3597,-0.31065 -1.19355,-0.31065 -0.9156,0 -2.289,0.4578 l -0.5232,-1.55325 q 1.61865,-0.63765 3.2046,-0.63765 1.7658,0 2.59965,0.76845 0.83385,0.7521 0.83385,2.2563001 z M 140.69671,-1.4061 q 0.981,0 1.5369,-0.9646501 v -1.65135 h -0.76845 q -1.88025,0 -1.88025,1.4061 0,0.5722501 0.27795,0.8992501 0.2943,0.31065 0.83385,0.31065 z"
       style="letter-spacing:0em"
       id="path375" />
    <path
       d="m 154.31626,-11.5758 q 1.22625,0 2.1255,0.3597 0.9156,0.34335 1.68405,1.06275 l -1.1445,1.3243498 q -0.60495,-0.4905 -1.2099,-0.7194 -0.60495,-0.2289 -1.29165,-0.2289 -0.7521,0 -1.2099,0.327 -0.44145,0.31065 -0.44145,0.89925 0,0.40875 0.17985,0.67035 0.1962,0.2616 0.67035,0.4905 0.47415,0.2289 1.42245,0.5232 1.68405,0.5395501 2.5179,1.3407001 0.83385,0.7848 0.83385,2.2563 0,1.0464 -0.5232,1.8475501 -0.5232,0.78479999 -1.52055,1.2426 -0.99735,0.44145001 -2.33805,0.44145001 -1.3407,0 -2.3871,-0.42510001 -1.0464,-0.42510001 -1.7985,-1.16085 l 1.2426,-1.3570501 q 0.63765,0.5559001 1.3407,0.8502001 0.70305,0.27795 1.5369,0.27795 0.8829,0 1.4061,-0.40875 0.53955,-0.4087501 0.53955,-1.1445001 0,-0.4578 -0.1962,-0.7521 -0.17985,-0.31065 -0.63765,-0.5559 -0.4578,-0.24525 -1.32435,-0.50685 -1.84755,-0.57225 -2.6487,-1.3734 -0.7848,-0.8011501 -0.7848,-2.0928001 0,-0.9483 0.50685,-1.6676998 0.50685,-0.73575 1.4061,-1.12815 0.89925,-0.3924 2.04375,-0.3924 z"
       style="letter-spacing:0em"
       id="path377" />
    <path
       d="m 163.66847,-8.9271002 q 0.86655,0 1.55325,0.2616 0.70305,0.24525 1.32435,0.7848 l -1.0137,1.3734 q -0.4251,-0.327 -0.83385,-0.47415 -0.3924,-0.14715 -0.86655,-0.14715 -1.84755,0 -1.84755,2.8449001 0,1.4388 0.47415,2.0601 0.47415,0.6213001 1.35705,0.6213001 0.4578,0 0.83385,-0.1308 0.37605,-0.14715 0.8829,-0.4741501 l 1.0137,1.45515008 q -1.2426,1.01370003 -2.8449,1.01370003 -1.2753,0 -2.2236,-0.55590002 -0.93195,-0.55590001 -1.4388,-1.56959999 -0.50685,-1.0300501 -0.50685,-2.4034501 0,-1.3734 0.50685,-2.4198001 0.50685,-1.06275 1.4388,-1.65135 0.9483,-0.5886 2.1909,-0.5886 z"
       style="letter-spacing:0em"
       id="path379" />
    <path
       d="m 170.19213,0 h -2.3217 v -8.6655002 h 2.3217 z m -1.1772,-13.12905 q 0.6213,0 1.0137,0.3924 0.40875,0.37605 0.40875,0.96465 0,0.5886 -0.40875,0.981 -0.3924,0.37605 -1.0137,0.37605 -0.6213,0 -1.0137,-0.37605 -0.3924,-0.3924 -0.3924,-0.981 0,-0.5886 0.3924,-0.96465 0.3924,-0.3924 1.0137,-0.3924 z"
       style="letter-spacing:0em"
       id="path381" />
    <path
       d="m 179.80592,-4.5289501 q 0,0.1635 -0.049,0.89925 h -5.41185 q 0.11445,1.1772 0.63765,1.6677001 0.5232,0.4905 1.42245,0.4905 0.5559,0 1.0464,-0.17985 0.4905,-0.17985 1.06275,-0.5722501 l 0.96465,1.30800008 q -1.45515,1.17720003 -3.28635,1.17720003 -2.04375,0 -3.1392,-1.22625003 -1.09545,-1.22625008 -1.09545,-3.31905008 0,-1.32435 0.4578,-2.3707501 0.47415,-1.06275 1.35705,-1.6677 0.89925,-0.60495 2.1255,-0.60495 1.84755,0 2.8776,1.16085 1.03005,1.16085 1.03005,3.2373001 z m -2.30535,-0.654 q 0,-2.1582001 -1.55325,-2.1582001 -0.7194,0 -1.1118,0.53955 -0.3924,0.5232001 -0.4905,1.7167501 h 3.15555 z"
       style="letter-spacing:0em"
       id="path383" />
    <path
       d="m 186.36227,-8.9271002 q 1.1445,0 1.78215,0.70305 0.63765,0.6867 0.63765,1.9129501 V 0 h -2.3217 v -5.9187001 q 0,-0.7030501 -0.24525,-0.9810001 -0.2289,-0.2943 -0.70305,-0.2943 -0.4905,0 -0.89925,0.31065 -0.3924,0.2943 -0.76845,0.8992501 V 0 h -2.3217 v -8.6655002 h 2.01105 l 0.17985,1.09545 q 1.09545,-1.35705 2.6487,-1.35705 z"
       style="letter-spacing:0em"
       id="path385" />
    <path
       d="m 194.57786,-8.9271002 q 0.86655,0 1.55325,0.2616 0.70305,0.24525 1.32435,0.7848 l -1.0137,1.3734 q -0.4251,-0.327 -0.83385,-0.47415 -0.3924,-0.14715 -0.86655,-0.14715 -1.84755,0 -1.84755,2.8449001 0,1.4388 0.47415,2.0601 0.47415,0.6213001 1.35705,0.6213001 0.4578,0 0.83385,-0.1308 0.37605,-0.14715 0.8829,-0.4741501 l 1.0137,1.45515008 q -1.2426,1.01370003 -2.8449,1.01370003 -1.2753,0 -2.2236,-0.55590002 -0.93195,-0.55590001 -1.4388,-1.56959999 -0.50685,-1.0300501 -0.50685,-2.4034501 0,-1.3734 0.50685,-2.4198001 0.50685,-1.06275 1.4388,-1.65135 0.9483,-0.5886 2.1909,-0.5886 z"
       style="letter-spacing:-0.02em"
       id="path387" />
    <path
       d="m 205.7793,-4.5289501 q 0,0.1635 -0.049,0.89925 h -5.41185 q 0.11445,1.1772 0.63765,1.6677001 0.5232,0.4905 1.42245,0.4905 0.5559,0 1.0464,-0.17985 0.4905,-0.17985 1.06275,-0.5722501 l 0.96465,1.30800008 q -1.45515,1.17720003 -3.28635,1.17720003 -2.04375,0 -3.1392,-1.22625003 -1.09545,-1.22625008 -1.09545,-3.31905008 0,-1.32435 0.4578,-2.3707501 0.47415,-1.06275 1.35705,-1.6677 0.89925,-0.60495 2.1255,-0.60495 1.84755,0 2.8776,1.16085 1.03005,1.16085 1.03005,3.2373001 z m -2.30535,-0.654 q 0,-2.1582001 -1.55325,-2.1582001 -0.7194,0 -1.1118,0.53955 -0.3924,0.5232001 -0.4905,1.7167501 h 3.15555 z"
       style="letter-spacing:0em"
       id="path389" />
    <path
       d="m 218.7466,-9.4339502 h -2.86125 V 0 h -2.40345 v -9.4339502 h -3.0084 V -11.3142 h 8.5347 z"
       style="letter-spacing:-0.06em"
       id="path391" />
    <path
       d="m 226.6093,-4.5289501 q 0,0.1635 -0.049,0.89925 h -5.41185 q 0.11445,1.1772 0.63765,1.6677001 0.5232,0.4905 1.42245,0.4905 0.5559,0 1.0464,-0.17985 0.4905,-0.17985 1.06275,-0.5722501 l 0.96465,1.30800008 q -1.45515,1.17720003 -3.28635,1.17720003 -2.04375,0 -3.1392,-1.22625003 -1.09545,-1.22625008 -1.09545,-3.31905008 0,-1.32435 0.4578,-2.3707501 0.47415,-1.06275 1.35705,-1.6677 0.89925,-0.60495 2.1255,-0.60495 1.84755,0 2.8776,1.16085 1.03005,1.16085 1.03005,3.2373001 z m -2.30535,-0.654 q 0,-2.1582001 -1.55325,-2.1582001 -0.7194,0 -1.1118,0.53955 -0.3924,0.5232001 -0.4905,1.7167501 h 3.15555 z"
       style="letter-spacing:-0.01em"
       id="path393" />
    <path
       d="m 234.75626,-2.4034501 q 0,0.5068501 0.14715,0.7521001 0.14715,0.2289 0.4905,0.34335 l -0.4905,1.53690001 Q 234.13496,0.14715 233.64446,-0.1308 q -0.47415,-0.29430001 -0.73575,-0.89925 -0.86655,1.29165001 -2.59965,1.29165001 -1.29165,0 -2.0601,-0.73575002 -0.7521,-0.75209999 -0.7521,-1.94565009 0,-1.42245 1.03005,-2.17455 1.03005,-0.7521 2.95935,-0.7521 h 0.99735 v -0.4251 q 0,-0.8011501 -0.3597,-1.1118001 -0.3597,-0.31065 -1.19355,-0.31065 -0.9156,0 -2.289,0.4578 l -0.5232,-1.55325 q 1.61865,-0.63765 3.2046,-0.63765 1.7658,0 2.59965,0.76845 0.83385,0.7521 0.83385,2.2563001 z M 230.94671,-1.4061 q 0.981,0 1.5369,-0.9646501 v -1.65135 h -0.76845 q -1.88025,0 -1.88025,1.4061 0,0.5722501 0.27795,0.8992501 0.2943,0.31065 0.83385,0.31065 z"
       id="path395" />
    <path
       d="m 246.44652,-8.9271002 q 1.03005,0 1.65135,0.70305 0.63765,0.70305 0.63765,1.9129501 V 0 h -2.3217 v -5.9187001 q 0,-1.2753001 -0.8502,-1.2753001 -0.4578,0 -0.80115,0.2943 -0.34335,0.2943 -0.70305,0.9156001 V 0 h -2.3217 v -5.9187001 q 0,-1.2753001 -0.8502,-1.2753001 -0.4578,0 -0.80115,0.31065 -0.34335,0.2943 -0.6867,0.8992501 V 0 h -2.3217 v -8.6655002 h 2.01105 l 0.17985,1.0791 q 0.4905,-0.67035 1.09545,-0.99735 0.6213,-0.34335 1.42245,-0.34335 0.73575,0 1.2753,0.37605 0.53955,0.3597 0.80115,1.0464 0.5232,-0.7194 1.1445,-1.06275 0.6213,-0.3597 1.4388,-0.3597 z"
       id="path397" />
  </g>
  <path
     class="cls-9"
     d="M210.25,31.93a33.47,33.47,0,0,1,11.27,7.17L212.9,49.28q-7.49-5.91-15.69-5.92c-2.84,0-5,.54-6.49,1.61a5.26,5.26,0,0,0-2.24,4.52,5.13,5.13,0,0,0,1.14,3.43,11.27,11.27,0,0,0,3.85,2.6A81.14,81.14,0,0,0,202,58.63q11.12,3.54,16.26,8.89t5.14,14.8a21.17,21.17,0,0,1-3.53,12.1,23,23,0,0,1-10.24,8.16,39.24,39.24,0,0,1-15.74,2.91q-17.24,0-28.15-10.49l9.45-10.5q8.63,7.06,18,7.07,4.88,0,7.58-2.13a6.86,6.86,0,0,0,2.7-5.67,7.47,7.47,0,0,0-1-4.1,9,9,0,0,0-3.69-2.91A54.86,54.86,0,0,0,191,73.91q-12.27-3.85-17.25-9.25a19.27,19.27,0,0,1-5-13.61,19,19,0,0,1,3.48-11.32,22.34,22.34,0,0,1,9.66-7.54,35,35,0,0,1,13.87-2.65A40.74,40.74,0,0,1,210.25,31.93Z"
     id="path51" />
  <path
     class="cls-9"
     d="M279,51.05q7.59,8.21,7.58,22.86t-7.63,23q-7.64,8.46-21.46,8.47-14,0-21.6-8.32T228.27,73.8q0-14.34,7.64-22.65t21.55-8.31Q271.4,42.84,279,51.05ZM249.67,60q-2.38,4.17-2.39,13.82,0,10.08,2.39,14.39t7.79,4.31q5.42,0,7.74-4.31t2.34-14.28q0-9.68-2.39-13.87t-7.69-4.21Q252.06,55.83,249.67,60Z"
     id="path53" />
  <path
     class="cls-9"
     d="M344.11,39.15q10.38,7.74,10.39,28.11,0,36.36-36.47,36.36H295V31.41h21.61Q333.73,31.41,344.11,39.15Zm-29.92,6V89.9h5q7.89,0,11.68-5t3.8-17.66q0-8.73-1.82-13.56c-1.22-3.22-2.95-5.46-5.2-6.7a17.51,17.51,0,0,0-8.57-1.87Z"
     id="path55" />
  <path
     class="cls-9"
     d="M392.31,103.62,389.92,92.4H375l-2.38,11.22H353.36L371.64,44.4h21.92l18.18,59.22Zm-14.75-24h9.66L382.34,57Z"
     id="path57" />
  <metadata
     id="metadata400">
    <rdf:RDF>
      <cc:Work
         rdf:about="">
        <dc:title>word_colour</dc:title>
      </cc:Work>
    </rdf:RDF>
  </metadata>
</svg>
