<svg width="1100" height="1100" viewBox="0 0 1100 1100" fill="none" xmlns="http://www.w3.org/2000/svg">
<rect width="1100" height="1100" fill="white"/>
<path fill-rule="evenodd" clip-rule="evenodd" d="M870.225 383.334C869.692 382.946 868.426 382.809 867.838 382.692C865.39 382.21 862.869 382 860.374 382C852.681 382.012 844.863 382.767 837.298 384.074C832.494 384.903 826.687 387.696 821.909 386.179C813.585 383.537 805.172 383.667 797.274 387.439C790.053 390.888 784.572 397.439 781.373 404.517C780.89 405.586 778.932 409.519 778.378 412.17C778.141 412.712 777.913 413.257 777.708 413.811C777.126 415.384 776.603 416.984 776.118 418.588C775.91 419.272 775.389 420.782 776.008 421.074C775.019 422.901 774.141 424.783 773.411 426.726C771.286 432.378 768.962 438.578 768.215 444.568C767.939 446.786 767.928 449.017 768.185 451.239C768.312 452.338 768.26 454.546 769.004 455.382C770.585 457.154 771.396 454.673 771.218 453.491C769.858 444.485 772.485 436.027 775.598 427.561C777.612 422.087 780.92 417.078 784.626 412.543C787.625 408.871 790.842 405.98 794.953 403.546C799.981 400.569 805.356 398.163 810.681 395.749C814.184 394.161 817.691 392.615 821.291 391.247C822.092 390.942 823.351 390.161 824.239 390.158C826.116 390.152 828.777 391.537 830.59 392.052C836.554 393.748 842.594 395.919 848.758 396.785C852.712 397.341 856.416 396.715 860.113 395.398C860.491 395.264 861.125 394.918 861.901 394.424C864.646 393.368 867.243 392.039 869.504 390.121C870.806 389.017 871.989 387.589 873.067 386.282C873.389 385.892 873.532 385.444 873.537 385.018C873.781 384.891 873.943 384.741 873.98 384.567C874.249 383.281 871.796 383.258 870.225 383.334" fill="#89C5CC"/>
<path fill-rule="evenodd" clip-rule="evenodd" d="M245.273 490.541C243.764 491.763 242.284 493.012 240.84 494.31C239.739 495.301 237.791 496.486 237.396 497.986C236.985 499.544 238.282 501.003 239.306 501.945C244.723 506.929 250.823 510.299 258.329 510.859C269.887 511.722 279.946 508.77 289.974 502.963C297.018 498.883 301.684 492.849 302.703 484.701C311.092 488.187 319.205 492.993 326.1 498.891C329.502 501.801 332.432 505.026 335.142 508.599C336.878 510.889 338.557 513.215 340.115 515.631C340.792 516.681 341.481 518.542 342.599 519.146C343.912 519.857 345.499 518.743 345.434 517.284C345.379 516.069 344.068 514.66 343.454 513.667C342.436 512.018 341.402 510.38 340.313 508.776C338.551 506.18 336.73 503.62 334.744 501.19C330.28 495.731 324.601 491.221 318.714 487.375C307.42 479.997 295.025 475.349 281.283 474.955C272.833 474.713 265.725 477.6 258.499 481.911C254 484.596 249.356 487.235 245.273 490.541" fill="#DDE3E9"/>
<path fill-rule="evenodd" clip-rule="evenodd" d="M354.883 454.856C346.077 445.787 337.241 436.832 327.403 428.847C321.605 424.141 315.495 419.863 309.511 415.401C310.201 416.006 310.878 416.628 311.539 417.266C309.671 415.998 307.226 415.281 305.246 414.107C303.037 412.798 300.925 411.301 298.854 409.791C294.811 406.845 290.829 403.843 286.673 401.051C282.043 397.94 277.245 395.066 272.536 392.073C268.539 389.532 264.494 386.751 260.218 384.675C257.888 383.543 255.553 382.201 253.213 381.02C252.43 380.625 244.484 375.608 244.504 375.593C244.943 375.262 248.942 377.141 249.56 377.393C251.366 378.131 253.094 379.014 254.83 379.893C253.877 378.013 253.123 376.038 252.712 373.958C252.585 373.317 251.569 368.644 252.089 368.252C252.348 368.057 254.883 376.416 255.013 377.22C255.119 377.872 255.103 378.813 255.317 379.431C255.662 380.429 255.645 380.128 256.405 380.69C257.798 381.721 259.647 382.365 261.154 383.227C261.968 383.681 264.485 385.48 266.001 385.993C270.588 388.222 275.238 391.649 279.597 394.495C278.453 392.345 277.582 390.097 276.948 387.742C276.797 387.182 275.167 382.165 275.563 381.867C276.008 381.532 279.112 389.195 279.296 389.92C279.637 391.268 279.708 392.768 280.136 394.079C280.605 395.518 282.07 396.028 283.39 396.867C288.247 399.953 292.938 403.232 297.55 406.662C302.583 397.711 296.78 386.903 291.89 379.393C288.364 373.981 283.619 369.34 278.608 365.289C271.92 359.882 264.269 355.563 256.627 351.612C247.723 347.009 238.099 344.157 228.093 342.839C222.86 342.15 217.507 342.169 212.221 342.39C209.639 342.498 207.16 342.84 204.686 343.682C203.57 344.062 202.492 344.541 201.442 345.077C200.644 345.484 198.713 345.915 198.255 346.522C194.477 351.438 192.545 356.337 192.84 362.515C193.119 368.363 194.966 374.214 197.472 379.431C200.264 385.24 203.854 390.512 208.55 394.936C212.132 398.312 216.137 401.251 220.116 404.15C234.267 414.463 252.208 423.433 270.536 421.129C276.469 420.383 282.112 418.308 287.385 415.489C288.628 414.824 289.863 414.152 291.036 413.368C291.827 412.839 293.941 410.456 294.736 410.37C295.827 410.251 298.175 412.469 299.198 413.144C306.972 418.275 314.542 423.685 321.953 429.313C329.839 435.302 337.337 441.697 344.615 448.393C347.71 451.242 350.786 454.096 353.791 457.04C354.491 457.725 356.202 460.247 357.471 460.362C358.273 460.434 358.814 459.749 358.7 459.006C358.501 457.716 355.785 455.784 354.883 454.856" fill="#C1DEE2"/>
<path fill-rule="evenodd" clip-rule="evenodd" d="M860.98 419.66C857.57 418.915 853.803 418.972 850.329 419.033C831.695 419.287 813.397 428.109 801.489 442.205C791.351 454.205 788.563 469.125 786.56 484.207C786.362 485.704 786.277 487.192 786.165 488.693C786.141 489.015 786.105 489.302 786.066 489.573C785.279 490.277 784.865 491.098 785.332 492C783.597 495.797 782.129 499.69 780.869 503.706C777.162 515.526 773.392 527.571 775.714 540C776.257 533.16 777.399 526.166 778.764 519.438C778.842 519.052 778.927 518.669 779.015 518.287C779.025 518.247 779.033 518.206 779.042 518.166C779.525 516.106 780.153 514.108 780.917 512.141C780.925 512.119 780.933 512.098 780.941 512.077C781.042 511.818 781.149 511.56 781.255 511.303C781.474 510.77 781.699 510.238 781.937 509.709C782.018 509.528 782.095 509.346 782.17 509.163C783.282 506.437 783.751 503.365 784.748 500.545C784.986 499.904 785.235 499.265 785.496 498.629C785.512 498.592 785.527 498.555 785.543 498.518C786.249 496.807 787.028 495.118 787.853 493.446C788.301 493.11 788.54 492.274 788.927 491.515C789.006 491.365 789.631 490.368 789.817 489.793C790.303 488.854 790.786 487.915 791.275 486.977C791.261 486.983 791.246 486.988 791.231 486.994C791.72 486.093 792.211 485.197 792.698 484.304C792.805 484.108 792.913 483.912 793.021 483.715C793.196 483.402 793.371 483.089 793.545 482.777C795.177 479.856 796.908 476.994 798.705 474.167C799.347 473.158 800.879 471.711 801.173 470.579C801.184 470.536 801.186 470.497 801.193 470.457C805.093 464.979 809.582 459.927 814.967 455.924C814.316 456.628 812.932 459.015 812.567 459.488C811.447 460.935 810.232 462.282 809.013 463.646C806.828 466.089 804.696 468.609 802.801 471.274C799.335 476.148 796.346 481.277 793.519 486.51C793.493 486.54 793.463 486.569 793.438 486.601C792.017 488.352 791.123 490.998 790.101 493.001C794.147 491.127 798.622 489.906 802.774 488.242C806.916 486.583 810.944 484.735 814.834 482.566C820.003 479.682 825.366 476.427 830.25 472.743C835.847 469.271 840.551 464.492 844.703 459.477C849.615 453.543 854.117 447.558 856.901 440.353C858.269 436.813 859.345 433.121 859.983 429.386C860.011 429.224 860.046 429.047 860.085 428.864C860.738 427.574 861.321 426.255 861.811 424.906C862.588 422.766 864.425 420.412 860.98 419.66" fill="#69A1AC"/>
<path fill-rule="evenodd" clip-rule="evenodd" d="M176.933 420.349C175.44 418.86 173.763 417.517 171.795 416.559C171.297 416.317 167.589 414.695 167.347 415.051C166.785 415.88 176.485 419.874 176.933 420.349M194.513 410.404C194.501 410.467 195.787 412.476 196.137 413.094C196.882 414.407 197.57 415.746 198.217 417.087C197.259 414.718 196.274 412.521 194.513 410.404M104.605 426.758C103.366 427.125 101.878 425.677 103.484 425.321C104.783 425.035 104.72 424.967 105.303 424.003C105.777 423.22 106.069 422.266 106.485 421.444C107.367 419.702 108.367 418.04 109.595 416.483C112.227 413.145 115.434 410.269 119.031 407.845C125.307 403.616 132.345 399.75 139.811 397.808C151.681 394.72 165.191 394.529 177.08 396.671C184.443 397.996 191.172 400.301 196.061 405.761C198.505 408.489 200.423 411.686 201.261 415.205C201.48 416.126 201.439 417.149 201.713 418.049C202.134 419.434 201.948 419.066 203.707 419.335C205.628 419.629 207.547 419.929 209.465 420.235C214.488 421.035 219.541 421.884 224.435 423.183C226.046 423.61 227.622 424.132 229.16 424.739C230.324 425.197 234.959 426.637 235.523 428.029C236.46 430.346 233.319 429.296 232.343 428.791C231.488 428.349 230.61 427.937 229.719 427.557C227.477 426.601 225.141 425.862 222.751 425.274C220.17 424.638 217.535 424.163 214.911 423.688C212.463 423.245 210.006 422.842 207.547 422.457C206.18 422.242 204.812 422.034 203.445 421.826C202.978 421.755 202.154 421.383 202.216 421.942C199.341 421.432 196.231 421.505 193.302 421.365C189.715 421.192 186.114 421.051 182.515 421.154C179.919 421.229 177.321 421.386 174.738 421.707C173.229 421.895 171.744 422.169 170.263 422.517C169.449 422.708 166.242 423.113 165.799 423.766C165.989 423.486 169.529 423.758 169.98 423.742C171.782 423.68 173.57 423.515 175.365 423.331C178.697 422.988 182.031 422.809 185.373 422.835C185.36 423.375 183.077 424.338 182.52 424.696C181.27 425.499 180.073 426.375 178.957 427.336C176.99 429.028 174.635 431.124 173.274 433.129C173.675 432.538 175.653 431.769 176.355 431.318C177.48 430.594 178.581 429.823 179.624 428.998C180.586 428.236 181.484 427.413 182.367 426.573C183.25 425.732 184.448 423.983 185.608 423.423C185.678 423.389 186.184 423.757 186.471 423.632C186.761 423.506 187.122 422.876 187.195 422.85C188.275 422.466 190.327 422.944 191.462 422.992C194.406 423.117 197.348 423.281 200.291 423.43C201.202 423.476 201.977 423.285 202.321 423.904C202.688 424.565 202.016 426.3 201.824 427.02C201.115 429.691 199.855 432.087 197.871 434.156C194.157 438.033 189.576 440.618 184.402 442.346C164.582 448.968 143.496 451.62 123.682 444.732C115.479 441.88 103.126 436.784 104.605 426.758" fill="#89C5CC"/>
<g opacity="0.6" clip-path="url(#clip0_107_4204)">
<path fill-rule="evenodd" clip-rule="evenodd" d="M1012.09 738.725C1025.57 822.782 698.578 877.609 417.124 839.346C135.67 801.084 6.55268 651.664 140.858 572.048C275.163 492.431 998.608 654.669 1012.09 738.725Z" fill="#DDE3E9"/>
</g>
<rect x="318" y="264" width="159" height="302" rx="8" fill="#F2F2F2"/>
<path fill-rule="evenodd" clip-rule="evenodd" d="M397 547C405.284 547 412 540.284 412 532C412 523.716 405.284 517 397 517C388.716 517 382 523.716 382 532C382 540.284 388.716 547 397 547Z" fill="white"/>
<path fill-rule="evenodd" clip-rule="evenodd" d="M384 284C385.105 284 386 283.105 386 282C386 280.895 385.105 280 384 280C382.895 280 382 280.895 382 282C382 283.105 382.895 284 384 284Z" fill="white"/>
<rect x="391" y="280" width="21" height="4" rx="2" fill="white"/>
<rect x="332" y="292" width="131" height="54" rx="4" fill="white"/>
<g clip-path="url(#clip1_107_4204)">
<rect x="371" y="308.2" width="73" height="8.1" rx="3" fill="#DDE3E9"/>
<rect x="371" y="321.7" width="49" height="8.1" rx="3" fill="#DDE3E9"/>
</g>
<path fill-rule="evenodd" clip-rule="evenodd" d="M353 331C359.627 331 365 325.627 365 319C365 312.373 359.627 307 353 307C346.373 307 341 312.373 341 319C341 325.627 346.373 331 353 331Z" fill="#C5CFD6"/>
<rect x="332" y="354" width="131" height="42" rx="4" fill="white"/>
<g clip-path="url(#clip2_107_4204)">
<rect x="371" y="366.6" width="73" height="6.3" rx="3" fill="#DDE3E9"/>
<rect x="371" y="377.1" width="49" height="6.3" rx="3" fill="#DDE3E9"/>
</g>
<path fill-rule="evenodd" clip-rule="evenodd" d="M353 387C359.627 387 365 381.627 365 375C365 368.373 359.627 363 353 363C346.373 363 341 368.373 341 375C341 381.627 346.373 387 353 387Z" fill="#C5CFD6"/>
<rect x="332" y="404" width="131" height="42" rx="4" fill="white"/>
<g clip-path="url(#clip3_107_4204)">
<rect x="371" y="416.6" width="73" height="6.3" rx="3" fill="#DDE3E9"/>
<rect x="371" y="427.1" width="49" height="6.3" rx="3" fill="#DDE3E9"/>
</g>
<path fill-rule="evenodd" clip-rule="evenodd" d="M353 437C359.627 437 365 431.627 365 425C365 418.373 359.627 413 353 413C346.373 413 341 418.373 341 425C341 431.627 346.373 437 353 437Z" fill="#AFB9C5"/>
<rect x="332" y="454" width="131" height="42" rx="4" fill="white"/>
<g clip-path="url(#clip4_107_4204)">
<rect x="371" y="466.6" width="73" height="6.3" rx="3" fill="#DDE3E9"/>
<rect x="371" y="477.1" width="49" height="6.3" rx="3" fill="#DDE3E9"/>
</g>
<path fill-rule="evenodd" clip-rule="evenodd" d="M353 487C359.627 487 365 481.627 365 475C365 468.373 359.627 463 353 463C346.373 463 341 468.373 341 475C341 481.627 346.373 487 353 487Z" fill="#C5CFD6"/>
<path fill-rule="evenodd" clip-rule="evenodd" d="M348.14 508C346.815 508 345.494 508.027 344.171 508.095C343.162 508.148 341.621 507.939 340.768 508.568C339.881 509.221 339.942 510.557 340.081 511.501C340.813 516.493 342.6 520.919 346.339 524.456C352.096 529.901 358.695 532.668 366.504 533.9C371.99 534.766 377.054 533.564 381.092 529.663C384.043 535.139 386.281 541.199 387.404 547.315C387.958 550.333 388.127 553.315 388.03 556.388C387.967 558.356 387.859 560.32 387.648 562.279C387.556 563.13 387.122 564.418 387.455 565.223C387.846 566.167 389.165 566.259 389.757 565.453C390.25 564.783 390.16 563.466 390.261 562.673C390.429 561.355 390.584 560.036 390.695 558.712C390.876 556.569 391.009 554.42 391 552.268C390.977 547.435 389.902 542.583 388.432 537.995C385.612 529.192 381.037 521.369 373.921 515.231C369.545 511.457 364.537 509.929 358.856 509.108C355.318 508.597 351.723 508 348.14 508" fill="#89C5CC"/>
<path fill-rule="evenodd" clip-rule="evenodd" d="M368.571 543C354.272 543 344.642 554.524 340.089 566.502C338.372 571.016 337.97 575.974 337.308 580.714C337.096 582.236 337.175 584.554 336.557 585.909C336.333 586.401 335.819 586.577 336.065 587.247C336.214 587.652 336.505 587.901 336.944 587.981C337.843 588.147 339.115 587.167 339.886 586.781C346.282 583.573 350.484 578.613 353.912 572.545C356.038 568.784 358.194 564.879 359.456 560.75C360.227 558.227 360.676 555.571 360.94 552.954C361.044 551.923 361.144 550.868 361.138 549.832C361.132 548.803 360.653 548.259 360.309 547.364C365.08 545.558 370.466 545.066 375.299 546.937C379.769 548.668 383.482 552.013 385.561 556.216C386.101 557.308 386.518 558.46 386.821 559.636C387.02 560.406 387.029 561.404 387.398 562.1C388.29 563.788 390.168 562.66 389.988 561.089C389.485 556.708 386.979 552.309 383.775 549.263C379.734 545.421 374.258 543 368.571 543" fill="#89C5CC"/>
<rect x="384" y="290" width="159" height="302" rx="8" fill="#DDE3E9"/>
<path fill-rule="evenodd" clip-rule="evenodd" d="M463 573C471.284 573 478 566.284 478 558C478 549.716 471.284 543 463 543C454.716 543 448 549.716 448 558C448 566.284 454.716 573 463 573Z" fill="white"/>
<path fill-rule="evenodd" clip-rule="evenodd" d="M450 310C451.105 310 452 309.105 452 308C452 306.895 451.105 306 450 306C448.895 306 448 306.895 448 308C448 309.105 448.895 310 450 310Z" fill="white"/>
<rect x="457" y="306" width="21" height="4" rx="2" fill="white"/>
<rect x="398" y="318" width="131" height="54" rx="4" fill="white"/>
<g clip-path="url(#clip5_107_4204)">
<rect x="407" y="334.2" width="73" height="8.1" rx="3" fill="#DDE3E9"/>
<rect x="407" y="347.7" width="49" height="8.1" rx="3" fill="#DDE3E9"/>
</g>
<path fill-rule="evenodd" clip-rule="evenodd" d="M515 352C518.866 352 522 348.866 522 345C522 341.134 518.866 338 515 338C511.134 338 508 341.134 508 345C508 348.866 511.134 352 515 352Z" fill="#DDE3E9"/>
<path fill-rule="evenodd" clip-rule="evenodd" d="M515 348C516.657 348 518 346.657 518 345C518 343.343 516.657 342 515 342C513.343 342 512 343.343 512 345C512 346.657 513.343 348 515 348Z" fill="#F2F2F2"/>
<rect x="398" y="380" width="131" height="42" rx="4" fill="white"/>
<g clip-path="url(#clip6_107_4204)">
<rect x="437" y="392.6" width="73" height="6.3" rx="3" fill="#DDE3E9"/>
<rect x="437" y="403.1" width="49" height="6.3" rx="3" fill="#DDE3E9"/>
</g>
<path fill-rule="evenodd" clip-rule="evenodd" d="M419 413C425.627 413 431 407.627 431 401C431 394.373 425.627 389 419 389C412.373 389 407 394.373 407 401C407 407.627 412.373 413 419 413Z" fill="#C5CFD6"/>
<rect x="398" y="430" width="131" height="42" rx="4" fill="white"/>
<g clip-path="url(#clip7_107_4204)">
<rect x="407" y="442.6" width="73" height="6.3" rx="3" fill="#DDE3E9"/>
<rect x="407" y="453.1" width="49" height="6.3" rx="3" fill="#AFB9C5"/>
</g>
<path fill-rule="evenodd" clip-rule="evenodd" d="M515 458C518.866 458 522 454.866 522 451C522 447.134 518.866 444 515 444C511.134 444 508 447.134 508 451C508 454.866 511.134 458 515 458Z" fill="#DDE3E9"/>
<path fill-rule="evenodd" clip-rule="evenodd" d="M515 454C516.657 454 518 452.657 518 451C518 449.343 516.657 448 515 448C513.343 448 512 449.343 512 451C512 452.657 513.343 454 515 454Z" fill="#F2F2F2"/>
<rect x="398" y="480" width="131" height="42" rx="4" fill="white"/>
<g clip-path="url(#clip8_107_4204)">
<rect x="437" y="492.6" width="73" height="6.3" rx="3" fill="#DDE3E9"/>
<rect x="437" y="503.1" width="49" height="6.3" rx="3" fill="#DDE3E9"/>
</g>
<path fill-rule="evenodd" clip-rule="evenodd" d="M419 513C425.627 513 431 507.627 431 501C431 494.373 425.627 489 419 489C412.373 489 407 494.373 407 501C407 507.627 412.373 513 419 513Z" fill="#C5CFD6"/>
<rect x="450" y="315" width="335" height="346" rx="8" fill="#F2F2F2"/>
<rect x="699" y="358" width="70" height="81" rx="8" fill="white"/>
<path fill-rule="evenodd" clip-rule="evenodd" d="M734 405C742.837 405 750 397.837 750 389C750 380.163 742.837 373 734 373C725.163 373 718 380.163 718 389C718 397.837 725.163 405 734 405Z" fill="#DDE3E9"/>
<rect x="709" y="409" width="50" height="6" rx="3" fill="#DDE3E9"/>
<rect x="717" y="419" width="34" height="6" rx="3" fill="#DDE3E9"/>
<path d="M450 323C450 318.582 453.582 315 458 315H777C781.418 315 785 318.582 785 323V342H450V323Z" fill="#C5CFD6"/>
<path fill-rule="evenodd" clip-rule="evenodd" d="M463 333C465.209 333 467 331.209 467 329C467 326.791 465.209 325 463 325C460.791 325 459 326.791 459 329C459 331.209 460.791 333 463 333Z" fill="#F2F2F2"/>
<path fill-rule="evenodd" clip-rule="evenodd" d="M475 333C477.209 333 479 331.209 479 329C479 326.791 477.209 325 475 325C472.791 325 471 326.791 471 329C471 331.209 472.791 333 475 333Z" fill="#F2F2F2"/>
<path fill-rule="evenodd" clip-rule="evenodd" d="M487 333C489.209 333 491 331.209 491 329C491 326.791 489.209 325 487 325C484.791 325 483 326.791 483 329C483 331.209 484.791 333 487 333Z" fill="#F2F2F2"/>
<rect x="699" y="447" width="70" height="194" rx="8" fill="white"/>
<rect x="717" y="465" width="34" height="26" rx="4" fill="#DDE3E9"/>
<rect x="717" y="499" width="34" height="25" rx="4" fill="#AFB9C5"/>
<rect x="717" y="532" width="34" height="25" rx="4" fill="#DDE3E9"/>
<rect x="717" y="598" width="34" height="25" rx="4" fill="#DDE3E9"/>
<rect x="717" y="565" width="34" height="25" rx="4" fill="#C5CFD6"/>
<rect x="466" y="359" width="225" height="47" rx="4" fill="white"/>
<g clip-path="url(#clip9_107_4204)">
<rect x="475" y="373.1" width="167" height="7.05" rx="3" fill="#DDE3E9"/>
<rect x="475" y="384.85" width="112.096" height="7.05" rx="3" fill="#DDE3E9"/>
</g>
<path fill-rule="evenodd" clip-rule="evenodd" d="M666.954 389.5C670.82 389.5 673.954 386.366 673.954 382.5C673.954 378.634 670.82 375.5 666.954 375.5C663.088 375.5 659.954 378.634 659.954 382.5C659.954 386.366 663.088 389.5 666.954 389.5Z" fill="#DDE3E9"/>
<path fill-rule="evenodd" clip-rule="evenodd" d="M666.954 385.5C668.611 385.5 669.954 384.157 669.954 382.5C669.954 380.843 668.611 379.5 666.954 379.5C665.297 379.5 663.954 380.843 663.954 382.5C663.954 384.157 665.297 385.5 666.954 385.5Z" fill="#F2F2F2"/>
<rect x="466" y="414" width="225" height="39" rx="4" fill="white"/>
<g clip-path="url(#clip10_107_4204)">
<rect x="475" y="425.7" width="167" height="5.85" rx="2.925" fill="#DDE3E9"/>
<rect x="475" y="435.45" width="112.096" height="5.85" rx="2.925" fill="#DDE3E9"/>
</g>
<path fill-rule="evenodd" clip-rule="evenodd" d="M666.954 440.5C670.82 440.5 673.954 437.366 673.954 433.5C673.954 429.634 670.82 426.5 666.954 426.5C663.088 426.5 659.954 429.634 659.954 433.5C659.954 437.366 663.088 440.5 666.954 440.5Z" fill="#DDE3E9"/>
<path fill-rule="evenodd" clip-rule="evenodd" d="M666.954 436.5C668.611 436.5 669.954 435.157 669.954 433.5C669.954 431.843 668.611 430.5 666.954 430.5C665.297 430.5 663.954 431.843 663.954 433.5C663.954 435.157 665.297 436.5 666.954 436.5Z" fill="#F2F2F2"/>
<rect x="466" y="461" width="225" height="39" rx="4" fill="white"/>
<g clip-path="url(#clip11_107_4204)">
<rect x="475" y="472.7" width="167" height="5.85" rx="2.925" fill="#DDE3E9"/>
<rect x="475" y="482.45" width="112.096" height="5.85" rx="2.925" fill="#DDE3E9"/>
</g>
<path fill-rule="evenodd" clip-rule="evenodd" d="M666.954 487.5C670.82 487.5 673.954 484.366 673.954 480.5C673.954 476.634 670.82 473.5 666.954 473.5C663.088 473.5 659.954 476.634 659.954 480.5C659.954 484.366 663.088 487.5 666.954 487.5Z" fill="#DDE3E9"/>
<path fill-rule="evenodd" clip-rule="evenodd" d="M666.954 483.5C668.611 483.5 669.954 482.157 669.954 480.5C669.954 478.843 668.611 477.5 666.954 477.5C665.297 477.5 663.954 478.843 663.954 480.5C663.954 482.157 665.297 483.5 666.954 483.5Z" fill="#AFB9C5"/>
<rect x="466" y="602" width="225" height="39" rx="4" fill="white"/>
<g clip-path="url(#clip12_107_4204)">
<rect x="475" y="613.7" width="167" height="5.85" rx="2.925" fill="#DDE3E9"/>
<rect x="475" y="623.45" width="112.096" height="5.85" rx="2.925" fill="#DDE3E9"/>
</g>
<path fill-rule="evenodd" clip-rule="evenodd" d="M666.954 628.5C670.82 628.5 673.954 625.366 673.954 621.5C673.954 617.634 670.82 614.5 666.954 614.5C663.088 614.5 659.954 617.634 659.954 621.5C659.954 625.366 663.088 628.5 666.954 628.5Z" fill="#DDE3E9"/>
<path fill-rule="evenodd" clip-rule="evenodd" d="M666.954 624.5C668.611 624.5 669.954 623.157 669.954 621.5C669.954 619.843 668.611 618.5 666.954 618.5C665.297 618.5 663.954 619.843 663.954 621.5C663.954 623.157 665.297 624.5 666.954 624.5Z" fill="#F2F2F2"/>
<rect x="466" y="555" width="225" height="39" rx="4" fill="white"/>
<g clip-path="url(#clip13_107_4204)">
<rect x="475" y="566.7" width="167" height="5.85" rx="2.925" fill="#DDE3E9"/>
<rect x="475" y="576.45" width="112.096" height="5.85" rx="2.925" fill="#DDE3E9"/>
</g>
<path fill-rule="evenodd" clip-rule="evenodd" d="M666.954 581.5C670.82 581.5 673.954 578.366 673.954 574.5C673.954 570.634 670.82 567.5 666.954 567.5C663.088 567.5 659.954 570.634 659.954 574.5C659.954 578.366 663.088 581.5 666.954 581.5Z" fill="#DDE3E9"/>
<path fill-rule="evenodd" clip-rule="evenodd" d="M666.954 577.5C668.611 577.5 669.954 576.157 669.954 574.5C669.954 572.843 668.611 571.5 666.954 571.5C665.297 571.5 663.954 572.843 663.954 574.5C663.954 576.157 665.297 577.5 666.954 577.5Z" fill="#F2F2F2"/>
<rect x="466" y="508" width="225" height="39" rx="4" fill="white"/>
<g clip-path="url(#clip14_107_4204)">
<rect x="475" y="519.7" width="167" height="5.85" rx="2.925" fill="#DDE3E9"/>
<rect x="475" y="529.45" width="112.096" height="5.85" rx="2.925" fill="#DDE3E9"/>
</g>
<path fill-rule="evenodd" clip-rule="evenodd" d="M666.954 534.5C670.82 534.5 673.954 531.366 673.954 527.5C673.954 523.634 670.82 520.5 666.954 520.5C663.088 520.5 659.954 523.634 659.954 527.5C659.954 531.366 663.088 534.5 666.954 534.5Z" fill="#DDE3E9"/>
<path fill-rule="evenodd" clip-rule="evenodd" d="M666.954 530.5C668.611 530.5 669.954 529.157 669.954 527.5C669.954 525.843 668.611 524.5 666.954 524.5C665.297 524.5 663.954 525.843 663.954 527.5C663.954 529.157 665.297 530.5 666.954 530.5Z" fill="#F2F2F2"/>
<path fill-rule="evenodd" clip-rule="evenodd" d="M867.986 485.376C864.041 482.701 858.796 482 854.076 482C835.64 482 818.311 488.84 803.341 499.032C795.138 504.616 787.8 511.728 781.322 519.132C777.582 523.407 774.248 528.03 771.887 533.173C770.294 536.644 769.201 540.261 768.46 543.991C767.557 548.537 766.839 553.175 766.515 557.797C766.387 559.617 765.33 569.274 768.356 569.438C768.338 569.676 768.334 569.903 768.353 570.106C761.782 580.38 757.723 592.42 753.958 603.835C750.683 613.769 747.764 623.786 745.87 634.063C743.375 647.592 741.737 661.326 740.958 675.05C740.791 677.999 740.676 680.95 740.577 683.903C740.493 686.422 740.408 688.941 740.325 691.461C740.233 694.284 739.736 697.534 740.185 700.34C740.576 702.784 742.691 702.414 742.785 699.982C742.898 697.045 742.879 694.102 743.008 691.163C743.179 687.262 743.355 683.361 743.546 679.461C744.875 652.369 749.86 625.675 759.061 600.084C762.785 589.728 767.051 579.925 772.535 570.345C777.356 561.922 783.156 553.767 789.084 546.173C794.845 538.792 800.836 531.583 807.895 525.33C813.624 520.256 819.926 515.835 826.404 511.722C834.631 506.498 842.843 501.401 851.755 497.391C856.388 495.307 861.108 493.441 865.777 491.44C866.617 491.081 867.517 490.732 868.325 490.315C871.02 488.925 870.133 486.832 867.986 485.376" fill="#C1DEE2"/>
<path fill-rule="evenodd" clip-rule="evenodd" d="M793.818 580C801.295 580 807.949 580.972 814.838 583.943C820.785 586.508 826.205 589.903 831.467 593.599C838.868 598.798 844.698 604.848 848.779 612.865C851.217 617.654 853.006 624.431 851.368 629.655C849.44 635.807 844.144 640.939 837.169 639.855C832.856 639.185 828.903 636.33 825.625 633.643C821.703 630.428 818.564 626.563 815.972 622.27C811.744 615.267 809.26 607.351 805.668 600.033C803.964 596.56 802.317 593.063 800.275 589.762C799.265 588.128 798.189 586.509 796.656 585.294C795.836 584.644 792.378 583.52 793.7 582.061C774.31 582.315 757.132 597.207 753.409 615.641C753.063 617.359 752.792 619.091 752.505 620.82C752.325 621.911 752.398 625.937 751.422 626.634C749.27 628.172 750.174 623.499 750.267 622.826C750.506 621.087 750.76 619.35 751.027 617.615C752.481 608.181 756.681 599.411 763.685 592.683C771.694 584.99 782.501 580 793.818 580" fill="#89C5CC"/>
<path fill-rule="evenodd" clip-rule="evenodd" d="M107.938 653.736C126.604 685.052 148.345 715.374 161.401 749.613C160.875 745.577 160.317 741.545 159.692 737.52C156.38 716.179 152.262 694.994 147.936 673.835C145.733 663.062 143.402 652.327 141.012 641.594C139.727 635.829 138.457 630.061 137.145 624.302C136.827 622.906 136.554 620.469 136.157 618C148.845 659.637 161.081 701.305 170.031 743.942C171.205 749.538 172.205 755.124 173.024 760.7C173.304 759.428 173.58 758.156 173.881 756.887C177.503 741.68 182.935 726.594 189.403 712.374C192.495 705.575 196.046 698.924 200.228 692.726C202.836 688.863 208.986 684.271 211.364 680.314C198.355 704.176 193.657 734.032 186.145 759.973C184.312 766.304 182.467 772.624 180.659 778.955C191.987 756.237 209.563 737.571 234 729.483C204.42 749.027 186.678 783.254 174.722 818.26C174.683 818.675 174.636 819.09 174.595 819.506C178.114 812.829 182.545 806.789 188.551 802.56C201.407 793.504 215.667 796.142 228.137 803.91C218.35 797.689 200.663 803.354 192.428 809.677C186.533 814.203 181.495 820.275 177.12 826.2C176.072 827.62 174.641 829.277 173.13 831.044C171.012 844.795 167.56 858.452 162.672 872C163.479 868.111 162.896 861.892 163.12 858.993C163.144 858.679 163.164 858.365 163.188 858.053C162.445 861.019 161.727 863.951 161.036 866.837C162.41 861.331 163.156 855.583 163.739 849.776C163.889 847.281 164.036 844.785 164.19 842.29C164.141 837.553 163.946 832.799 163.616 828.036C162.447 823.408 161.137 819.042 160.056 815.411C156.159 802.31 150.444 789.76 143.411 778.051C136.994 767.366 129.312 757.688 120.445 748.935C115.664 744.217 110.661 739.725 105.729 735.17C103.945 733.523 100.757 729.474 98 727.363C118.08 738.434 138.749 750.41 153.398 768.248C151.68 761.653 149.815 755.151 147.842 748.78C137.831 716.454 125.191 682.953 107.938 653.736Z" fill="#DDE3E9"/>
<path fill-rule="evenodd" clip-rule="evenodd" d="M128 831C128 866.899 130.843 896 169 896C207.157 896 210 866.899 210 831" fill="#C5CFD6"/>
<rect x="700" y="272" width="6" height="25" rx="3" fill="#DDE3E9"/>
<rect x="714" y="256" width="6" height="41" rx="3" fill="#DDE3E9"/>
<rect x="728" y="248" width="6" height="49" rx="3" fill="#DDE3E9"/>
<rect x="742" y="256" width="6" height="41" rx="3" fill="#DDE3E9"/>
<rect x="756" y="240" width="6" height="57" rx="3" fill="#C5CFD6"/>
<path fill-rule="evenodd" clip-rule="evenodd" d="M208 546.256C208 535.117 217.002 526 228 526V546.256L214.332 561C210.444 557.395 208 552.107 208 546.256Z" fill="#F2F2F2"/>
<path fill-rule="evenodd" clip-rule="evenodd" d="M227.471 546H247.668C247.668 551.221 245.538 556.113 242.171 559.668C238.468 563.556 233.195 566 227.471 566C222.198 566 217.372 563.891 213.668 560.557L227.471 546Z" fill="#AFB9C5"/>
<path fill-rule="evenodd" clip-rule="evenodd" d="M248 546C248 535.002 238.998 526 228 526V546H248ZM218 526L226 544L208 536C209.78 531.334 213.777 527.78 218 526Z" fill="#C5CFD6"/>
<path fill-rule="evenodd" clip-rule="evenodd" d="M858.766 555.179C856.845 557.219 854.123 558.5 851.095 558.5C845.278 558.5 840.562 553.799 840.562 548C840.562 542.201 845.278 537.5 851.095 537.5V518C834.546 518 821 531.503 821 548C821 564.497 834.546 578 851.095 578C859.788 578 867.645 574.334 873 568.502L858.766 555.179Z" fill="#F2F2F2"/>
<path fill-rule="evenodd" clip-rule="evenodd" d="M851 518V537.5C856.799 537.5 861.5 542.201 861.5 548H881C881 531.503 867.497 518 851 518Z" fill="#AFB9C5"/>
<path fill-rule="evenodd" clip-rule="evenodd" d="M861.097 548C861.097 551.407 859.492 554.435 857 556.391L869.262 572C876.399 566.412 881 557.749 881 548H861.097Z" fill="#C5CFD6"/>
<path fill-rule="evenodd" clip-rule="evenodd" d="M668.051 279.504C666.573 281.068 664.479 282.05 662.15 282.05C657.675 282.05 654.048 278.446 654.048 274C654.048 269.554 657.675 265.95 662.15 265.95V251C649.42 251 639 261.352 639 274C639 286.648 649.42 297 662.15 297C668.837 297 674.88 294.189 679 289.718L668.051 279.504Z" fill="#F2F2F2"/>
<path fill-rule="evenodd" clip-rule="evenodd" d="M662 251V265.95C666.446 265.95 670.05 269.554 670.05 274H685C685 261.352 674.648 251 662 251Z" fill="#AFB9C5"/>
<path fill-rule="evenodd" clip-rule="evenodd" d="M670.073 274C670.073 276.555 668.869 278.827 667 280.293L676.196 292C681.55 287.809 685 281.312 685 274H670.073Z" fill="#C5CFD6"/>
<path fill-rule="evenodd" clip-rule="evenodd" d="M304.007 296.986C304.003 296.996 303.999 297.006 303.993 297.018C303.999 297.008 304.007 296.968 304.007 296.986" fill="#C5CFD6"/>
<path fill-rule="evenodd" clip-rule="evenodd" d="M303.998 297.001C303.998 297.003 303.996 297.007 303.996 297.011C303.996 297.001 304.014 296.971 303.998 297.001" fill="#C5CFD6"/>
<path fill-rule="evenodd" clip-rule="evenodd" d="M304.067 296.832C304.053 296.872 304.035 296.91 304.019 296.95C304.027 296.93 304.035 296.914 304.043 296.894C303.835 297.414 303.967 297.076 304.067 296.832" fill="#C5CFD6"/>
<path fill-rule="evenodd" clip-rule="evenodd" d="M304.022 296.953C304.014 296.971 304.006 296.991 303.998 297.009C303.94 297.121 304.022 296.953 304.022 296.953" fill="#C5CFD6"/>
<path fill-rule="evenodd" clip-rule="evenodd" d="M303.999 297.002C303.999 297 303.999 297 304.001 296.998C303.999 297 303.999 297 303.999 297.002" fill="#C5CFD6"/>
<path fill-rule="evenodd" clip-rule="evenodd" d="M303.99 297.016C303.978 297.04 304.046 296.924 303.99 297.016Z" fill="#C5CFD6"/>
<path fill-rule="evenodd" clip-rule="evenodd" d="M303.998 297.002L304.002 296.998C304 297 304 297.002 303.998 297.002" fill="#C5CFD6"/>
<rect x="256" y="245" width="95" height="63" rx="4" fill="#DDE3E9"/>
<path fill-rule="evenodd" clip-rule="evenodd" d="M292 263L264 308H320L292 263Z" fill="#AFB9C5"/>
<path fill-rule="evenodd" clip-rule="evenodd" d="M319.5 275L295 308H344L319.5 275Z" fill="#C5CFD6"/>
<path fill-rule="evenodd" clip-rule="evenodd" d="M330 275C334.971 275 339 270.971 339 266C339 261.029 334.971 257 330 257C325.029 257 321 261.029 321 266C321 270.971 325.029 275 330 275Z" fill="white"/>
<path fill-rule="evenodd" clip-rule="evenodd" d="M780.993 723.986C780.997 723.996 781.001 724.006 781.007 724.018C781.001 724.008 780.993 723.968 780.993 723.986" fill="#C5CFD6"/>
<path fill-rule="evenodd" clip-rule="evenodd" d="M781.002 724.001C781.002 724.003 781.004 724.007 781.004 724.011C781.004 724.001 780.986 723.971 781.002 724.001" fill="#C5CFD6"/>
<path fill-rule="evenodd" clip-rule="evenodd" d="M780.933 723.832C780.947 723.872 780.965 723.91 780.981 723.95C780.973 723.93 780.965 723.914 780.957 723.894C781.165 724.414 781.033 724.076 780.933 723.832" fill="#C5CFD6"/>
<path fill-rule="evenodd" clip-rule="evenodd" d="M780.978 723.953C780.986 723.971 780.994 723.991 781.002 724.009C781.06 724.121 780.978 723.953 780.978 723.953" fill="#C5CFD6"/>
<path fill-rule="evenodd" clip-rule="evenodd" d="M781.001 724.002C781.001 724 781.001 724 780.999 723.998C781.001 724 781.001 724 781.001 724.002" fill="#C5CFD6"/>
<path fill-rule="evenodd" clip-rule="evenodd" d="M781.01 724.016C781.022 724.04 780.954 723.924 781.01 724.016Z" fill="#C5CFD6"/>
<path fill-rule="evenodd" clip-rule="evenodd" d="M781.002 724.002L780.998 723.998C781 724 781 724.002 781.002 724.002" fill="#C5CFD6"/>
<rect width="142" height="94" rx="4" transform="matrix(-1 0 0 1 852 647)" fill="#DDE3E9"/>
<path fill-rule="evenodd" clip-rule="evenodd" d="M799.274 674L840.329 741H758.219L799.274 674Z" fill="#AFB9C5"/>
<path fill-rule="evenodd" clip-rule="evenodd" d="M756.944 691.946L793.239 741H720.649L756.944 691.946Z" fill="#C5CFD6"/>
<path fill-rule="evenodd" clip-rule="evenodd" d="M741.5 692C734.044 692 728 685.956 728 678.5C728 671.044 734.044 665 741.5 665C748.956 665 755 671.044 755 678.5C755 685.956 748.956 692 741.5 692Z" fill="white"/>
<path fill-rule="evenodd" clip-rule="evenodd" d="M814.823 617.65C807.538 622.041 800.38 624.162 797.02 623.296C788.594 621.125 787.82 590.302 794.339 578.151C800.858 565.999 834.372 560.703 836.061 584.779C836.647 593.134 833.139 600.592 827.955 606.676L837.25 650H810.25L814.823 617.65Z" fill="#B28B67"/>
<path fill-rule="evenodd" clip-rule="evenodd" d="M796.102 573.439C796.338 571.971 795.87 571.25 801.773 567.114C807.677 562.977 817.208 558.099 826.808 560.222C839.267 562.977 844.215 571.195 849.019 575.19C853.35 578.792 857.695 579.212 860.271 583.681C862.846 588.15 864.216 601.008 861.977 606.12C858.888 613.171 852.796 615.07 848.349 617.101C840.723 620.585 829.944 616.906 829.683 616.296C827.663 611.581 816.79 598.28 810.25 592.692C805.441 588.583 794.992 580.33 796.102 573.439Z" fill="#5C63AB"/>
<mask id="mask0_107_4204" style="mask-type:alpha" maskUnits="userSpaceOnUse" x="796" y="559" width="68" height="60">
<path fill-rule="evenodd" clip-rule="evenodd" d="M796.102 573.439C796.338 571.971 795.87 571.25 801.773 567.114C807.677 562.977 817.208 558.099 826.808 560.222C839.267 562.977 844.215 571.195 849.019 575.19C853.35 578.792 857.695 579.212 860.271 583.681C862.846 588.15 864.216 601.008 861.977 606.12C858.888 613.171 852.796 615.07 848.349 617.101C840.723 620.585 829.944 616.906 829.683 616.296C827.663 611.581 816.79 598.28 810.25 592.692C805.441 588.583 794.992 580.33 796.102 573.439Z" fill="white"/>
</mask>
<g mask="url(#mask0_107_4204)">
<path fill-rule="evenodd" clip-rule="evenodd" d="M833.162 607.501C846.073 591.578 849.111 572.375 849.111 572.375L853 574.835C853 574.835 848.217 595.82 833.162 607.501ZM828.25 616.25C849.144 597.891 854.127 577.26 854.127 577.26L858.625 578.586C858.625 578.586 852.426 601.657 828.25 616.25Z" fill="black" fill-opacity="0.2"/>
</g>
<path fill-rule="evenodd" clip-rule="evenodd" d="M855.213 745L812.941 883.467L792.464 1001.22H776.408L798.046 745H855.213Z" fill="#997659"/>
<path fill-rule="evenodd" clip-rule="evenodd" d="M870.336 745C867.465 821.026 870.844 860.241 871.486 867.148C872.129 874.055 880.928 918.842 901.76 1003.54L884.651 997.655C851.729 919.973 840.51 879.6 836.734 869.399C832.958 859.199 822.929 817.732 806.648 745H870.336Z" fill="#B28B67"/>
<path fill-rule="evenodd" clip-rule="evenodd" d="M898.761 996.203C899.831 995.725 901.106 996.202 901.509 997.303C902.334 999.556 903.517 1003.13 903.517 1005.11C903.517 1008.16 902.504 1014 902.504 1014C898.979 1014 839.146 1014 839.146 1014C839.146 1014 836.677 1005.82 841.998 1005.17C847.319 1004.51 850.838 1003.99 850.838 1003.99L880.401 990.784C880.916 990.554 881.519 990.795 881.734 991.316L883.675 996.035C883.675 996.035 888.601 998.338 891.681 998.338C893.632 998.338 896.744 997.106 898.761 996.203Z" fill="#E4E4E4"/>
<path fill-rule="evenodd" clip-rule="evenodd" d="M793.168 996.203C794.238 995.725 795.513 996.202 795.916 997.303C796.74 999.556 797.923 1003.13 797.923 1005.11C797.923 1008.16 796.911 1014 796.911 1014C793.386 1014 733.553 1014 733.553 1014C733.553 1014 731.083 1005.82 736.404 1005.17C741.725 1004.51 745.245 1003.99 745.245 1003.99L774.808 990.784C775.323 990.554 775.926 990.795 776.14 991.316L778.082 996.035C778.082 996.035 783.007 998.338 786.087 998.338C788.039 998.338 791.15 997.106 793.168 996.203Z" fill="#E4E4E4"/>
<path fill-rule="evenodd" clip-rule="evenodd" d="M860.83 745L842.857 815.547H787.959L796.144 745H860.83Z" fill="#69A1AC"/>
<path fill-rule="evenodd" clip-rule="evenodd" d="M870.94 745C879.811 771.642 874.31 815.547 874.31 815.547H818.289L802.884 745H870.94Z" fill="#89C5CC"/>
<path fill-rule="evenodd" clip-rule="evenodd" d="M700.054 632.841L744.059 639.56L735.798 659.004L700.255 644.33C684.801 645.573 677.347 645.082 677.894 642.857C678.356 640.981 680.006 640.44 681.525 639.942C682.709 639.554 683.814 639.192 684.217 638.245C685.136 636.082 680.201 631.479 675.331 627.312C670.461 623.145 673.792 622.451 675.876 622.547C683.257 624.396 691.316 627.827 700.054 632.841ZM726.359 744.395L758.235 713.352L768.815 731.632L735.672 751.145C727.359 764.213 722.478 769.86 721.027 768.086C719.804 766.589 720.365 764.949 720.882 763.438C721.285 762.261 721.661 761.162 721.145 760.272C719.968 758.237 713.315 759.404 707.048 760.781C700.781 762.157 702.232 759.084 703.564 757.48C709.488 752.707 717.086 748.346 726.359 744.395Z" fill="#B28B67"/>
<path fill-rule="evenodd" clip-rule="evenodd" d="M803.573 635.444C789.283 674.183 765.18 705.727 728.645 740.132L746.436 755.263C789.371 732.093 811.853 718.595 818.81 682.914C820.556 673.959 818.789 646.442 818.542 631.869L803.573 635.444Z" fill="#2026A2"/>
<path fill-rule="evenodd" clip-rule="evenodd" d="M874.538 747.848L788.756 759.904C788.756 759.904 805.432 667.073 801.416 633.916C801.279 632.789 803.081 630.516 804.037 630.646C814.529 632.073 825.336 625.483 825.336 625.483C850.261 655.274 862.942 694.482 874.538 747.848Z" fill="#F2F2F2"/>
<path fill-rule="evenodd" clip-rule="evenodd" d="M810.819 678.317C805.484 737.568 812.701 784.442 842.28 780.285L888.019 773.857C888.434 724.103 859.846 659.217 837.356 627.623C836.497 626.416 834.713 624.165 831.324 624.641L818.033 626.509C818.03 626.528 818.027 626.546 818.023 626.564C814.028 627.159 809.645 627.924 804.897 628.753C780.457 633.017 746.378 638.964 706.117 632.032L704.759 655.327C742.67 672.764 780.311 685.109 810.819 678.317Z" fill="#1F28CF"/>
<path fill-rule="evenodd" clip-rule="evenodd" d="M387.873 638.699C383.067 633.058 379.815 626.145 380.358 618.399C381.924 596.081 412.992 600.99 419.036 612.255C425.079 623.519 424.361 652.092 416.551 654.106C413.436 654.909 406.8 652.942 400.047 648.871L404.286 678.86H379.256L387.873 638.699Z" fill="#B28B67"/>
<path fill-rule="evenodd" clip-rule="evenodd" d="M430.124 596.639C429.606 594.817 428.212 593.257 426.333 592.795C425.877 592.682 425.407 592.637 424.938 592.656C424.77 592.663 424.723 592.711 424.644 592.594C424.586 592.506 424.585 592.293 424.561 592.191C424.486 591.872 424.393 591.558 424.277 591.251C423.884 590.206 423.224 589.281 422.427 588.501C420.938 587.043 418.925 586.037 416.834 585.855C415.689 585.755 414.553 585.941 413.471 586.314C412.911 586.506 412.368 586.746 411.839 587.012C411.679 587.092 411.163 587.483 411.003 587.457C410.826 587.429 410.471 586.991 410.328 586.881C408.553 585.519 406.362 584.984 404.152 585C401.658 585.019 399.255 585.143 397.175 586.664C396.734 586.986 396.315 587.339 395.916 587.71C395.705 587.905 395.502 588.108 395.307 588.319C395.19 588.446 395.076 588.577 394.966 588.71C394.78 588.938 394.81 589.012 394.549 588.854C393.547 588.245 392.387 587.961 391.218 588.104C390.524 588.19 389.849 588.398 389.208 588.672C388.99 588.766 388.485 589.138 388.252 589.142C388.021 589.145 387.523 588.8 387.285 588.712C386.001 588.238 384.617 588.122 383.268 588.341C381.875 588.567 380.508 589.122 379.328 589.89C378.761 590.259 378.266 590.668 377.868 591.217C377.697 591.454 377.541 591.705 377.347 591.924C377.233 592.053 377.007 592.185 376.946 592.348C376.983 592.251 375.424 591.649 375.277 591.611C374.493 591.406 373.695 591.448 372.927 591.7C371.484 592.175 370.243 593.241 369.223 594.333C368.699 594.894 368.24 595.514 367.851 596.174C367.664 596.491 367.494 596.816 367.338 597.148C367.262 597.309 367.212 597.511 367.112 597.656C366.984 597.843 366.898 597.846 366.665 597.928C365.484 598.342 364.407 599.042 363.587 599.989C362.758 600.946 362.22 602.125 361.994 603.367C361.981 603.44 361.973 603.743 361.93 603.783C361.871 603.837 361.634 603.813 361.544 603.824C361.233 603.86 360.924 603.915 360.619 603.987C360.057 604.12 359.51 604.316 358.992 604.572C356.975 605.57 355.533 607.44 354.827 609.546C354.086 611.755 354.1 614.286 354.985 616.454C355.128 616.804 355.298 617.144 355.498 617.466C355.621 617.663 355.66 617.664 355.581 617.871C355.492 618.101 355.329 618.325 355.224 618.55C354.88 619.285 354.639 620.064 354.487 620.86C354.238 622.165 354.115 623.537 354.36 624.853C354.475 625.464 354.674 626.061 354.977 626.605C355.132 626.882 355.313 627.145 355.517 627.388C355.624 627.515 355.736 627.635 355.854 627.751C355.922 627.817 356.01 627.875 356.067 627.949C356.207 628.129 356.237 627.981 356.165 628.245C356.064 628.614 355.835 628.978 355.695 629.338C355.55 629.708 355.42 630.083 355.301 630.462C355.059 631.23 354.855 632.011 354.727 632.806C354.481 634.332 354.524 635.958 355.246 637.358C355.555 637.957 355.998 638.483 356.535 638.892C356.797 639.092 357.082 639.264 357.381 639.406C357.534 639.479 357.73 639.51 357.8 639.658C357.875 639.818 357.764 640.135 357.738 640.313C357.516 641.865 357.405 643.495 357.866 645.016C358.291 646.417 359.227 647.654 360.442 648.473C362.798 650.061 365.975 649.972 368.451 648.7C369.096 648.368 369.7 647.957 370.239 647.471C371.61 649.318 374.433 649.259 376.438 648.733C378.935 648.078 380.939 646.341 382.094 644.059C383.673 645.981 386.986 645.358 388.081 643.273C388.349 642.762 388.508 642.2 388.586 641.631C388.627 641.331 388.601 641.029 388.632 640.733C388.672 640.354 388.924 639.987 389.07 639.621C389.352 638.908 389.528 638.173 389.536 637.404C389.54 637.003 389.489 636.612 389.451 636.214C389.416 635.856 389.516 635.522 389.572 635.169C388.932 635.274 388.151 635.101 387.548 634.916C386.955 634.733 386.401 634.253 385.983 633.815C385.012 632.797 384.419 631.463 384.014 630.134C383.124 627.219 383.489 623.722 386.421 622.122C387.787 621.376 391.879 621.379 393.506 621.747C395.216 622.135 397.156 625.909 397.251 626.264C397.31 626.483 397.28 626.755 397.482 626.901C397.925 627.223 398.656 626.665 398.983 626.389C399.548 625.914 399.95 625.281 400.299 624.64C401.058 623.243 401.67 621.744 402.103 620.215C402.436 619.035 402.65 617.819 403.085 616.67C403.519 615.527 404.203 614.505 405.266 613.857C406.422 613.152 407.747 612.781 409.017 612.338C410.275 611.899 411.512 611.363 412.487 610.432C412.701 610.227 412.91 610.009 413.082 609.768C413.219 609.578 413.353 609.214 413.561 609.093C413.884 608.905 414.355 609.393 414.634 609.571C416.011 610.445 417.16 611.665 418.087 612.998C419.008 614.323 419.764 615.598 420.379 617.078C420.834 618.175 421.119 619.581 421.92 620.48C422.278 620.882 424.938 621.125 425.8 620.774C426.661 620.424 427.627 619.513 427.916 618.943C428.212 618.359 428.283 617.717 428.156 617.078C428.082 616.702 427.93 616.35 427.847 615.981C427.777 615.671 427.713 615.377 427.562 615.093C427.276 614.554 426.787 614.167 426.197 614.005C426.811 613.439 427.32 612.762 427.671 612.005C428.037 611.219 428.347 610.263 428.435 609.4C428.506 608.699 428.396 607.973 428.012 607.371C427.61 606.739 426.897 606.326 426.28 605.932C427.222 605.195 428.029 604.298 428.692 603.305C429.982 601.375 430.779 598.941 430.124 596.639Z" fill="#191847"/>
<path fill-rule="evenodd" clip-rule="evenodd" d="M370.991 765.163L421.135 897.847L456.283 995.643H476.324L428.01 765.163L370.991 765.163Z" fill="#1F28CF"/>
<path fill-rule="evenodd" clip-rule="evenodd" d="M358.598 765.163C358.053 810.69 358.447 871.984 357.177 874.822C356.33 876.714 329.996 898.27 278.173 939.491L288.503 957.056C350.028 917.38 382.364 894.899 385.509 889.612C390.228 881.683 413.932 808.718 426.265 765.163H358.598Z" fill="#2B44FF"/>
<path fill-rule="evenodd" clip-rule="evenodd" d="M260 951.311L277.447 938.032L291.525 954.809C292.608 967.457 296.795 981.641 304.088 997.363L300.892 1000.04L275.418 969.686L268.301 957.959L266.704 959.3L260 951.311Z" fill="#191847"/>
<path fill-rule="evenodd" clip-rule="evenodd" d="M454.423 1014.41L455.466 992.514H477.366C487.751 999.814 501.309 1005.72 518.039 1010.24V1014.41H478.409L464.852 1012.33V1014.41H454.423Z" fill="#191847"/>
<path fill-rule="evenodd" clip-rule="evenodd" d="M459.388 751.971L492.655 776.399C501.677 778.834 509.215 781.863 515.269 785.486C516.699 786.789 518.427 789.428 512.497 788.972C506.566 788.516 500.308 788.303 499.49 790.326C498.671 792.349 502.26 794.768 500.606 797.497C499.503 799.316 494.294 794.754 484.977 783.81L452.034 770.149L459.388 751.971ZM331.661 752.814L353.455 752.899C339.998 796.34 332.734 819.389 331.661 822.047C329.248 828.028 334.355 837.136 336.539 842.031C329.426 845.213 330.184 833.427 321.212 837.601C313.022 841.411 306.792 848.314 297.33 842.476C296.167 841.758 294.892 839.056 297.972 836.944C305.646 831.682 316.703 822.474 318.198 819.443C320.235 815.309 324.723 793.1 331.661 752.814Z" fill="#B28B67"/>
<path fill-rule="evenodd" clip-rule="evenodd" d="M393.596 661.364L402.614 659.818C436.074 688.722 449.817 744.25 490.83 773.666L480.958 785.902C409.808 777.093 392.173 709.361 393.596 661.364Z" fill="#E87613"/>
<path fill-rule="evenodd" clip-rule="evenodd" d="M354.284 774.694C390.443 774.694 417.041 774.694 434.077 774.694C437.724 774.694 437.036 769.429 436.509 766.772C430.426 736.111 406.68 703.059 406.68 659.413L383.664 655.804C364.627 686.421 358.043 724.118 354.284 774.694Z" fill="#DDE3E9"/>
<path fill-rule="evenodd" clip-rule="evenodd" d="M354.925 685.899C351.582 684.939 348.935 682.697 346.984 679.176C338.571 663.997 341.609 655.639 350.6 652.892C359.59 650.145 367.607 655.804 381.931 655.804C382.71 655.804 383.424 655.852 384.072 655.95L391.277 656.361C411.95 726.423 417.651 773.168 408.381 796.594H345.578C341.857 805.271 338.296 812.572 334.895 818.495H317.783C316.172 766.421 328.553 722.222 354.925 685.899Z" fill="#FF9B21"/>
<path fill-rule="evenodd" clip-rule="evenodd" d="M359.254 760.612C361.229 777.138 364.439 789.133 368.884 796.595H345.578C349.918 786.473 354.477 774.479 359.254 760.612H359.254Z" fill="black" fill-opacity="0.1"/>
<path fill-rule="evenodd" clip-rule="evenodd" d="M869.633 123.558C866.65 113.607 859.646 105.818 852.374 98.6821C838.22 84.7892 830.606 76.1994 825.562 55.8767C822.595 43.9244 819.575 31.2587 810.165 22.5872C803.313 16.2724 791.521 10.9669 782.357 15.4888C768.261 23.9028 764.475 41.1696 765.896 56.6311C767.659 75.7946 776.61 87.6107 793.807 94.6691C803.497 98.6444 809.938 103.89 815.197 113.03C819.405 120.338 821.858 129.49 827.145 136.115C835.05 146.02 844.941 150.422 857.134 148.777C845.714 127.766 832.371 106.557 816.277 88.8662C814.771 87.0877 805.886 80.2803 807.678 77.2491C809.652 73.9117 818.774 86.4486 818.709 86.3728C823.386 91.7414 827.714 97.4462 831.963 103.206C831.953 103.211 831.94 103.215 831.928 103.22C836.304 109.131 840.644 115.128 844.902 121.2C846.624 123.769 848.3 126.37 849.905 129.037C852.259 132.95 855.996 144.056 859.849 146.462C860.673 146.976 861.436 147.264 862.148 147.382C864.777 151.687 867.335 156.026 869.767 160.416C876.121 171.882 881.574 183.988 884.076 196.933C884.807 200.712 884.29 214.845 886.869 217.573C891.584 222.562 890.203 212.954 889.921 210.054C887.579 186.041 878.958 165.583 866.441 145.395C870.286 140.373 870.841 127.59 869.633 123.558" fill="#F2F2F2"/>
<path fill-rule="evenodd" clip-rule="evenodd" d="M708.131 135.161C713.102 129.304 725.052 128.31 732.361 128.702C741.404 129.187 750.694 131.389 759.298 134.051C773.471 138.435 787.244 146.437 799.727 154.182C801.231 155.115 819.764 166.26 818.124 168.216C816.498 170.154 798.305 156.915 794.25 154.633C785.597 149.763 777.662 144.003 768.124 140.786C758.249 137.455 747.805 136.136 737.42 136.227C736.087 136.239 731.74 135.31 731.646 137.282C731.554 139.21 738.748 138.204 740.016 138.216C745.255 138.264 750.527 138.757 755.691 139.665C765.368 141.366 774.465 144.792 782.753 150.048C780.44 155.425 774.897 157.904 769.081 156.558C764.055 155.395 759.156 152.526 754.234 151.697C750.845 151.126 747.451 151.466 744.164 152.421C735.494 154.94 730.494 160.102 720.961 156.511C713.489 153.697 700.991 143.584 708.131 135.161" fill="#F2F2F2"/>
<path fill-rule="evenodd" clip-rule="evenodd" d="M686.753 40.7822C675.714 39.9772 663.388 48.7866 658.063 57.9542C653.771 65.3457 654.494 75.0516 657.145 82.9043C658.921 88.1616 662.795 95.6573 669.257 95.7303C677.341 95.8218 677.73 85.9375 677.887 80.1592C678.095 72.4771 679.076 65.785 685.195 60.5486C685.95 59.9024 686.743 59.2973 687.536 58.6923C688.239 58.1553 688.943 57.6183 689.62 57.0526C689.728 56.9622 689.837 56.8718 689.946 56.781C692.11 54.982 694.383 53.0924 694.659 50.127C695.06 45.8296 692.608 45.0562 688.864 45.8546C688.743 45.8803 688.415 46.0033 687.969 46.1707C686.057 46.8876 681.977 48.4175 682.749 46.5886C683.039 45.8995 684.101 45.3535 685.441 44.9443C688.907 44.5714 693.042 44.1388 694.231 44.3972C707.058 47.1812 712.052 64.7587 713.379 75.9266C713.529 77.1912 713.649 78.4601 713.753 79.731H716.105C715.94 76.7464 715.726 73.7666 715.221 70.8154C713.331 59.7533 707.42 43.5059 694.455 41.7104C693.977 41.6434 692.217 41.6322 690.086 41.7558C689.076 41.1975 687.945 40.8599 686.753 40.7822Z" fill="#F2F2F2"/>
<path opacity="0.2" fill-rule="evenodd" clip-rule="evenodd" d="M331.135 53.0411C334.646 51.3001 339.327 53.3193 337.375 57.9221C335.283 62.8509 327.55 62.9118 323.182 62.8141C323.619 62.7912 325.027 58.2714 325.509 57.5884C326.93 55.5736 328.977 54.1135 331.135 53.0411ZM290.706 142.848C289.466 143.909 290.605 142.948 290.706 142.848V142.848ZM335.216 75.9251C337.316 77.5141 337.414 80.3215 335.698 82.2226C333.654 84.4859 329.923 84.4054 327.139 84.1864C325.879 84.0872 319.153 83.5572 320.748 82.4664C320.625 82.5123 320.369 82.6238 320.095 82.7752C319.947 83.3091 319.792 83.841 319.63 84.3706C319.67 84.3935 319.704 84.4181 319.746 84.4408C319.7 84.421 319.668 84.3995 319.628 84.3794C318.008 89.6727 315.703 94.7131 312.686 99.4291C313.814 98.9887 314.982 98.6551 316.167 98.5063C319.676 98.065 327.056 100.762 323.129 105.391C319.363 109.828 313.507 105.072 309.236 104.418C305.09 110.147 300.519 115.637 295.73 120.944C296.023 121.035 296.28 121.224 296.428 121.519C298.349 120.553 300.35 119.172 302.128 118.797C304.693 118.257 309.952 117.928 311.889 120.201C314.272 122.995 311.715 125.267 308.898 125.805C304.813 126.584 299.468 124.611 295.538 123.277C295.089 123.356 294.598 123.226 294.305 122.87C294.218 122.842 294.131 122.815 294.047 122.788C289.197 128.069 284.161 133.176 279.156 138.171C279.209 138.168 279.262 138.164 279.318 138.162C280.623 137.313 282.023 136.617 283.541 136.252C287.051 135.403 291.18 135.397 294.027 137.91C296.863 140.413 297.866 144.792 294.929 147.606C289.051 153.237 280.402 140.408 277.439 139.874C272.353 144.897 266.975 149.59 261.512 154.188C262.133 154.001 262.769 153.863 263.426 153.801C268.78 153.291 281.343 159.785 274.77 166.184C269.041 171.76 262.419 161.036 257.807 157.287C252.659 161.573 247.484 165.83 242.454 170.252C245.197 169.53 247.847 169.422 250.786 170.301C253.827 171.211 258.734 173.483 256.809 177.551C254.852 181.688 248.959 179.809 245.889 178.497C244.216 177.782 240.86 175.366 237.913 174.35C229.886 181.855 222.933 190.121 217.666 199.857C214.379 205.936 211.883 212.43 210.125 219.104C209.003 223.364 206.793 230.519 207.232 236.062C205.132 224.966 208.946 211.637 213.052 201.717C216.828 192.594 222.475 184.585 229.088 177.374C227.432 172.434 213.474 165.315 221.823 160.72C226.256 158.291 230.794 162.316 231.761 166.581C232.424 169.512 231.409 173.195 230.331 176.04C232.412 173.842 234.574 171.715 236.803 169.658C239.883 166.815 243.036 164.055 246.219 161.329C240.978 156.453 236.023 142.509 243.055 140.224C253.439 136.86 248.43 155.887 247.704 159.453C247.498 159.465 247.338 159.404 247.22 159.272C247.278 159.598 247.346 159.947 247.428 160.3C253.521 155.11 259.704 150.022 265.684 144.709C265.146 144.315 264.29 142.809 263.618 142.008C262.101 140.201 260.649 138.314 259.588 136.201C257.912 132.86 256.297 127.532 260.745 125.564C265.581 123.421 267.876 129.447 267.907 133.043C267.929 135.53 267.244 137.892 266.887 140.33C266.775 141.09 267.202 144.517 266.157 143.043C266.206 143.587 266.213 143.98 266.188 144.26C267.262 143.301 268.327 142.332 269.386 141.356C269.337 141.233 269.301 141.098 269.292 140.943C269.236 139.871 270.326 139.457 271.089 139.771C272.486 138.456 273.869 137.125 275.228 135.767C278.107 132.891 281.028 129.933 283.929 126.911C283.301 126.376 283.551 125.635 282.963 125.067C282.376 124.501 281.219 124.188 280.529 123.661C278.793 122.337 277.353 120.407 276.312 118.507C274.594 115.369 272.374 108.784 277.4 107.285C282.58 105.737 285.205 112.076 285.536 116.039C285.6 116.807 285.016 123.727 284.571 126.239C289.939 120.624 295.218 114.799 300.002 108.872C298.552 108.86 294.444 105.921 293.614 105.119C291.588 103.162 288.368 98.8384 291.923 96.5477C295.084 94.5159 298.977 97.4544 300.327 100.311C300.549 100.782 301.33 105.161 301.39 107.126C303.37 104.613 305.259 102.085 307.016 99.5492C308.188 97.8632 309.283 96.1326 310.308 94.3653C310.062 94.2271 309.83 93.9859 309.611 93.686C304.341 92.8029 297.626 84.6627 303.818 81.8262C306.766 80.4774 309.961 83.2569 311.404 85.5331C311.699 85.9987 312.177 88.3405 312.566 90.1875C315.515 84.333 317.769 78.1354 319.486 71.7813C319.027 71.6687 318.638 71.3218 318.588 70.7249C316.03 69.2815 314.01 68.0796 312.225 65.3025C311.116 63.5776 309.12 59.6364 312.381 58.677C316.624 57.4287 319.287 63.8457 319.632 67.0069C319.672 67.3739 319.67 68.4412 319.656 69.4192C319.803 69.3992 319.952 69.4014 320.098 69.4269C321.075 65.4924 321.854 61.5073 322.475 57.5157C320.16 56.7786 319.765 44.7335 321.308 43.0176C324.757 39.1754 327.186 44.7218 327 47.6539C326.781 51.1111 325.197 54.2568 323.312 57.0487C323.11 57.3444 323.168 57.33 323.116 56.9183C323.087 57.1218 323.018 57.2721 322.916 57.3809C323.012 59.2006 323.201 61.0637 323.109 62.674C322.846 67.2856 322.301 71.9243 321.511 76.4768C321.319 77.584 321.099 78.6822 320.852 79.771C322.715 78.1995 325.225 76.8028 326.207 76.3659C328.757 75.2332 332.685 74.0096 335.216 75.9251ZM206.815 235.624C206.938 237.106 207.304 238.459 208.023 239.566C207.495 238.3 207.099 236.981 206.815 235.624Z" fill="#C1DEE2"/>
<defs>
<clipPath id="clip0_107_4204">
<rect width="925.011" height="301.103" fill="white" transform="translate(87.4946 550.662)"/>
</clipPath>
<clipPath id="clip1_107_4204">
<rect width="73" height="21.6" fill="white" transform="translate(371 308.2)"/>
</clipPath>
<clipPath id="clip2_107_4204">
<rect width="73" height="16.8" fill="white" transform="translate(371 366.6)"/>
</clipPath>
<clipPath id="clip3_107_4204">
<rect width="73" height="16.8" fill="white" transform="translate(371 416.6)"/>
</clipPath>
<clipPath id="clip4_107_4204">
<rect width="73" height="16.8" fill="white" transform="translate(371 466.6)"/>
</clipPath>
<clipPath id="clip5_107_4204">
<rect width="73" height="21.6" fill="white" transform="translate(407 334.2)"/>
</clipPath>
<clipPath id="clip6_107_4204">
<rect width="73" height="16.8" fill="white" transform="translate(437 392.6)"/>
</clipPath>
<clipPath id="clip7_107_4204">
<rect width="73" height="16.8" fill="white" transform="translate(407 442.6)"/>
</clipPath>
<clipPath id="clip8_107_4204">
<rect width="73" height="16.8" fill="white" transform="translate(437 492.6)"/>
</clipPath>
<clipPath id="clip9_107_4204">
<rect width="167" height="18.8" fill="white" transform="translate(475 373.1)"/>
</clipPath>
<clipPath id="clip10_107_4204">
<rect width="167" height="15.6" fill="white" transform="translate(475 425.7)"/>
</clipPath>
<clipPath id="clip11_107_4204">
<rect width="167" height="15.6" fill="white" transform="translate(475 472.7)"/>
</clipPath>
<clipPath id="clip12_107_4204">
<rect width="167" height="15.6" fill="white" transform="translate(475 613.7)"/>
</clipPath>
<clipPath id="clip13_107_4204">
<rect width="167" height="15.6" fill="white" transform="translate(475 566.7)"/>
</clipPath>
<clipPath id="clip14_107_4204">
<rect width="167" height="15.6" fill="white" transform="translate(475 519.7)"/>
</clipPath>
</defs>
</svg>
