<svg width="1634" height="1169" viewBox="0 0 1634 1169" fill="none" xmlns="http://www.w3.org/2000/svg">
<rect width="1634" height="1169" fill="white"/>
<path fill-rule="evenodd" clip-rule="evenodd" d="M1006 292C1035.27 292 1059 268.271 1059 239C1059 209.729 1035.27 186 1006 186C976.729 186 953 209.729 953 239C953 268.271 976.729 292 1006 292Z" fill="#F2F2F2"/>
<path fill-rule="evenodd" clip-rule="evenodd" d="M1006 200C1007.66 200 1009 198.657 1009 197C1009 195.343 1007.66 194 1006 194C1004.34 194 1003 195.343 1003 197C1003 198.657 1004.34 200 1006 200Z" fill="black" fill-opacity="0.1"/>
<path fill-rule="evenodd" clip-rule="evenodd" d="M964 242C965.657 242 967 240.657 967 239C967 237.343 965.657 236 964 236C962.343 236 961 237.343 961 239C961 240.657 962.343 242 964 242Z" fill="black" fill-opacity="0.1"/>
<path fill-rule="evenodd" clip-rule="evenodd" d="M1048 242C1049.66 242 1051 240.657 1051 239C1051 237.343 1049.66 236 1048 236C1046.34 236 1045 237.343 1045 239C1045 240.657 1046.34 242 1048 242Z" fill="black" fill-opacity="0.1"/>
<path fill-rule="evenodd" clip-rule="evenodd" d="M1006 284C1007.66 284 1009 282.657 1009 281C1009 279.343 1007.66 278 1006 278C1004.34 278 1003 279.343 1003 281C1003 282.657 1004.34 284 1006 284Z" fill="black" fill-opacity="0.1"/>
<path fill-rule="evenodd" clip-rule="evenodd" d="M1006 203L1008 238H1004L1006 203Z" fill="#AFB9C5"/>
<path fill-rule="evenodd" clip-rule="evenodd" d="M1023.7 256.698L1005.31 241.142L1008.14 238.314L1023.7 256.698Z" fill="#AFB9C5"/>
<path fill-rule="evenodd" clip-rule="evenodd" d="M1006 243C1008.21 243 1010 241.209 1010 239C1010 236.791 1008.21 235 1006 235C1003.79 235 1002 236.791 1002 239C1002 241.209 1003.79 243 1006 243Z" fill="#C5CFD6"/>
<g opacity="0.345889" clip-path="url(#clip0_107_3672)">
<path fill-rule="evenodd" clip-rule="evenodd" d="M1072.31 529.966C1061.8 440.227 497.9 267.021 393.215 352.02C288.529 437.019 389.171 596.54 608.553 637.39C827.935 678.239 1082.82 619.705 1072.31 529.966Z" fill="#F2F2F2"/>
<path fill-rule="evenodd" clip-rule="evenodd" d="M595.847 588.275C605.552 512.038 1126.28 364.893 1222.95 437.103C1319.62 509.313 1295.15 661.198 1092.57 695.901C889.978 730.604 586.142 664.511 595.847 588.275Z" fill="#DDE3E9"/>
</g>
<path fill-rule="evenodd" clip-rule="evenodd" d="M522.5 254.673C545.972 254.673 565 244.6 565 232.173C565 219.747 545.972 209.673 522.5 209.673C499.028 209.673 480 219.747 480 232.173C480 244.6 499.028 254.673 522.5 254.673Z" fill="#F2F2F2"/>
<path fill-rule="evenodd" clip-rule="evenodd" d="M572 247.673C572 220.059 549.838 197.673 522.5 197.673C495.162 197.673 473 220.059 473 247.673" fill="#DDE3E9"/>
<rect x="520" y="45" width="5" height="160" fill="#DDE3E9"/>
<g opacity="0.7">
<path fill-rule="evenodd" clip-rule="evenodd" d="M600 204C617.545 204 631.768 195.87 631.768 185.842C631.768 175.814 617.545 167.684 600 167.684C582.455 167.684 568.232 175.814 568.232 185.842C568.232 195.87 582.455 204 600 204Z" fill="#F2F2F2"/>
<path fill-rule="evenodd" clip-rule="evenodd" d="M637 198.351C637 176.066 620.435 158 600 158C579.565 158 563 176.066 563 198.351" fill="#DDE3E9"/>
<rect x="598" y="45" width="5" height="136" fill="#DDE3E9"/>
</g>
<path d="M1087.9 391.236L1126.32 369.27C1128.78 367.863 1131.8 367.863 1134.26 369.27L1226.84 422.192C1231.82 425.041 1234.9 430.342 1234.9 436.082V761" stroke="#CBCBCB" stroke-width="8"/>
<rect x="1204.9" y="760" width="59" height="7" rx="3" fill="#AFB9C5"/>
<path d="M1052.4 380.335C1065.28 367.447 1086.18 367.447 1099.07 380.335V380.335C1111.95 393.222 1111.95 414.116 1099.07 427.004L1079.27 446.803L1032.6 400.134L1052.4 380.335Z" fill="#C5CFD6"/>
<path fill-rule="evenodd" clip-rule="evenodd" d="M1052.13 427.527C1065.01 440.414 1077.52 448.804 1080.06 446.265C1082.59 443.727 1074.2 431.222 1061.32 418.335C1048.43 405.447 1035.93 397.058 1033.39 399.596C1030.85 402.135 1039.24 414.64 1052.13 427.527Z" fill="#F2F2F2"/>
<path fill-rule="evenodd" clip-rule="evenodd" d="M511.258 529.173C514.123 528.823 517.18 528.947 519.844 530.077C525.509 532.482 527.119 539.174 527.041 544.614C526.957 550.468 525.714 556.863 530.165 561.58C532.211 563.748 534.756 565.408 536.765 567.617C538.912 569.977 540.597 572.677 541.844 575.577C544.134 580.903 545.258 587.167 543.164 592.754C541.32 597.674 536.681 602.114 537.683 607.708C538.729 613.543 544.612 618.004 548.29 622.351C552.453 627.269 556.286 633.556 556.916 640.006C557.519 646.188 554.828 652.44 550.699 657.113C542.448 666.451 530.045 671.028 517.54 671C512.23 670.988 506.219 670.748 501.637 667.895C500.22 667.013 499.473 666.023 498.631 664.648C497.877 663.414 496.88 662.612 495.725 661.739C493.19 659.822 491.359 657.239 490.19 654.347C485.652 643.114 489.279 629.218 495.631 619.243C497.136 616.88 498.369 614.605 497.637 611.789C496.874 608.848 494.999 606.196 493.34 603.669C491.701 601.17 489.83 598.787 488.549 596.087C487.207 593.257 486.829 590.294 487.066 587.198C487.512 581.381 490.023 576.013 493.578 571.336C497.002 566.83 501.022 562.518 501.031 556.615C501.041 550.357 496.858 544.791 498.64 538.429C499.378 535.795 500.86 533.092 503.249 531.513C505.539 529.998 508.564 529.502 511.258 529.173Z" fill="#DDE3E9"/>
<path fill-rule="evenodd" clip-rule="evenodd" d="M509.386 539.176C509.44 538.336 510.437 537.832 511.222 538.051C512.254 538.34 512.235 539.305 512.207 540.165C512.124 542.808 512.506 545.377 513.142 547.942C514.462 553.274 516.903 558.186 518.836 563.308C520.768 568.425 521.675 573.709 520.542 579.124C519.473 584.23 517.795 589.203 516.701 594.315C515.738 598.821 514.712 603.573 516.18 608.067C517.592 612.393 520.714 615.916 522.962 619.825C527.617 627.918 529.681 636.896 529.957 646.135C530.085 650.425 529.97 654.755 528.975 658.963C528.402 661.386 527.632 664.66 525.556 666.333C524.599 667.105 522.961 667.371 522.155 666.229C521.399 665.158 522.062 663.499 522.303 662.357C523.343 657.413 523.552 652.361 523.303 647.342C523.062 642.48 522.487 637.626 520.957 632.982C519.537 628.673 517.379 624.802 514.84 621.032C512.252 617.191 509.562 613.341 508.493 608.789C507.406 604.166 508.289 599.462 509.469 594.927C510.717 590.131 512.352 585.472 514.042 580.805C515.689 576.258 516.272 571.955 515.363 567.196C513.567 557.794 508.76 548.968 509.386 539.176Z" fill="#C5CFD6"/>
<path fill-rule="evenodd" clip-rule="evenodd" d="M586.892 540.582C590.437 541.659 593.958 543.395 596.485 546.118C601.858 551.909 600.209 560.661 597.243 567.053C594.05 573.933 589.212 580.849 591.94 588.743C593.193 592.372 595.301 595.659 596.49 599.316C597.761 603.224 598.309 607.294 598.239 611.372C598.11 618.862 596.118 626.855 590.708 632.373C585.945 637.232 578.158 640.07 576.377 647.206C574.518 654.651 579.061 662.988 581.078 670.041C583.36 678.024 584.533 687.453 581.862 695.409C579.303 703.034 572.842 709.028 565.528 712.406C550.915 719.156 533.949 718.117 519.296 711.578C513.075 708.801 506.151 705.391 502.285 699.633C501.09 697.853 500.736 696.294 500.476 694.23C500.243 692.378 499.497 690.911 498.605 689.278C496.644 685.692 495.862 681.684 496.02 677.656C496.634 662.011 508.234 647.464 520.956 638.972C523.971 636.96 526.618 634.912 527.249 631.2C527.909 627.325 527.111 623.213 526.501 619.361C525.899 615.554 524.964 611.763 524.889 607.902C524.811 603.858 525.933 600.157 527.848 596.619C531.445 589.972 537.227 584.93 543.87 581.247C550.267 577.7 557.262 574.692 560.393 567.715C563.712 560.32 561.747 551.561 567.2 544.964C569.458 542.233 572.625 539.807 576.262 539.182C579.749 538.583 583.558 539.57 586.892 540.582Z" fill="#DDE3E9"/>
<path fill-rule="evenodd" clip-rule="evenodd" d="M579.651 552.811C580.154 551.844 581.584 551.769 582.387 552.44C583.443 553.324 582.914 554.456 582.432 555.46C580.95 558.547 580.052 561.789 579.452 565.159C578.204 572.166 578.485 579.262 578.063 586.341C577.642 593.414 575.935 600.147 571.774 605.965C567.85 611.452 563.283 616.462 559.327 621.943C555.841 626.773 552.153 631.863 551.516 637.954C550.901 643.817 552.707 649.626 553.288 655.434C554.492 667.457 552.204 679.171 547.688 690.257C545.591 695.405 543.189 700.472 539.821 704.933C537.882 707.503 535.267 710.977 531.963 711.869C530.44 712.281 528.385 711.739 528.042 709.964C527.718 708.298 529.363 706.682 530.242 705.455C534.047 700.146 536.938 694.273 539.275 688.198C541.54 682.314 543.41 676.265 544.053 669.963C544.649 664.116 544.153 658.401 543.158 652.606C542.144 646.701 541.015 640.732 542.149 634.781C543.3 628.736 546.795 623.628 550.55 618.876C554.521 613.85 558.873 609.19 563.293 604.549C567.6 600.027 570.536 595.238 571.966 589.126C574.79 577.049 573.791 564.078 579.651 552.811Z" fill="#C5CFD6"/>
<path fill-rule="evenodd" clip-rule="evenodd" d="M477.306 585C483.2 585 488.382 588.124 491.953 592.558C496.133 597.748 496.977 604.086 498.675 610.272C499.519 613.35 500.972 616.406 503.517 618.498C505.833 620.4 508.772 620.78 511.543 621.71C517.082 623.567 521.555 628.041 523.321 633.499C525.476 640.158 523.193 646.873 523.586 653.622C523.947 659.819 530.058 663.685 534.974 666.656C539.821 669.586 544.189 672.328 545.649 678.035C547.197 684.088 547.716 690.844 545.572 696.823C542.002 706.779 531.552 711.163 521.456 711.842C512.293 712.459 500.772 711.491 493.891 704.84C489.773 700.86 488.282 695.293 488.467 689.755C488.582 686.311 489.264 682.899 490.146 679.571C490.771 677.213 491.616 674.864 491.856 672.427C492.496 665.942 486.503 664.697 481.401 662.916C474.918 660.654 470.38 656.38 467.224 650.425C464.285 644.881 463.052 638.658 464.814 632.554C465.714 629.437 467.346 626.61 469.559 624.205C470.533 623.146 471.907 622.263 472.786 621.151C473.607 620.112 473.428 618.766 473.145 617.55C471.837 611.931 467.762 607.278 466.305 601.668C464.989 596.605 465.767 590.304 470.395 587.038C472.395 585.627 474.862 585.016 477.306 585Z" fill="#C5CFD6"/>
<path fill-rule="evenodd" clip-rule="evenodd" d="M485.338 599.641C491.585 606.296 493.283 615.325 493.781 624.076C494.061 628.983 493.77 634.159 495.212 638.919C496.445 642.993 499.337 646.107 502.318 649.051C508.319 654.975 515.011 660.999 516.766 669.574C517.796 674.606 517.101 679.804 518.524 684.78C519.817 689.304 522.096 693.748 524.867 697.568C527.098 700.645 530.004 703 532.443 705.867C533.187 706.743 534.253 708.031 533.946 709.267C533.586 710.714 531.743 711.172 530.435 710.945C527.386 710.415 524.819 707.503 522.825 705.386C519.91 702.291 517.432 698.962 515.419 695.227C513.183 691.08 511.383 686.679 510.614 682.026C509.816 677.199 510.213 672.168 508.391 667.535C505.324 659.74 497.886 655.14 492.508 649.064C485.808 641.494 486.807 632.072 487.493 622.759C487.87 617.641 488.245 611.862 485.659 607.189C484.672 605.406 482.471 603.743 482.047 601.715C481.658 599.858 483.78 597.981 485.338 599.641Z" fill="#AFB9C5"/>
<path fill-rule="evenodd" clip-rule="evenodd" d="M492 709C492 747.058 498.211 767 531 767C563.789 767 570 747.058 570 709H492Z" fill="#89C5CC"/>
<rect x="627" y="654" width="38" height="9" rx="2" fill="#AFB9C5"/>
<path fill-rule="evenodd" clip-rule="evenodd" d="M644.217 581H646H647H648.783C649.301 596.419 651.707 611.085 656 625H662.5C671.06 625 678 631.94 678 640.5C678 649.06 671.06 656 662.5 656H629.5C620.94 656 614 649.06 614 640.5C614 631.94 620.94 625 629.5 625H637C643.44 604.128 644.217 581 644.217 581Z" fill="#DDE3E9"/>
<path fill-rule="evenodd" clip-rule="evenodd" d="M610.622 511.679C610.622 511.679 627.811 510 645 510C662.189 510 679.378 511.679 679.378 511.679L684 591.133C684 591.133 664.5 593 645 593C625.5 593 606 591.133 606 591.133L610.622 511.679Z" fill="#C5CFD6"/>
<path fill-rule="evenodd" clip-rule="evenodd" d="M583 767V685V663H604H687H708V685V767H687V685H604V767H583Z" fill="#F2F2F2"/>
<path fill-rule="evenodd" clip-rule="evenodd" d="M1001.38 485.208C1010.21 506.197 1025.23 520.781 1033.18 542.605C1037.9 555.547 1039.86 569.62 1039.98 584.032C1040.05 591.86 1039.91 599.694 1039.87 607.522C1039.84 615.156 1039.63 622.741 1038.98 630.327C1038.33 637.952 1037.6 645.487 1037.28 653.159C1037.03 659.137 1036.92 666.091 1034.89 671.544C1033.28 675.881 1029.18 676.516 1028.1 671.256C1027.49 668.333 1027.57 665.068 1027.64 662.063C1027.72 658.208 1027.95 654.359 1028.06 650.504C1028.52 635.036 1027.92 619.566 1028.23 604.092C1028.54 588.973 1030.48 573.871 1028.33 558.853C1026.56 546.452 1022.05 535.802 1016.86 525.593C1011.87 515.771 1006.45 506.187 1003.07 495.014C1002.11 491.806 1001.36 488.481 1001 485.03C1001.16 484.957 1001.28 485.016 1001.38 485.208Z" fill="#C1DEE2"/>
<path fill-rule="evenodd" clip-rule="evenodd" d="M998.974 526.617C1000.72 527.88 1001.7 529.728 1002.88 531.551C1004.35 533.817 1006.08 535.863 1007.55 538.131C1010.62 542.86 1013.31 547.879 1016.1 552.799C1021.41 562.137 1025.43 572.091 1027.43 582.895C1029.49 594.092 1030.05 605.648 1030.92 617.012C1031.84 629.056 1032.77 641.188 1032.89 653.279C1032.94 658.696 1033.23 664.446 1032.58 669.825C1032.18 673.173 1030.67 676.027 1027.26 676C1020.02 675.942 1016.63 667.927 1015.21 661.354C1013.12 651.674 1012.7 641.393 1013.03 631.494C1013.43 619.558 1015.5 607.802 1016.4 595.912C1017.35 583.325 1016.81 570.96 1012.49 559.109C1010.3 553.12 1007.76 547.274 1005.48 541.325C1004.51 538.792 1003.72 536.19 1002.41 533.831C1000.95 531.208 999.142 528.826 998 526C998.324 526.206 998.649 526.411 998.974 526.617Z" fill="#89C5CC"/>
<path fill-rule="evenodd" clip-rule="evenodd" d="M1082.33 501.518C1082.56 501.345 1082.78 501.173 1083 501C1082.36 503.693 1081.21 505.88 1080.32 508.341C1079.53 510.554 1079.13 513.058 1078.59 515.477C1077.34 521.158 1075.89 526.711 1074.71 532.44C1072.36 543.777 1072.8 555.99 1074.34 568.568C1075.79 580.45 1078.09 592.313 1079.19 604.192C1080.09 614.043 1080.49 624.202 1079.62 633.601C1079.03 639.984 1077.1 647.606 1071.85 646.962C1069.37 646.659 1068.08 643.681 1067.56 640.32C1066.73 634.922 1066.55 629.246 1066.23 623.878C1065.5 611.896 1065.36 599.951 1065.21 588.092C1065.08 576.904 1064.7 565.494 1065.45 554.587C1066.17 544.063 1068.43 534.58 1071.65 525.83C1073.35 521.22 1074.97 516.502 1076.88 512.108C1077.79 510.001 1078.91 508.139 1079.83 506.033C1080.56 504.339 1081.15 502.601 1082.33 501.518Z" fill="#C1DEE2"/>
<path fill-rule="evenodd" clip-rule="evenodd" d="M1001.21 561.302C1002.17 559.695 1004.27 564.993 1004.59 565.66C1004.46 565.328 1004.32 564.997 1004.18 564.667C1006.08 567.825 1007.82 571.113 1008.9 574.734C1009.97 578.319 1010.89 581.977 1011.89 585.587C1013.77 592.361 1016.2 598.943 1017.91 605.778C1019.57 612.438 1019.99 618.986 1019.59 625.875C1019.17 633.035 1018.91 640.306 1019.4 647.462C1019.63 650.88 1020.74 654.064 1021.5 657.354C1022.27 660.648 1022.87 663.986 1023.77 667.239C1023.97 666.815 1024 668.232 1024 668.339C1023.99 669.152 1023.88 669.833 1023.62 670.604C1022.95 672.586 1021.69 674.269 1019.78 674.816C1016.32 675.803 1013.11 672.659 1012 669.339C1010.4 664.575 1009.52 659.311 1008.76 654.304C1008.06 649.713 1007.89 645.094 1008.1 640.44C1008.51 631.261 1010.17 622.202 1010.62 613.026C1011.11 603.036 1009.13 593.649 1007.47 583.925C1006.67 579.239 1005.91 574.598 1004.36 570.134C1003.73 568.326 1002.91 566.731 1002.05 565.061C1001.56 564.112 1000.57 562.418 1001.21 561.302Z" fill="#C1DEE2"/>
<path fill-rule="evenodd" clip-rule="evenodd" d="M1029.25 545.697C1028.86 557.142 1028.17 568.5 1026.65 579.824C1025.09 591.38 1023.3 602.897 1021.8 614.463C1020.34 625.722 1018.81 637.168 1019.02 648.585C1019.17 656.993 1017.77 671.219 1027.11 675.369C1036.57 679.572 1038.6 661.623 1039.22 655.699C1040.41 644.333 1040.03 632.847 1039.45 621.419C1038.86 609.689 1037.87 598.02 1036.64 586.334C1035.28 573.353 1034.21 560.314 1033.35 547.296C1032.92 540.857 1032.82 534.429 1032.94 527.988C1033.05 521.911 1032.82 515.77 1030.66 510C1030.54 510.082 1030.43 510.164 1030.32 510.246" fill="#69A1AC"/>
<path fill-rule="evenodd" clip-rule="evenodd" d="M1078.08 581.955C1076.38 584.433 1074.67 586.887 1073.06 589.512C1070.19 594.209 1067.59 599.432 1066.8 606.147C1065.17 620.2 1066.48 635.379 1066.8 649.863C1066.86 652.822 1066.49 655.693 1067.66 658.51C1068.71 661.064 1070.69 663.01 1072.58 663C1076.61 662.977 1076 653.095 1076 648.746C1076.01 641.123 1075.16 633.422 1075.23 625.806C1075.31 618.26 1075.77 610.694 1076.86 603.528C1077.97 596.275 1079.59 589.309 1081.73 582.81C1082.03 581.908 1084.16 574.937 1082.14 576.139" fill="#89C5CC"/>
<path fill-rule="evenodd" clip-rule="evenodd" d="M1060.26 507C1057.61 507 1057.63 520.226 1057.55 521.925C1057.26 528.055 1057.33 534.188 1057.14 540.319C1056.74 553.701 1056.25 567.2 1054.24 580.426C1053.16 587.547 1051.91 594.636 1050.56 601.702C1049.2 608.789 1047.39 615.867 1046.5 623.044C1045.64 629.943 1046.12 636.977 1046.24 643.91C1046.36 650.885 1046.57 657.874 1047.48 664.788C1047.71 666.494 1047.97 668.195 1048.26 669.891C1048.49 671.305 1048.35 673.058 1048.75 674.401C1049.39 676.552 1052.13 677.256 1053.98 676.92C1058.97 676.009 1062.16 669.74 1063.87 665.16C1066.04 659.311 1067.2 652.967 1068.34 646.804C1069.63 639.821 1070.39 632.732 1070.74 625.623C1071.47 611.175 1070.54 596.712 1069.5 582.31C1068.93 574.301 1068.26 566.327 1067.25 558.367C1066.23 550.441 1064.93 542.55 1064.09 534.601C1063.47 528.825 1062.86 523.04 1062.47 517.241C1062.37 515.859 1062.29 507 1060.26 507" fill="#69A1AC"/>
<path fill-rule="evenodd" clip-rule="evenodd" d="M1056.94 603.139C1056.51 589.253 1050.93 528.259 1049.66 511.467C1049.34 507.264 1046.28 489.765 1045.88 485C1044.81 486.347 1044.9 507.309 1044.91 512.126C1044.93 516.891 1044.33 521.576 1044.03 526.315C1043.72 531.151 1036.57 593.601 1035.64 598.247C1033.8 607.491 1032.56 616.976 1031.61 626.428C1030.68 635.639 1029.24 645.358 1030.48 654.618C1030.77 656.75 1031.22 658.848 1031.95 660.806C1032.75 662.922 1033.29 664.879 1033.93 667.093C1034.96 670.659 1036.81 673.789 1039.67 675.262C1045.52 678.281 1048.66 671.447 1050.25 665.497C1052.79 655.995 1054.43 646.338 1055.19 636.359C1056.04 625.318 1057.29 614.255 1056.94 603.139" fill="#89C5CC"/>
<rect x="995" y="644" width="91" height="91" rx="2" fill="white"/>
<rect x="985" y="654" width="10" height="113" rx="2" fill="#C5CFD6"/>
<rect x="1035" y="654" width="10" height="113" rx="2" fill="#C5CFD6"/>
<rect x="1086" y="654" width="10" height="113" rx="2" fill="#C5CFD6"/>
<g opacity="0.5">
<path fill-rule="evenodd" clip-rule="evenodd" d="M400.223 356.445C404.425 350.453 412.224 335.235 418.138 333.094C421.948 331.715 420.837 345.98 420.884 348.7C421.067 359.224 420.043 369.681 418.778 380.116C416.498 398.937 409.045 415.697 398.822 431.715C393.562 439.957 387.391 448.3 378.845 453.442C374.912 455.811 370.179 456.207 366.294 458.248C361.769 460.623 364.233 458.703 362.194 463.417C359.363 469.963 358.457 478.408 357.147 485.392C351.132 517.455 336.568 686.945 339.093 719.558C339.317 722.449 335.287 723.14 335.085 719.611C334.016 700.9 343.27 571.322 347.94 528.947C352.609 486.571 357.334 449.134 362.071 434.474C367.819 416.687 378.199 395.298 386.84 378.711C390.854 371.006 395.229 363.565 400.223 356.445Z" fill="#69A1AC"/>
<path fill-rule="evenodd" clip-rule="evenodd" d="M431.414 564.278C442.349 556.25 454.186 571.401 444.29 579.43C438.82 583.868 433.101 582.29 429.882 578.591C427.792 581.139 425.836 583.803 423.956 586.052C418.229 592.908 412.817 599.928 407.644 607.111C396.898 622.035 387.689 637.801 378.06 653.278C368.558 668.554 359.132 683.908 350.519 699.571C343.223 712.841 333.498 728.452 331 743C334.79 712.146 349.172 682.49 366.298 655.291C383.285 628.314 402.779 598.853 429.081 577.564C426.404 573.627 426.33 568.008 431.414 564.278Z" fill="#C1DEE2"/>
<path fill-rule="evenodd" clip-rule="evenodd" d="M223.913 489.031C230.032 490.227 240.031 504.07 245.075 509.344C251.07 515.612 256.508 522.292 261.635 529.292C272.671 544.358 282.541 560.376 290.934 577.08C304.616 604.311 315.578 632.265 323.533 661.918C328.403 680.069 331.556 698.883 333.424 717.565C333.777 721.089 337.471 748.253 332.148 748.985C327.361 749.644 328.84 728.359 328.609 725.463C325.998 692.798 318.177 661.015 307.299 630.226C304.929 623.519 302.728 615.304 298.938 609.269C296.209 604.921 298.919 606.437 294.123 604.792C290.005 603.378 285.313 603.724 281.096 601.993C271.936 598.237 264.601 590.944 258.171 583.608C245.676 569.351 235.774 553.928 230.613 535.66C227.749 525.532 225.118 515.344 223.658 504.902C223.281 502.203 219.972 488.26 223.913 489.031Z" fill="#69A1AC"/>
<path fill-rule="evenodd" clip-rule="evenodd" d="M248.061 258.716C271.111 298.69 290.053 342.601 302.283 387.076C309.694 414.023 314.876 441.675 320.025 469.126C327.997 511.632 335.538 554.134 337.683 597.395C339.841 640.906 344.108 691.092 329.861 733C336.978 690.452 330.202 645.162 329.002 602.35C328.429 581.912 326.768 561.674 324.588 541.355C322.473 521.645 319.018 502.029 315.801 482.474C314.234 472.95 312.588 463.441 310.912 453.937C310.411 451.101 310.2 442.687 308.401 440.75C306.591 438.8 297.354 438.005 294.454 436.574C288.615 433.693 283.122 429.6 278.261 425.275C268.942 416.984 260.835 406.151 254.436 395.472C239.631 370.764 233.712 340.61 234.011 311.994C234.068 306.438 243.003 246.61 239.415 245.786C239.631 245.533 239.835 245.272 240.028 245C242.745 249.549 245.411 254.128 248.061 258.716Z" fill="#89C5CC"/>
<path fill-rule="evenodd" clip-rule="evenodd" d="M496.846 402.887C497.202 402.374 499.517 398.807 498.351 399.035C500.724 398.57 495.087 402.969 501 400.27C498.192 402.922 499.813 406.366 499.85 409.935C499.911 415.73 498.942 421.476 497.851 427.146C496.126 436.109 493.557 444.823 489.828 453.159C481.701 471.326 467.901 488.814 451.518 500.172C443.43 505.779 435.504 507.689 426.28 510.27C420.453 511.901 419.991 514.915 416.898 520.569C410.46 532.345 404.136 544.078 398.457 556.251C391.677 570.788 385.095 585.34 378.886 600.132C357.969 649.957 340.945 701.578 332.005 755C331.786 723.519 339.069 691.095 348.255 661.088C354.947 639.226 363.658 618.151 372.95 597.289C375.201 592.236 378.613 585.735 379.57 580.155C380.239 576.245 378.192 572.486 377.255 568.367C373.601 552.33 373.863 534.363 377.071 518.24C380.609 500.461 390.839 492.209 408.145 489.691C414.474 488.769 422.519 489.107 428.322 486.408C434.645 483.47 437.253 473.81 440.849 467.61C450.506 450.953 461.98 434.979 475.155 420.945C478.803 417.059 482.726 413.473 486.888 410.15C489.513 408.053 495.058 405.47 496.846 402.887Z" fill="#89C5CC"/>
<path fill-rule="evenodd" clip-rule="evenodd" d="M302.791 721H364.209C366.97 721 369.209 723.239 369.209 726C369.209 726.244 369.191 726.488 369.155 726.729L364.408 758.918C362.961 768.73 354.541 776 344.622 776H322.378C312.459 776 304.039 768.73 302.592 758.918L297.845 726.729C297.442 723.998 299.33 721.456 302.062 721.053C302.303 721.018 302.547 721 302.791 721Z" fill="#C1DEE2"/>
</g>
<path fill-rule="evenodd" clip-rule="evenodd" d="M262.698 696.555C264.44 720.233 376.691 789.945 377.346 791.901C377.637 792.77 365.991 820.249 342.407 874.339L352.219 878.135C388.393 820.851 405.551 789.156 403.693 783.052C401.033 774.313 372.001 745.565 316.599 696.807L262.698 696.555Z" fill="#B28B67"/>
<path fill-rule="evenodd" clip-rule="evenodd" d="M344.989 862.123L361.009 867.93C394.79 829.98 408.031 798.669 405.617 782.715C404.008 772.079 375.076 743.379 318.824 696.614L261.549 696.614C263.503 751.448 367.546 792.109 368.937 794.446C370.329 796.783 356.634 819.669 344.989 862.123Z" fill="#2F3676"/>
<path fill-rule="evenodd" clip-rule="evenodd" d="M338.772 872.528C336.769 874.87 335.522 876.714 335.032 878.06C334.436 879.697 333.839 882.185 333.24 885.524C335.14 886.215 352.212 892.424 384.455 904.153C387.388 900.238 387.485 897.584 384.745 896.19C382.005 894.796 379.739 893.613 377.945 892.641L358.005 873.373C357.621 873.002 357.009 873.013 356.638 873.396C356.632 873.403 356.626 873.41 356.62 873.416L353.738 876.571C350.633 876.843 348.25 876.678 346.59 876.074C345.242 875.584 343.578 874.362 341.599 872.409L341.599 872.409C340.839 871.659 339.616 871.667 338.866 872.427C338.833 872.46 338.802 872.493 338.772 872.528Z" fill="#E4E4E4"/>
<path fill-rule="evenodd" clip-rule="evenodd" d="M275.604 696.555L225.6 816.08L176.453 917.127H188.048L314.909 696.555H275.604Z" fill="#997659"/>
<path fill-rule="evenodd" clip-rule="evenodd" d="M175.759 912.557C174.678 915.442 174.138 917.6 174.138 919.032C174.138 920.774 174.428 923.316 175.009 926.657C177.03 926.657 195.198 926.657 229.512 926.657C230.929 921.977 230.111 919.45 227.06 919.077C224.008 918.704 221.473 918.367 219.455 918.066L194.122 906.778C193.634 906.561 193.063 906.78 192.846 907.267C192.842 907.276 192.838 907.284 192.835 907.292L191.207 911.24C188.382 912.558 186.086 913.217 184.32 913.217C182.885 913.217 180.903 912.637 178.375 911.479L178.375 911.479C177.404 911.034 176.257 911.46 175.812 912.43C175.793 912.472 175.775 912.514 175.759 912.557Z" fill="#E4E4E4"/>
<path fill-rule="evenodd" clip-rule="evenodd" d="M180.891 896.136L206.656 900.946C226.577 871.786 309.949 752.217 319.09 696.555H261.732C231.205 736.793 199.88 866.493 180.891 896.136Z" fill="#5C63AB"/>
<path fill-rule="evenodd" clip-rule="evenodd" d="M293.497 580.249C290.431 574.148 289.044 567.262 291.254 560.484C297.623 540.954 324.458 552.284 327.387 563.672C330.315 575.059 323.319 600.35 315.85 600.394C312.872 600.412 307.344 597.174 302.178 592.036L299.323 619.698L276.824 614.093L293.497 580.249Z" fill="#B28B67"/>
<path fill-rule="evenodd" clip-rule="evenodd" d="M328.386 568.707C328.488 567.351 328.303 565.771 328.171 564.431C328 562.703 327.499 561.059 326.892 559.476C325.748 556.496 324.189 553.673 322.31 551.184C318.878 546.639 313.906 543.272 308.363 542.582C305.564 542.234 302.67 542.603 299.999 543.753C297.586 544.792 295.068 546.579 292.401 546.088C289.499 545.554 287.503 542.402 285.597 540.288C283.447 537.904 281.014 535.952 278.117 534.706C273.264 532.62 268.089 533.13 263.576 536.374C258.774 539.826 254.475 545.573 255.465 551.979C255.649 553.169 256.005 554.223 256.653 555.185C257.247 556.067 258.235 557.093 258.271 558.274C258.309 559.53 256.944 560.797 256.298 561.76C255.371 563.14 254.524 564.62 254.273 566.308C253.86 569.081 254.932 572.093 256.301 574.324C257.694 576.594 259.706 578.198 262.012 579.281C263.551 580.004 265.162 580.592 266.838 580.883C267.67 581.027 268.447 580.981 269.283 581C270.097 581.018 270.476 581.327 271.025 581.908C273.574 584.608 276.649 586.172 280.224 586.756C283.242 587.249 286.827 587.388 289.74 585.982C292.975 584.42 293.689 581.332 293.878 577.891C294.464 578.385 296.261 579.048 295.483 577.466C295.175 576.839 294.401 576.423 293.916 575.979C293.351 575.461 292.802 574.838 292.439 574.133C290.972 571.287 294.227 567.051 296.998 566.909C301.114 566.699 300.633 572.273 303.018 574.341C304.389 575.529 306.304 574.849 307.758 574.029C309.706 572.931 311.273 571.224 312.702 569.445C313.878 567.98 315.008 566.479 316.197 565.026C316.753 564.348 318.554 562.487 318.139 561.46C321.014 561.602 323.785 563.49 325.775 565.558C326.598 566.413 327.174 567.272 327.425 568.482C327.478 568.741 327.549 569.489 327.847 569.593C328.401 569.787 328.36 569.048 328.386 568.707Z" fill="#191847"/>
<path fill-rule="evenodd" clip-rule="evenodd" d="M354.869 688.193L385.296 711.24C393.615 713.629 400.55 716.542 406.1 719.979C407.404 721.203 408.963 723.662 403.476 723.146C397.989 722.63 392.194 722.333 391.404 724.184C390.613 726.034 393.899 728.321 392.323 730.81C391.272 732.468 386.518 728.18 378.063 717.945L347.763 704.825L354.869 688.193ZM236.522 686.906L256.711 687.337C243.545 727.149 236.443 748.27 235.407 750.702C233.075 756.174 237.659 764.65 239.604 769.195C232.963 772.013 233.855 761.164 225.475 764.866C217.827 768.244 211.944 774.505 203.272 768.972C202.206 768.292 201.068 765.781 203.956 763.885C211.149 759.161 221.542 750.854 222.975 748.085C224.929 744.309 229.445 723.916 236.522 686.906Z" fill="#B28B67"/>
<path fill-rule="evenodd" clip-rule="evenodd" d="M295.373 603.643L303.753 602.363C334.286 629.537 346.125 680.926 383.648 708.694L374.306 719.81C308.53 710.543 293.282 647.846 295.373 603.643Z" fill="#E87613"/>
<path fill-rule="evenodd" clip-rule="evenodd" d="M257.128 707.435C290.627 708.019 315.269 708.448 331.053 708.724C334.431 708.783 333.879 703.92 333.433 701.464C328.291 673.112 306.824 642.273 307.527 602.055L286.261 598.358C268.131 626.263 261.425 660.892 257.128 707.435Z" fill="#DDE3E9"/>
<path fill-rule="evenodd" clip-rule="evenodd" d="M259.151 625.625C256.07 624.685 253.654 622.578 251.902 619.301C244.353 605.178 247.302 597.526 255.675 595.14C264.049 592.754 271.385 598.098 284.656 598.329C285.377 598.342 286.038 598.398 286.636 598.499L293.305 598.994C311.329 663.887 315.859 707.052 306.894 728.488L248.709 727.474C245.122 735.409 241.706 742.078 238.46 747.482L222.606 747.205C221.952 699.195 234.134 658.668 259.151 625.625Z" fill="#FF9B21"/>
<path fill-rule="evenodd" clip-rule="evenodd" d="M261.959 694.538C263.523 709.798 266.304 720.902 270.302 727.85L248.709 727.473C252.894 718.217 257.31 707.239 261.959 694.538V694.538Z" fill="black" fill-opacity="0.1"/>
<path fill-rule="evenodd" clip-rule="evenodd" d="M1138.74 599.49C1143.35 594.081 1146.46 587.453 1145.94 580.025C1144.44 558.625 1114.65 563.333 1108.86 574.134C1103.06 584.935 1103.75 612.333 1111.24 614.263C1114.23 615.033 1120.59 613.147 1127.06 609.244L1123 638H1147L1138.74 599.49Z" fill="#B28B67"/>
<path fill-rule="evenodd" clip-rule="evenodd" d="M1131.27 587.867C1132.06 587.328 1132.99 587 1134 587C1136.76 587 1139 589.462 1139 592C1139 594.64 1137.75 596.681 1135.97 597.547C1136.92 599.406 1137.88 600.755 1139 601C1143.32 600.563 1149 589.821 1149 581C1149 571.346 1141.32 563 1127 563C1114.13 563 1109.25 568.306 1109 573C1114.51 574.516 1124.15 575.099 1138 575V576L1126 577L1124 583C1127.18 582.762 1129.46 584.945 1131.27 587.867Z" fill="#191847"/>
<path d="M1157 895C1114.47 895 1080 862.093 1080 821.5C1080 780.907 1114.47 748 1157 748C1199.53 748 1234 780.907 1234 821.5C1234 862.093 1199.53 895 1157 895Z" fill="#C5CFD6"/>
<path fill-rule="evenodd" clip-rule="evenodd" d="M1011.49 883.66C1024.3 855.302 1033.57 830.608 1037.29 817.58C1043.66 795.273 1048.5 775.643 1049.73 768.313C1052.65 750.832 1027.26 749.814 1023.91 758.502C1018.83 771.651 1009.97 814.853 999.315 880.108L1011.49 883.66ZM1160.11 794.664C1148.36 790.017 1107.19 775.475 1087.33 771.361C1081.63 770.179 1076.1 769.081 1070.9 768.088C1055.44 765.138 1047.44 793.018 1062.32 795.16C1099.39 800.494 1151.94 806.003 1156.43 806.622C1162.74 807.488 1167.5 797.584 1160.11 794.664Z" fill="#B28B67"/>
<path fill-rule="evenodd" clip-rule="evenodd" d="M1061.41 760.416L1125 728.047V721H1117.44C1055.92 736.676 1024.48 746.722 1023.13 751.138C1023.12 751.185 1023.1 751.233 1023.09 751.281C1023.06 751.321 1023.03 751.362 1023 751.403C1010.81 768.17 1003.51 850.027 1001.11 856.156L1024.47 859.641C1033.41 826.503 1062 803.418 1061.24 763.729C1061.45 762.565 1061.5 761.461 1061.41 760.416Z" fill="#1F28CF"/>
<path fill-rule="evenodd" clip-rule="evenodd" d="M1119.72 779.64C1125.53 778.476 1130.89 777.436 1135.48 776.632C1165.09 771.438 1173.73 755.586 1168.62 721L1114.06 721C1105.15 723.56 1058.83 742.985 1034.79 753.316C1018.89 760.154 1023.9 784.804 1032.91 791.219C1032.96 791.613 1033.12 791.88 1033.41 792C1081.86 812.083 1120.2 801.545 1133 804.912L1138.92 786.228L1119.72 779.64Z" fill="#2B44FF"/>
<path fill-rule="evenodd" clip-rule="evenodd" d="M1156.09 791.694C1159.27 791.997 1161.52 792.474 1162.85 793.124C1164.47 793.915 1166.71 795.338 1169.55 797.395C1168.64 799.275 1160.39 816.173 1144.83 848.088C1139.83 847.282 1137.85 845.374 1138.89 842.367C1139.92 839.359 1140.76 836.848 1141.4 834.835L1142.38 806.15C1142.4 805.598 1142.87 805.166 1143.42 805.185C1143.43 805.185 1143.44 805.185 1143.45 805.186L1147.86 805.463C1150.37 803.434 1152.02 801.598 1152.82 799.955C1153.47 798.62 1153.83 796.514 1153.9 793.637L1153.9 793.637C1153.93 792.532 1154.85 791.659 1155.95 791.685C1156 791.686 1156.04 791.689 1156.09 791.694Z" fill="#E4E4E4"/>
<path fill-rule="evenodd" clip-rule="evenodd" d="M1017.32 878.402C1018.44 881.388 1019 883.623 1019 885.106C1019 886.909 1018.7 889.54 1018.1 893C1016.01 893 997.206 893 961.697 893C960.231 888.155 961.077 885.539 964.235 885.152C967.393 884.766 970.016 884.417 972.105 884.106L998.32 872.419C998.824 872.194 999.416 872.421 999.641 872.925C999.644 872.934 999.648 872.942 999.652 872.951L1001.34 877.039C1004.26 878.403 1006.64 879.085 1008.46 879.085C1009.95 879.085 1012 878.485 1014.62 877.286L1014.62 877.285C1015.62 876.825 1016.81 877.266 1017.27 878.27C1017.29 878.313 1017.31 878.357 1017.32 878.402Z" fill="#E4E4E4"/>
<path fill-rule="evenodd" clip-rule="evenodd" d="M1065.11 701.131L1033.21 724.555C1024.56 726.889 1017.33 729.794 1011.53 733.268C1010.16 734.518 1008.5 737.048 1014.19 736.611C1019.87 736.173 1025.87 735.969 1026.66 737.909C1027.44 739.848 1024 742.168 1025.59 744.785C1026.65 746.53 1031.64 742.155 1040.57 731.661L1072.16 718.562L1065.11 701.131ZM1209.46 691.375L1191.85 694.564C1212.29 735.125 1223.24 756.571 1224.69 758.902C1227.97 764.148 1224.66 773.599 1223.41 778.585C1230.66 780.406 1227.98 769.402 1237.15 771.85C1245.52 774.084 1252.55 779.566 1260.51 772.477C1261.49 771.606 1262.25 768.841 1258.99 767.36C1250.86 763.669 1238.89 756.814 1236.97 754.201C1234.36 750.637 1225.19 729.695 1209.46 691.375Z" fill="#B28B67"/>
<path fill-rule="evenodd" clip-rule="evenodd" d="M1057.68 703.678C1053.58 703.383 1049.11 704.063 1044.32 705.676C1041.97 706.469 1040.7 709.022 1041.5 711.377C1041.96 712.745 1043.01 713.746 1044.28 714.188C1043.36 714.857 1042.44 715.521 1041.5 716.182L1049.55 732.61C1083.41 715.726 1115.24 702.996 1129.75 675.122C1134.61 665.766 1132.97 633.988 1133.43 622.428L1122.74 618.042C1107.83 648.858 1087.65 678.423 1057.68 703.678Z" fill="#69A1AC"/>
<path fill-rule="evenodd" clip-rule="evenodd" d="M1171 729.91C1139.56 733.363 1114.82 733.363 1096.76 729.91C1094.53 729.482 1094.63 719.84 1095.66 717.207C1111.81 676.202 1122.44 646.184 1122.44 617.703C1125.4 619.251 1130.59 619.483 1138 618.399C1157.91 647.75 1167.07 681.427 1171 729.91Z" fill="#191847"/>
<path fill-rule="evenodd" clip-rule="evenodd" d="M1176.84 734.758C1177.91 733.753 1178.47 732.247 1178.19 730.696L1177.67 727.741C1177.32 725.739 1175.69 724.281 1173.77 724.053C1173.44 722.553 1173.15 721.063 1172.91 719.583C1170.89 707.087 1174.34 694.834 1174.18 682.802C1190.26 696.522 1204.68 720.211 1217.45 753.871L1236.34 748.313C1235.62 745.636 1234.87 742.992 1234.1 740.38C1236.28 739.142 1238.83 733.466 1236.99 732.516C1235.1 731.535 1233.09 730.845 1230.98 730.438C1213.66 678.279 1185.35 640.133 1146.02 616H1140.62L1134.65 616C1138 660.281 1091.75 756.955 1107.81 839.518C1137.49 846.147 1179.87 825.523 1221.12 842C1219.58 808.751 1188.84 769.691 1176.84 734.758V734.758Z" fill="#89C5CC"/>
<path fill-rule="evenodd" clip-rule="evenodd" d="M1141.89 617L1147.05 632.865L1136.66 644.759L1146.05 654.106L1123.34 693L1151.12 654.183L1141.89 644.759L1151.12 634.248L1141.89 617Z" fill="black" fill-opacity="0.1"/>
<path fill-rule="evenodd" clip-rule="evenodd" d="M1130 708C1132.21 708 1134 706.209 1134 704C1134 701.791 1132.21 700 1130 700C1127.79 700 1126 701.791 1126 704C1126 706.209 1127.79 708 1130 708ZM1125 731C1127.21 731 1129 729.209 1129 727C1129 724.791 1127.21 723 1125 723C1122.79 723 1121 724.791 1121 727C1121 729.209 1122.79 731 1125 731ZM1124 754C1126.21 754 1128 752.209 1128 750C1128 747.791 1126.21 746 1124 746C1121.79 746 1120 747.791 1120 750C1120 752.209 1121.79 754 1124 754Z" fill="black" fill-opacity="0.4"/>
<path fill-rule="evenodd" clip-rule="evenodd" d="M749.698 534.47C745.09 529.061 741.972 522.433 742.493 515.005C743.994 493.605 773.784 498.313 779.579 509.114C785.374 519.915 784.686 547.313 777.196 549.243C774.21 550.013 767.847 548.127 761.371 544.224L765.436 572.98H741.436L749.698 534.47Z" fill="#B28B67"/>
<path fill-rule="evenodd" clip-rule="evenodd" d="M762.571 517.369C763.49 530.166 765.92 536.565 769.862 536.565C775.775 536.565 780.791 532.811 783.386 532.811C785.277 532.811 784.855 535.178 783.601 536.933C782.567 538.38 777.53 539.776 777.53 542.02C777.53 544.265 781.509 542.528 781.509 543.859C781.509 546.061 782.209 550.201 778.387 550.201C774.52 550.201 763.431 548.792 761.53 543.052C760.304 539.347 759.511 531.671 759.151 520.022C758.917 519.994 758.678 519.98 758.436 519.98C755.122 519.98 752.436 522.666 752.436 525.98C752.436 527.662 753.128 529.183 754.243 530.272C752.855 532.232 751.299 534.279 749.516 536.391C742.818 532.373 737.848 520.609 744.396 509.308C746.206 503.772 750.304 500.815 755.143 499.442C759.063 497.803 763.133 497.618 766.568 498.601C773.302 499.178 779.315 501.232 781.019 502.451C781.019 508.826 779.784 510.718 769.233 510.551C766.64 511.92 764.647 514.278 762.571 517.369Z" fill="#191847"/>
<path fill-rule="evenodd" clip-rule="evenodd" d="M733.436 655.98L769.691 783.207L796.143 876.98H815.436L787.327 655.98H733.436Z" fill="#191847"/>
<path fill-rule="evenodd" clip-rule="evenodd" d="M723.74 655.98C722.902 721.554 720.042 757.32 719.162 763.278C718.281 769.236 704.968 807.136 679.222 876.98H699.209C731.985 809.977 750.282 772.076 754.098 763.278C757.915 754.48 769.695 718.714 787.436 655.98H723.74Z" fill="#2F3676"/>
<path fill-rule="evenodd" clip-rule="evenodd" d="M677.436 894.98L678.436 873.98H699.436C709.394 880.98 722.394 886.647 738.436 890.98V894.98H700.436L687.436 892.98V894.98H677.436Z" fill="#191847"/>
<path fill-rule="evenodd" clip-rule="evenodd" d="M793.436 894.98L794.436 873.98H815.436C825.394 880.98 838.394 886.647 854.436 890.98V894.98H816.436L803.436 892.98V894.98H793.436Z" fill="#191847"/>
<path fill-rule="evenodd" clip-rule="evenodd" d="M817.795 639.59L847.981 665.182C856.449 668.114 863.457 671.516 869.005 675.387C870.286 676.729 871.762 679.368 866.12 678.535C860.478 677.703 854.506 677.08 853.588 678.96C852.67 680.84 855.941 683.394 854.176 685.894C853 687.561 848.321 682.849 840.142 671.757L809.545 656.487L817.795 639.59ZM681.103 628.516L698.815 631.088C679.803 672.338 669.61 694.153 668.237 696.534C665.148 701.89 668.781 711.221 670.202 716.16C663.023 718.233 665.316 707.142 656.239 709.908C647.954 712.433 641.118 718.157 632.912 711.35C631.904 710.514 631.054 707.777 634.26 706.183C642.249 702.211 653.977 694.943 655.8 692.264C658.287 688.611 666.721 667.362 681.103 628.516Z" fill="#B28B67"/>
<path fill-rule="evenodd" clip-rule="evenodd" d="M755.131 556.312L766.106 552.683C780.993 589.873 803.196 625.856 840.293 656.25L831.12 672.077C798.517 652.872 767.654 637.953 755.131 609.135C750.928 599.463 754.788 567.877 755.131 556.312Z" fill="#C5CFD6"/>
<path fill-rule="evenodd" clip-rule="evenodd" d="M717.436 660.98C748.874 664.313 773.62 664.313 791.672 660.98C793.909 660.567 794.262 656.822 793.224 654.281C777.072 614.704 765.996 580.172 765.996 552.683C763.033 554.177 757.846 554.401 750.436 553.354C730.522 581.683 721.369 614.186 717.436 660.98Z" fill="#323337"/>
<path fill-rule="evenodd" clip-rule="evenodd" d="M745.485 550.98H753.784C755.717 562.345 761.811 716.243 780.627 766.586H678.821C681.028 720.467 698.439 665.067 716.076 618.708C700.48 632.98 686.888 657.161 675.298 691.253L656.229 686.358C670.407 625.261 699.558 580.355 743.682 551.639C743.778 551.418 743.873 551.199 743.968 550.98H744.702C744.972 550.807 745.243 550.634 745.515 550.461L745.485 550.98V550.98Z" fill="#DDE3E9"/>
<path fill-rule="evenodd" clip-rule="evenodd" d="M1257.24 727.29C1253.79 739.992 1249.3 768.544 1253.88 773.022H1282.88C1282.89 772.971 1282.89 772.92 1282.89 772.868C1293.64 771.679 1302 762.566 1302 751.5V730.5C1302 718.626 1292.37 709 1280.5 709H1278.5C1267.72 709 1258.79 716.939 1257.24 727.29Z" fill="#191847"/>
<path fill-rule="evenodd" clip-rule="evenodd" d="M1290.74 747.49C1295.35 742.081 1298.46 735.453 1297.94 728.025C1296.44 706.625 1266.65 711.333 1260.86 722.134C1255.06 732.935 1255.75 760.333 1263.24 762.263C1266.23 763.033 1272.59 761.147 1279.06 757.244L1275 786H1299L1290.74 747.49Z" fill="#D4A181"/>
<path fill-rule="evenodd" clip-rule="evenodd" d="M1284.25 743.875C1283.14 755.753 1283.59 769.317 1286.88 772.537H1315.88C1317.5 744.463 1301.88 755.335 1301.88 728.903C1300.91 727.952 1299.99 727.01 1299.08 726.198L1299.11 725.421C1294.09 715.14 1287.72 710 1280 710C1268.42 710 1264.76 715.388 1261.65 719.963C1263.98 727.948 1273.01 729.132 1281.03 734.11C1281.98 733.341 1283.19 732.88 1284.5 732.88C1287.54 732.88 1290 735.343 1290 738.38C1290 741.418 1287.54 743.88 1284.5 743.88C1284.42 743.88 1284.33 743.879 1284.25 743.875Z" fill="#191847"/>
<path fill-rule="evenodd" clip-rule="evenodd" d="M1337.59 967.088C1313.6 973.798 1292.91 977.153 1275.5 977.153C1258.1 977.153 1241.93 971.986 1227 961.653C1250.48 954.766 1269.81 951.323 1285 951.323C1300.19 951.323 1317.72 956.578 1337.59 967.088Z" fill="#1F28CF"/>
<path fill-rule="evenodd" clip-rule="evenodd" d="M1254.73 986.824C1254.96 986.477 1255.16 986.098 1255.31 985.689C1258.52 977.208 1309.88 885.726 1315 869H1257.17C1253.28 881.717 1235.77 961.52 1233.31 977.442C1225.53 1002.56 1209.52 1083.9 1207.48 1089.53C1205.33 1095.46 1217.43 1101.63 1220.65 1094.35C1225.78 1082.75 1238 1050.67 1243.44 1031.07C1248.54 1012.71 1252.7 996.184 1254.73 986.824Z" fill="#BA8B72"/>
<path fill-rule="evenodd" clip-rule="evenodd" d="M1302.04 997.994C1325.52 1003.93 1411.42 1014.66 1417.31 1016.34C1423.37 1018.07 1428.69 1005.57 1421.2 1002.87C1409.27 998.559 1376.41 988.606 1356.49 984.544C1340.46 981.277 1325.84 978.611 1316.02 977.05C1316.86 949.473 1320.66 883.294 1318.17 869H1267C1269.39 882.707 1289.59 982.718 1293.34 992.729C1294.54 996.302 1298.09 997.882 1302.04 997.994Z" fill="#D4A181"/>
<path fill-rule="evenodd" clip-rule="evenodd" d="M1420.65 999.539C1423.79 998.956 1426.08 998.793 1427.54 999.051C1429.32 999.364 1431.86 1000.12 1435.16 1001.31C1434.8 1003.37 1431.53 1021.88 1425.37 1056.85C1420.34 1057.46 1417.91 1056.17 1418.08 1052.99C1418.25 1049.81 1418.36 1047.17 1418.42 1045.06L1411.46 1017.21C1411.33 1016.68 1411.65 1016.13 1412.19 1016C1412.2 1016 1412.21 1016 1412.21 1015.99L1416.53 1015.04C1418.38 1012.4 1419.47 1010.18 1419.79 1008.38C1420.04 1006.92 1419.81 1004.8 1419.08 1002.01L1419.08 1002.01C1418.8 1000.94 1419.44 999.849 1420.51 999.57C1420.56 999.558 1420.6 999.548 1420.65 999.539Z" fill="#E4E4E4"/>
<path fill-rule="evenodd" clip-rule="evenodd" d="M1224.32 1093.4C1225.44 1096.39 1226 1098.62 1226 1100.11C1226 1101.91 1225.7 1104.54 1225.1 1108C1223.01 1108 1204.21 1108 1168.7 1108C1167.23 1103.15 1168.08 1100.54 1171.24 1100.15C1174.39 1099.77 1177.02 1099.42 1179.11 1099.11L1205.32 1087.42C1205.82 1087.19 1206.42 1087.42 1206.64 1087.93C1206.64 1087.93 1206.65 1087.94 1206.65 1087.95L1208.34 1092.04C1211.26 1093.4 1213.64 1094.08 1215.46 1094.08C1216.95 1094.08 1219 1093.48 1221.62 1092.29L1221.62 1092.29C1222.62 1091.83 1223.81 1092.27 1224.27 1093.27C1224.29 1093.31 1224.31 1093.36 1224.32 1093.4Z" fill="#E4E4E4"/>
<path fill-rule="evenodd" clip-rule="evenodd" d="M1318 869C1295.45 862.549 1274.12 862.549 1254 869C1247 900.938 1229.99 913.614 1227 962.579C1261 979.473 1303 950.531 1338 967.005C1348 943.961 1334 888.465 1318 869Z" fill="#2B44FF"/>
<path fill-rule="evenodd" clip-rule="evenodd" d="M1221 829.311L1181.52 823.925C1173.62 819.532 1166.35 816.558 1159.72 815.003C1157.85 814.948 1154.88 815.627 1159.31 819.315C1163.73 823.003 1168.22 827.083 1167.43 829.051C1166.64 831.02 1162.53 830.287 1161.85 833.315C1161.39 835.333 1168.07 835.661 1181.88 834.299L1213.92 847L1221 829.311ZM1345.03 838.45L1323.13 838.532C1347.14 892.566 1359.66 920.857 1360.69 923.406C1363.01 929.14 1358.11 937.874 1356.02 942.567C1362.84 945.619 1362.11 934.317 1370.71 938.319C1378.56 941.973 1384.54 948.592 1393.61 942.994C1394.73 942.306 1395.95 939.715 1393 937.69C1385.64 932.645 1375.03 923.815 1373.6 920.908C1371.65 916.945 1362.12 889.459 1345.03 838.45Z" fill="#D4A181"/>
<path fill-rule="evenodd" clip-rule="evenodd" d="M1285.05 769L1267.91 770.142C1263.68 808.344 1240.68 832.473 1189.19 824.304L1182.35 873.499C1230.48 879.719 1272.69 860.45 1281.34 808.279C1283.58 794.773 1285.35 780.718 1285.05 769Z" fill="#AFB9C5"/>
<path fill-rule="evenodd" clip-rule="evenodd" d="M1293.51 764.016L1267.53 769.965C1267.53 814.644 1253.3 843.15 1246 876H1316.16C1317.14 887.351 1317.75 899.018 1318.07 911H1370.6C1358.69 847.664 1333.57 798.664 1295.22 764H1293.52L1293.51 764.016Z" fill="#C5CFD6"/>
<path fill-rule="evenodd" clip-rule="evenodd" d="M1305.09 812.259C1306.9 840.101 1305.83 861.347 1301.9 876H1316.16C1314.2 853.514 1310.74 832.267 1305.09 812.259V812.259Z" fill="black" fill-opacity="0.1"/>
<path fill-rule="evenodd" clip-rule="evenodd" d="M498.284 723.628C491.96 719.31 486.855 713.31 485.336 705.462C480.96 682.847 513.439 679.378 522.503 688.954C531.568 698.531 538.461 727.137 531.161 731.239C528.25 732.875 521.068 732.703 513.208 730.47L525.452 759.152L500.34 765.881L498.284 723.628Z" fill="#B28B67"/>
<path fill-rule="evenodd" clip-rule="evenodd" d="M507.001 702.283C511.519 715.297 515.839 721.252 519.963 720.147C526.15 718.489 530.356 713.19 533.071 712.462C535.049 711.932 535.265 714.505 534.441 716.676C533.761 718.467 528.879 721.327 529.503 723.654C530.126 725.982 533.808 723.065 534.178 724.446C534.789 726.729 536.672 730.827 532.673 731.898C528.626 732.982 516.632 734.629 513.049 729.209C510.736 725.712 507.773 717.973 504.16 705.994C503.907 706.031 503.653 706.083 503.4 706.151C499.933 707.08 497.869 710.619 498.789 714.055C499.257 715.8 500.404 717.182 501.873 718C500.965 720.421 499.906 722.98 498.628 725.671C490.503 723.381 482.033 712.575 485.745 699.02C486.1 692.771 489.566 688.556 494.248 685.775C497.894 682.975 502.1 681.643 505.968 681.699C513.174 680.41 520.036 680.854 522.158 681.641C523.93 688.252 523.163 690.56 512.077 693.345C509.745 695.492 508.314 698.496 507.001 702.283Z" fill="#191847"/>
<path fill-rule="evenodd" clip-rule="evenodd" d="M512.566 853.322L565.733 987.368L601.392 1100.69H615.473L560.958 853.322L512.566 853.322Z" fill="#997659"/>
<path fill-rule="evenodd" clip-rule="evenodd" d="M501.86 853.322C501.294 900.427 493.038 963.846 491.719 966.782C490.839 968.74 460.481 993.633 400.643 1041.46L410.342 1051.8C480.944 1010.79 517.879 987.554 521.147 982.085C526.047 973.881 542.002 898.386 554.812 853.322H501.86Z" fill="#B28B67"/>
<path fill-rule="evenodd" clip-rule="evenodd" d="M399.282 1037.99C396.025 1039.14 393.781 1040.23 392.551 1041.26C391.054 1042.52 389.08 1044.6 386.628 1047.51C388.084 1049.25 401.175 1064.85 425.899 1094.31C430.94 1092.15 432.522 1089.63 430.644 1086.74C428.766 1083.85 427.229 1081.43 426.033 1079.48L417.477 1049.59C417.313 1049.02 416.713 1048.68 416.138 1048.85C416.128 1048.85 416.118 1048.85 416.108 1048.86L411.543 1050.3C408.376 1048.83 406.156 1047.33 404.883 1045.82C403.85 1044.58 402.919 1042.46 402.093 1039.46L402.093 1039.46C401.776 1038.3 400.583 1037.63 399.429 1037.94C399.38 1037.96 399.331 1037.97 399.282 1037.99Z" fill="#E4E4E4"/>
<path fill-rule="evenodd" clip-rule="evenodd" d="M595.626 1095.57C594.414 1098.8 593.808 1101.22 593.808 1102.83C593.808 1104.78 594.134 1107.63 594.784 1111.38C597.05 1111.38 617.416 1111.38 655.88 1111.38C657.468 1106.13 656.551 1103.3 653.131 1102.88C649.71 1102.46 646.868 1102.08 644.606 1101.75L616.209 1089.09C615.663 1088.84 615.022 1089.09 614.779 1089.63C614.775 1089.64 614.771 1089.65 614.767 1089.66L612.941 1094.09C609.775 1095.57 607.202 1096.31 605.222 1096.31C603.613 1096.31 601.392 1095.66 598.558 1094.36L598.558 1094.36C597.47 1093.86 596.184 1094.34 595.685 1095.42C595.664 1095.47 595.644 1095.52 595.626 1095.57Z" fill="#E4E4E4"/>
<path fill-rule="evenodd" clip-rule="evenodd" d="M548.313 1089.02L615.261 1081.78L565.644 853.322H505.681L548.313 1089.02Z" fill="#69A1AC"/>
<path fill-rule="evenodd" clip-rule="evenodd" d="M414.491 1024.78L458.405 1076.56C504.659 1026.24 531.625 993.403 539.303 978.055C546.981 962.707 553.884 921.129 560.01 853.322H492.503C489.156 912.976 486.901 944.191 485.735 946.967C484.57 949.743 460.822 975.681 414.491 1024.78Z" fill="#89C5CC"/>
<path fill-rule="evenodd" clip-rule="evenodd" d="M595.487 828.467L633.899 847.332C643.565 848.182 651.819 849.906 658.662 852.502C660.358 853.571 662.6 855.945 656.452 856.55C650.304 857.156 643.864 858.068 643.39 860.274C642.916 862.481 647.021 864.296 645.819 867.372C645.018 869.423 638.87 865.719 627.376 856.26L591.227 848.297L595.487 828.467ZM464.988 852.363L487.296 848.519C481.327 895.162 478.033 919.933 477.413 922.832C476.018 929.354 482.876 937.704 485.989 942.292C479.284 946.815 477.944 934.681 469.516 940.548C461.823 945.903 456.689 954.054 445.963 949.818C444.644 949.297 442.855 946.776 445.627 944.071C452.531 937.331 462.19 925.964 463.174 922.609C464.516 918.035 465.121 894.619 464.988 852.363Z" fill="#B28B67"/>
<path fill-rule="evenodd" clip-rule="evenodd" d="M511.927 748.11L520.874 744.909C560.287 768.295 584.311 822.336 631.542 844.879L623.64 859.114C549.28 862.981 519.085 797.221 511.927 748.11Z" fill="#E87613"/>
<path fill-rule="evenodd" clip-rule="evenodd" d="M492.055 870.553C529.042 864.032 556.248 859.234 573.675 856.162C577.404 855.504 575.757 850.269 574.741 847.66C563.016 817.548 532.794 788.189 524.961 743.764L500.77 744.242C486.792 778.84 486.823 818.397 492.055 870.553Z" fill="#DDE3E9"/>
<path fill-rule="evenodd" clip-rule="evenodd" d="M476.775 780.058C473.183 779.683 470.073 777.879 467.445 774.647C456.115 760.714 457.723 751.659 466.426 747.242C475.129 742.824 484.345 747.138 498.997 744.554C499.794 744.414 500.533 744.335 501.213 744.317L508.657 743.436C542.377 811.02 556.599 857.571 551.321 883.088L487.08 894.415C484.831 903.918 482.499 911.991 480.084 918.634L462.579 921.72C451.586 869.006 456.318 821.786 476.775 780.058Z" fill="#FF9B21"/>
<path fill-rule="evenodd" clip-rule="evenodd" d="M494.611 855.324C499.597 871.789 505.034 883.418 510.92 890.212L487.08 894.415C489.703 883.33 492.214 870.3 494.611 855.324V855.324Z" fill="black" fill-opacity="0.1"/>
<g opacity="0.7">
<path fill-rule="evenodd" clip-rule="evenodd" d="M866.833 964.22C873.84 963.857 882.505 967.947 883.253 975.564C883.796 981.098 883.628 986.616 884.468 992.142C885.14 996.558 886.561 1000.8 888.5 1004.82C890.364 1008.69 894.23 1011.98 895.236 1016.11C895.877 1018.75 895.518 1022.45 894.634 1025.03C893.559 1028.16 894.131 1027.91 896.272 1030.54C900.469 1035.69 904.249 1040.97 906.921 1047.12C910.771 1055.98 913.295 1066.33 911.866 1076.03C911.684 1077.26 911.469 1081.68 909.773 1081.99C907.879 1082.33 908.765 1079.81 908.866 1078.99C909.51 1073.78 910.083 1069.23 909.305 1063.94C906.306 1043.53 891.663 1030.08 882.128 1012.75C881.604 1011.86 880.497 1009.73 879.728 1008.33C878.513 1006.11 877.292 1001.9 875.648 1000.25C872.551 997.159 875.398 1003.38 876.001 1004.57C876.764 1006.07 877.604 1007.67 878.386 1008.99C881.963 1015.09 885.956 1021.75 889.651 1028.04C873.672 1031.68 862.418 1012.47 858.13 999.844C854.597 989.439 850.37 965.111 866.833 964.22Z" fill="#69A1AC"/>
<path fill-rule="evenodd" clip-rule="evenodd" d="M960.748 944.897C949.035 945.827 941.515 953.556 938.014 964.367C936.127 970.193 935.911 976.178 934.863 982.165C933.285 991.173 929.892 997.999 923.26 1004.42C921.206 1006.4 919.692 1008.45 918.616 1010.63C916.48 1012.81 914.62 1015.28 913.254 1018.29C911.509 1022.14 911.015 1026.76 913.03 1030.6C913.572 1031.64 914.923 1033.71 916.324 1034.65C911.08 1045.82 908.197 1058.05 908.522 1070.27C908.718 1077.64 909.078 1085.02 909.498 1092.38C909.611 1094.36 910.255 1097.62 911.222 1094.31C912.108 1091.27 910.998 1086.51 910.895 1083.34C910.395 1067.9 909.968 1053.87 916.323 1039.44C916.99 1037.93 917.696 1036.43 918.432 1034.94C918.475 1034.92 918.515 1034.89 918.556 1034.86C918.584 1034.88 918.609 1034.9 918.638 1034.92C918.685 1034.84 918.749 1034.74 918.824 1034.63C919.035 1034.41 919.219 1034.14 919.395 1033.83C919.958 1033.05 920.596 1032.13 920.6 1031.63C920.6 1031.62 920.598 1031.62 920.598 1031.61C924.532 1025.19 929.038 1019.12 933.641 1013.17C933.607 1013.22 938.634 1006.37 937.856 1010.16C937.482 1011.98 933.784 1015.46 932.291 1017.39C928.987 1021.69 925.107 1027.13 921.883 1032.4C921.45 1032.65 920.837 1033.87 920.393 1034.78C920.149 1035.25 919.92 1035.71 919.696 1036.12C931.119 1039.89 940.005 1032.29 946.064 1023.45C946.072 1023.44 946.078 1023.43 946.085 1023.42C947.929 1020.97 949.818 1018.55 952.178 1016.62C956.115 1013.39 960.331 1012.82 964.973 1011.24C977.631 1006.91 983.013 990.507 984.723 978.334C986.651 964.601 977.218 943.543 960.748 944.897Z" fill="#89C5CC"/>
<path fill-rule="evenodd" clip-rule="evenodd" d="M937.61 906.44C925.587 918.952 919.779 936.307 915.18 952.622C910.044 970.845 906.651 989.348 906.521 1008.29C906.435 1020.74 906.097 1033.27 906.823 1045.7C907.081 1050.12 907.521 1054.54 908.221 1058.91C908.279 1059.27 909.844 1069.02 911.343 1066.75C912.195 1065.45 909.738 1056.63 909.552 1055.16C908.508 1046.88 908.265 1038.54 908.316 1030.2C908.4 1016.47 907.995 1002.81 909.386 989.133C909.594 987.091 909.758 984.946 910.243 982.948C910.758 980.824 910.102 981.751 911.78 980.91C913.41 980.092 915.425 980.209 917.116 979.184C923.826 975.115 927.258 964.665 929.929 957.808C932.985 949.967 934.841 941.605 936.325 933.353C937.414 927.29 938.192 921.264 938.633 915.123C938.772 913.188 938.78 911.164 939.16 909.261C939.263 908.748 939.777 907.84 939.758 907.385C939.719 906.423 939.138 905.857 939.091 905.049C938.587 905.502 938.093 905.966 937.61 906.44Z" fill="#89C5CC"/>
<path fill-rule="evenodd" clip-rule="evenodd" d="M872.056 1073.15C872.056 1093.84 888.831 1110.61 909.523 1110.61C930.216 1110.61 946.99 1093.84 946.99 1073.15" fill="#89C5CC"/>
<path fill-rule="evenodd" clip-rule="evenodd" d="M912.53 1073.27H910.55C910.687 1070.78 910.869 1068.3 911.284 1065.85C912.872 1056.45 917.838 1042.66 928.729 1041.13C929.131 1041.07 930.609 1041.06 932.399 1041.17C933.248 1040.7 934.198 1040.41 935.2 1040.34C944.473 1039.66 954.828 1047.14 959.301 1054.92C962.907 1061.2 962.3 1069.44 960.072 1076.11C958.581 1080.58 955.326 1086.94 949.898 1087C943.107 1087.08 942.779 1078.69 942.648 1073.78C942.473 1067.26 941.649 1061.57 936.509 1057.13C935.311 1056.09 934.001 1055.18 932.791 1054.16C930.896 1052.56 928.802 1050.92 928.558 1048.28C928.221 1044.63 930.281 1043.97 933.426 1044.65C933.962 1044.77 939.363 1047.19 938.563 1045.27C938.319 1044.69 937.428 1044.22 936.302 1043.88C933.39 1043.56 929.917 1043.19 928.918 1043.41C918.142 1045.78 913.946 1060.7 912.832 1070.19C912.712 1071.21 912.614 1072.24 912.53 1073.27V1073.27Z" fill="#69A1AC"/>
</g>
<defs>
<clipPath id="clip0_107_3672">
<rect width="926.295" height="376.2" fill="white" transform="translate(351.62 329.188)"/>
</clipPath>
</defs>
</svg>
