<svg width="1250" height="1100" viewBox="0 0 1250 1100" fill="none" xmlns="http://www.w3.org/2000/svg">
<g opacity="0.504511">
<path fill-rule="evenodd" clip-rule="evenodd" d="M999.556 770.632C1012.87 850.694 690.016 902.916 412.128 866.472C134.241 830.027 6.75955 687.709 139.363 611.876C271.966 536.042 986.244 690.57 999.556 770.632Z" fill="#F2F2F2"/>
</g>
<path fill-rule="evenodd" clip-rule="evenodd" d="M600.171 437.011C605.194 433.923 612.988 435.891 618.045 437.713C619.993 438.416 624.973 440.664 628.666 443.194C628.178 441.44 627.743 439.671 627.363 437.888C625.8 430.556 624.724 423.085 624.207 415.657C624.072 413.72 624.247 411.555 624.425 409.362L624.425 409.362C624.486 408.619 624.546 407.873 624.595 407.131C624.393 406.956 624.256 406.714 624.199 406.386C624.177 406.522 624.165 406.631 624.156 406.715C624.141 406.847 624.134 406.915 624.108 406.922C624.081 406.93 624.035 406.873 623.94 406.756C623.904 406.711 623.86 406.658 623.808 406.596C620.071 402.101 616.933 397.036 616.501 391.467C616.136 386.744 620.961 377.809 627.799 383.995C630.859 386.757 630.064 406.159 625.469 407.348C626.697 413.777 628.24 420.195 630.173 426.532C630.463 426.491 630.759 426.487 631.051 426.519C631.023 424.944 631.02 423.224 631.1 422.633C631.789 417.541 637.077 407.203 645.496 409.21C651.965 410.753 648 417.103 645.798 419.882C642.255 424.357 638.246 426.294 633.169 428.621C633.067 429.583 632.296 430.142 631.386 430.323C634.786 440.557 639.252 450.538 645.097 459.965L645.252 459.366C645.994 456.504 646.859 453.168 647.408 452.467C650.272 448.8 656.614 444.32 662.462 446.49C674.744 451.054 661.412 464.171 650.956 465.598C650.521 466.081 650.061 466.47 649.572 466.693C651.604 469.538 653.775 472.325 656.099 475.04C659.583 479.123 663.328 483.193 667.254 487.24C667.375 484.075 668.929 477.02 669.369 476.262C672.05 471.659 679.778 466.923 686.048 470.193C693.099 473.879 686.705 480.846 682.683 483.999C681.035 485.292 672.881 490.029 670.006 490.051C679.491 499.593 689.96 508.972 700.605 518.012C699.723 513.965 698.571 502.82 698.7 501.583C699.36 495.199 704.576 484.987 714.851 487.475C724.821 489.885 720.41 500.494 716.998 505.551C714.931 508.612 712.073 511.721 708.626 513.856C708.005 514.24 707.194 514.554 706.384 514.868C705.407 515.246 704.432 515.623 703.795 516.122C703.228 516.567 703.053 517.078 702.881 517.585C702.698 518.12 702.517 518.65 701.876 519.093C707.629 523.957 713.422 528.72 719.132 533.351C721.826 535.536 724.569 537.679 727.339 539.796C728.854 539.29 731.015 539.955 730.903 541.682C730.887 541.933 730.815 542.149 730.717 542.347C732.817 543.919 734.929 545.479 737.058 547.022C737.01 546.573 737.024 545.939 737.122 545.063C735.589 546.818 735.653 544.262 735.702 542.314C735.719 541.626 735.734 541.013 735.677 540.693C735.451 539.442 735.16 538.202 734.869 536.964L734.869 536.964C734.247 534.32 733.628 531.685 733.659 528.956C733.726 523.165 738.285 513.456 747.878 516.905C756.699 520.07 753.49 528.654 750.162 534.036C748.055 537.441 745.173 540.482 742.16 543.393C741.623 543.913 741.027 544.616 740.437 545.313L740.436 545.313C739.56 546.347 738.697 547.366 738.058 547.746C746.248 553.653 754.631 559.387 763.015 565.121L763.016 565.121L763.017 565.122C766.772 567.69 770.527 570.259 774.264 572.843C774.427 572.276 774.562 571.713 774.677 571.187C774.444 571.4 774.126 571.499 773.717 571.479C773.609 571.045 773.451 570.467 773.262 569.773L773.262 569.773C770.953 561.303 763.922 535.503 782.961 540.503C796.911 544.177 787.064 566.642 776.66 574.5C782.974 578.888 789.228 583.332 795.335 587.908C799.755 591.219 804.043 594.644 808.169 598.183C806.034 593.6 804.022 587.669 805.343 582.947C807.265 576.077 816.272 569.59 825.065 573.5C836.028 578.394 827.594 585.079 819.685 591.347C815.647 594.548 811.746 597.64 810.634 600.33C823.748 611.939 834.944 624.835 842.426 639.526C850.562 655.502 858.116 676.969 853.938 694.842C854.71 686.983 851.411 677.115 849.094 670.185L849.093 670.183C848.778 669.24 848.481 668.351 848.215 667.53C844.734 656.781 839.789 646.323 833.273 636.534C822.834 620.857 809.046 607.549 793.128 595.466C789.503 596.482 785.566 598.365 782.306 599.924C780.306 600.88 778.561 601.714 777.298 602.153C771.207 604.268 759.513 607.3 755.633 600.638C751.818 594.086 761.556 590.423 767.591 588.954C773.423 587.537 778.681 587.708 784.122 588.87C775.696 582.857 767.065 577.034 758.435 571.212C756.848 570.141 755.26 569.071 753.675 567.999C751.481 569.447 749.058 571.54 746.486 573.762L746.486 573.762C738.321 580.814 728.649 589.169 720.01 582.343C706.973 572.041 731.907 561.571 742.529 562.389C743.833 562.488 745.095 562.709 746.325 563.011C735.493 555.608 724.827 548.053 714.741 539.967C712.93 540.233 710.049 542.377 706.587 544.952C698.808 550.741 688.098 558.71 680.031 552.435C674.208 547.906 676.202 540.852 681.831 536.818C687.482 532.767 695.675 532.774 702.638 534.139C705.648 534.725 708.425 535.845 711.014 537.211C711.07 537.213 711.125 537.216 711.179 537.218L711.188 537.218C711.238 537.221 711.287 537.223 711.336 537.225C701.411 529.184 691.425 520.962 681.806 512.46C681.639 512.503 681.466 512.548 681.294 512.593C680.712 513.167 679.739 513.377 678.847 513.25C678.356 513.385 677.853 513.525 677.341 513.667C669.722 515.784 659.931 518.505 652.337 517.331C646.749 516.468 641.678 512.81 646.409 508.308C650.254 504.646 660.689 505.171 665.777 506.039C668.26 506.463 670.964 507.691 673.676 508.923C674.816 509.44 675.957 509.958 677.084 510.418C677.377 509.943 677.888 509.638 678.47 509.491C668.972 500.947 659.909 492.108 651.689 482.884C649.201 483.195 646.442 484.074 643.596 484.982C636.748 487.165 629.398 489.509 624.123 484.462C616.336 477.009 630.981 472.659 637.943 473.367C640.294 473.606 642.612 474.142 644.85 474.851C638.869 467.257 634.301 459.14 631.091 450.616C631.06 450.628 631.031 450.641 631.003 450.654C630.958 450.675 630.912 450.695 630.857 450.715C630.905 450.694 630.947 450.672 630.99 450.65L630.99 450.65C631.002 450.643 631.015 450.637 631.028 450.63C631.047 450.62 631.066 450.611 631.086 450.601C630.766 449.749 630.458 448.892 630.166 448.032C629.622 447.788 629.114 447.609 628.87 447.535C632.034 449.291 618.689 450.15 616.19 450.311C610.665 450.666 603.263 450.799 599.209 447.155C595.805 444.094 596.004 439.572 600.171 437.011ZM854.531 694.867C854.297 697.457 853.715 699.829 852.63 701.785C853.444 699.558 854.068 697.244 854.531 694.867Z" fill="#F2F2F2"/>
<path opacity="0.2" fill-rule="evenodd" clip-rule="evenodd" d="M349.311 271.596C345.645 269.365 339.954 270.79 336.261 272.109C334.838 272.618 331.201 274.245 328.503 276.075C328.86 274.807 329.179 273.528 329.457 272.238C330.602 266.936 331.391 261.533 331.772 256.162C331.871 254.761 331.744 253.196 331.615 251.61C331.572 251.073 331.528 250.534 331.493 249.997C331.64 249.87 331.74 249.695 331.782 249.458C331.798 249.557 331.806 249.636 331.813 249.696C331.824 249.791 331.829 249.84 331.848 249.846C331.867 249.852 331.901 249.811 331.971 249.726C331.998 249.693 332.029 249.655 332.067 249.61C334.798 246.359 337.092 242.695 337.409 238.668C337.678 235.253 334.159 228.793 329.164 233.268C326.928 235.267 327.5 249.296 330.854 250.154C329.955 254.803 328.825 259.445 327.41 264.027C327.199 263.998 326.983 263.995 326.77 264.018C326.791 262.879 326.794 261.636 326.735 261.209C326.235 257.527 322.379 250.053 316.231 251.507C311.507 252.624 314.399 257.215 316.005 259.224C318.591 262.458 321.517 263.858 325.222 265.539C325.296 266.234 325.859 266.638 326.523 266.769C324.037 274.17 320.771 281.389 316.499 288.207L316.386 287.774C315.845 285.705 315.215 283.293 314.815 282.786C312.725 280.135 308.097 276.898 303.826 278.469C294.857 281.773 304.584 291.253 312.218 292.282C312.536 292.631 312.871 292.912 313.228 293.073C311.744 295.132 310.157 297.147 308.459 299.111C305.913 302.065 303.177 305.009 300.309 307.936C300.222 305.647 299.091 300.547 298.769 299.999C296.814 296.671 291.174 293.249 286.594 295.615C281.444 298.283 286.109 303.319 289.044 305.598C290.247 306.532 296.198 309.955 298.298 309.97C291.368 316.872 283.72 323.657 275.944 330.197C276.59 327.271 277.436 319.212 277.342 318.317C276.863 313.701 273.059 306.318 265.556 308.121C258.276 309.866 261.491 317.536 263.98 321.192C265.488 323.404 267.573 325.652 270.089 327.195C270.542 327.472 271.135 327.699 271.726 327.926L271.726 327.926C272.439 328.199 273.15 328.471 273.615 328.832C274.029 329.154 274.156 329.523 274.282 329.889C274.415 330.276 274.547 330.66 275.015 330.98C270.812 334.499 266.581 337.944 262.409 341.294C260.441 342.875 258.438 344.426 256.414 345.957C255.308 345.592 253.73 346.073 253.811 347.322C253.823 347.503 253.875 347.66 253.946 347.803C252.413 348.94 250.869 350.069 249.314 351.185C249.35 350.86 249.34 350.402 249.269 349.769C250.387 351.037 250.342 349.189 250.307 347.78C250.294 347.283 250.284 346.84 250.326 346.609C250.491 345.703 250.704 344.807 250.917 343.912L250.917 343.912C251.372 342 251.826 340.094 251.805 338.121C251.758 333.933 248.434 326.914 241.428 329.411C234.986 331.702 237.325 337.909 239.753 341.799C241.289 344.261 243.392 346.459 245.591 348.563C245.983 348.938 246.418 349.447 246.848 349.95L246.849 349.951C247.488 350.698 248.118 351.435 248.584 351.709C242.601 355.983 236.478 360.131 230.354 364.28C227.611 366.139 224.867 367.997 222.137 369.867C222.018 369.457 221.92 369.05 221.836 368.67C222.007 368.824 222.239 368.895 222.537 368.881C222.616 368.567 222.731 368.149 222.87 367.647C224.559 361.521 229.705 342.864 215.802 346.485C205.615 349.146 212.794 365.387 220.386 371.066C215.775 374.241 211.207 377.456 206.745 380.767C203.517 383.163 200.384 385.64 197.37 388.201C198.931 384.886 200.402 380.597 199.44 377.183C198.04 372.216 191.467 367.528 185.045 370.357C177.038 373.9 183.193 378.731 188.964 383.261C191.911 385.574 194.759 387.809 195.569 389.754C185.989 398.152 177.808 407.481 172.339 418.106C166.39 429.661 160.866 445.185 163.908 458.108C163.348 452.426 165.761 445.289 167.456 440.277C167.686 439.595 167.904 438.952 168.099 438.357C170.645 430.584 174.261 423.02 179.023 415.94C186.652 404.601 196.725 394.973 208.353 386.231C210.999 386.965 213.873 388.325 216.253 389.452L216.253 389.452C217.712 390.143 218.986 390.745 219.908 391.062C224.355 392.59 232.891 394.779 235.728 389.96C238.516 385.222 231.408 382.575 227.002 381.515C222.744 380.493 218.905 380.618 214.932 381.459C221.087 377.108 227.392 372.895 233.696 368.683L233.715 368.67C234.868 367.9 236.02 367.13 237.172 366.359C238.773 367.405 240.541 368.917 242.418 370.523C248.376 375.621 255.435 381.659 261.746 376.721C271.269 369.268 253.069 361.704 245.312 362.298C244.36 362.371 243.439 362.531 242.541 362.749C250.453 357.393 258.244 351.927 265.612 346.077C266.934 346.269 269.037 347.818 271.563 349.68L271.563 349.68C277.241 353.863 285.057 359.622 290.95 355.083C295.203 351.806 293.751 346.705 289.643 343.79C285.519 340.863 279.537 340.87 274.452 341.859C272.254 342.284 270.225 343.095 268.334 344.083L268.215 344.088L268.1 344.093C275.35 338.276 282.645 332.328 289.672 326.177C289.794 326.208 289.92 326.24 290.046 326.273C290.47 326.688 291.181 326.839 291.832 326.747C292.191 326.845 292.558 326.946 292.932 327.049C298.493 328.577 305.641 330.542 311.186 329.691C315.267 329.065 318.971 326.418 315.519 323.164C312.713 320.517 305.094 320.901 301.378 321.529C299.565 321.836 297.591 322.725 295.609 323.617L295.609 323.617C294.777 323.991 293.944 324.367 293.12 324.699C292.907 324.356 292.534 324.135 292.109 324.029C299.048 317.848 305.669 311.454 311.675 304.782C313.491 305.006 315.506 305.641 317.583 306.296C322.582 307.873 327.948 309.566 331.801 305.914C337.491 300.523 326.799 297.382 321.716 297.896C319.999 298.07 318.307 298.458 316.672 298.971C321.043 293.478 324.382 287.608 326.729 281.443C326.757 281.454 326.781 281.465 326.807 281.476C326.82 281.482 326.833 281.488 326.847 281.493C326.863 281.5 326.881 281.507 326.9 281.514C326.878 281.504 326.857 281.494 326.837 281.484C326.826 281.479 326.814 281.473 326.803 281.467C326.78 281.455 326.758 281.444 326.733 281.432C326.967 280.816 327.192 280.196 327.406 279.574C327.803 279.398 328.174 279.268 328.352 279.214C326.042 280.485 335.785 281.102 337.61 281.218C341.644 281.473 347.048 281.567 350.009 278.931C352.496 276.716 352.353 273.447 349.311 271.596ZM163.303 457.598C163.482 459.324 164.011 460.899 165.053 462.19C164.288 460.715 163.714 459.178 163.303 457.598Z" fill="#C1DEE2"/>
<g opacity="0.7">
<path fill-rule="evenodd" clip-rule="evenodd" d="M848.822 634.77C862.474 634.062 879.359 642.031 880.815 656.871C881.873 667.653 881.546 678.405 883.183 689.172C884.492 697.776 887.261 706.036 891.038 713.874C894.67 721.411 902.203 727.827 904.162 735.879C905.411 741.01 904.712 748.227 902.99 753.245C900.896 759.347 902.009 758.865 906.182 763.985C914.359 774.018 921.723 784.307 926.93 796.29C934.43 813.55 939.348 833.725 936.564 852.618C936.21 855.017 935.79 863.627 932.486 864.229C928.796 864.902 930.522 859.978 930.719 858.387C931.974 848.238 933.09 839.367 931.575 829.059C925.732 789.288 897.201 763.085 878.623 729.331C877.602 727.59 875.446 723.445 873.947 720.711C871.58 716.393 869.201 708.179 865.997 704.977C859.963 698.947 865.511 711.071 866.686 713.385C868.173 716.313 869.808 719.425 871.332 721.99C878.302 733.882 886.082 746.862 893.28 759.121C862.147 766.214 840.221 728.785 831.866 704.178C824.982 683.905 816.746 636.505 848.822 634.77" fill="#69A1AC"/>
<path fill-rule="evenodd" clip-rule="evenodd" d="M1031.81 597.121C1008.98 598.932 994.331 613.992 987.511 635.056C983.835 646.407 983.413 658.068 981.37 669.734C978.298 687.284 971.686 700.585 958.764 713.089C954.762 716.961 951.812 720.937 949.716 725.191C945.554 729.438 941.931 734.244 939.269 740.12C935.869 747.624 934.907 756.628 938.832 764.109C939.888 766.121 942.521 770.158 945.25 771.992C935.033 793.752 929.415 817.584 930.048 841.386C930.431 855.753 931.132 870.127 931.951 884.477C932.171 888.33 933.426 894.693 935.31 888.231C937.035 882.32 934.872 873.041 934.672 866.867C933.698 836.786 932.866 809.435 945.248 781.331C946.547 778.385 947.924 775.463 949.357 772.565C949.442 772.516 949.52 772.457 949.599 772.4C949.653 772.442 949.703 772.487 949.758 772.529C949.849 772.365 949.975 772.171 950.121 771.954C950.532 771.529 950.891 770.993 951.233 770.395C952.331 768.873 953.574 767.084 953.581 766.105C953.581 766.098 953.577 766.086 953.577 766.078C961.242 753.565 970.022 741.742 978.99 730.149C978.923 730.234 988.718 716.897 987.204 724.272C986.474 727.827 979.269 734.595 976.359 738.36C969.922 746.735 962.363 757.348 956.082 767.61C955.237 768.096 954.043 770.48 953.179 772.257C952.702 773.157 952.257 774.064 951.82 774.855C974.077 782.208 991.39 767.396 1003.2 750.168C1003.21 750.147 1003.22 750.126 1003.24 750.106C1006.83 745.346 1010.51 740.619 1015.11 736.856C1022.78 730.576 1030.99 729.468 1040.04 726.378C1064.7 717.951 1075.19 685.987 1078.52 662.27C1082.27 635.513 1063.89 594.483 1031.81 597.121" fill="#89C5CC"/>
<path fill-rule="evenodd" clip-rule="evenodd" d="M986.723 522.19C963.299 546.569 951.982 580.383 943.022 612.172C933.014 647.676 926.403 683.728 926.149 720.642C925.983 744.895 925.323 769.299 926.739 793.523C927.241 802.126 928.099 810.744 929.462 819.255C929.575 819.955 932.626 838.958 935.545 834.53C937.205 832.011 932.417 814.817 932.056 811.953C930.021 795.822 929.548 779.573 929.647 763.325C929.81 736.575 929.021 709.961 931.733 683.309C932.137 679.33 932.457 675.151 933.402 671.258C934.406 667.119 933.127 668.926 936.396 667.287C939.573 665.694 943.498 665.922 946.794 663.924C959.866 655.997 966.553 635.635 971.758 622.275C977.711 606.997 981.329 590.706 984.219 574.628C986.341 562.816 987.858 551.075 988.716 539.11C988.987 535.339 989.003 531.396 989.744 527.688C989.944 526.688 990.945 524.918 990.909 524.033C990.832 522.158 989.701 521.056 989.608 519.481C988.627 520.363 987.665 521.267 986.723 522.19" fill="#89C5CC"/>
<path fill-rule="evenodd" clip-rule="evenodd" d="M859 847C859 887.317 891.683 920 932 920C972.317 920 1005 887.317 1005 847" fill="#89C5CC"/>
<path fill-rule="evenodd" clip-rule="evenodd" d="M982.028 783.085C1000.09 781.753 1020.27 796.329 1028.99 811.497C1036.01 823.726 1034.83 839.785 1030.49 852.778C1027.58 861.476 1021.24 873.878 1010.66 873.999C997.433 874.15 996.795 857.796 996.539 848.236C996.199 835.525 994.593 824.453 984.577 815.789C983.341 814.72 982.043 813.719 980.746 812.718C979.594 811.829 978.443 810.941 977.334 810.005C977.157 809.855 976.978 809.706 976.8 809.556C973.258 806.579 969.539 803.453 969.086 798.546C968.43 791.436 972.443 790.156 978.571 791.477C978.769 791.52 979.306 791.723 980.036 792C983.166 793.186 989.844 795.718 988.581 792.692C988.105 791.552 986.368 790.648 984.175 789.971C978.501 789.354 971.733 788.638 969.787 789.066C948.792 793.672 940.617 822.755 938.446 841.233C938.212 843.227 938.023 845.228 937.857 847.232H934C934.268 842.393 934.621 837.562 935.43 832.776C938.525 814.473 948.2 787.591 969.42 784.62C970.203 784.51 973.083 784.491 976.571 784.696C978.224 783.772 980.076 783.213 982.028 783.085Z" fill="#69A1AC"/>
</g>
<g opacity="0.5">
<path fill-rule="evenodd" clip-rule="evenodd" d="M207.223 501.445C211.425 495.453 219.224 480.235 225.138 478.094C228.948 476.715 227.837 490.98 227.884 493.7C228.067 504.224 227.043 514.681 225.778 525.116C223.498 543.937 216.045 560.697 205.822 576.715C200.562 584.957 194.391 593.3 185.845 598.442C181.912 600.811 177.179 601.207 173.294 603.248C168.769 605.623 171.233 603.703 169.194 608.417C166.363 614.963 165.457 623.408 164.147 630.392C158.132 662.455 143.568 831.945 146.093 864.558C146.317 867.449 142.287 868.14 142.085 864.611C141.016 845.9 150.27 716.322 154.94 673.947C159.609 631.571 164.334 594.135 169.071 579.474C174.819 561.687 185.199 540.298 193.84 523.711C197.854 516.006 202.229 508.565 207.223 501.445Z" fill="#69A1AC"/>
<path fill-rule="evenodd" clip-rule="evenodd" d="M238.414 709.278C249.349 701.25 261.186 716.401 251.29 724.43C245.82 728.868 240.101 727.29 236.882 723.591C234.792 726.139 232.836 728.803 230.956 731.052C225.229 737.909 219.817 744.928 214.644 752.111C203.898 767.035 194.689 782.801 185.06 798.278C175.558 813.554 166.132 828.908 157.519 844.571C150.223 857.841 140.498 873.452 138 888C141.79 857.146 156.172 827.49 173.298 800.291C190.285 773.314 209.779 743.853 236.081 722.564C233.404 718.627 233.33 713.008 238.414 709.278Z" fill="#C1DEE2"/>
<path fill-rule="evenodd" clip-rule="evenodd" d="M30.9132 634.031C37.0324 635.227 47.0312 649.07 52.0753 654.344C58.0699 660.612 63.5084 667.292 68.6349 674.292C79.6711 689.358 89.5411 705.376 97.9339 722.08C111.616 749.311 122.578 777.265 130.533 806.918C135.403 825.069 138.556 843.883 140.424 862.565C140.777 866.089 144.471 893.253 139.148 893.985C134.361 894.644 135.84 873.359 135.609 870.463C132.998 837.798 125.177 806.015 114.299 775.226C111.929 768.519 109.728 760.304 105.938 754.268C103.209 749.921 105.919 751.437 101.123 749.792C97.0049 748.378 92.3131 748.724 88.0963 746.993C78.9356 743.237 71.6006 735.944 65.1709 728.608C52.6758 714.351 42.774 698.928 37.6126 680.66C34.7495 670.532 32.1184 660.344 30.6583 649.902C30.2806 647.203 26.9718 633.26 30.9132 634.031Z" fill="#69A1AC"/>
<path fill-rule="evenodd" clip-rule="evenodd" d="M55.0614 403.716C78.1113 443.69 97.0528 487.601 109.283 532.076C116.694 559.023 121.876 586.675 127.025 614.126C134.997 656.632 142.538 699.134 144.683 742.395C146.841 785.906 151.108 836.092 136.861 878C143.978 835.452 137.202 790.162 136.002 747.35C135.429 726.912 133.768 706.674 131.588 686.355C129.473 666.645 126.018 647.029 122.801 627.474C121.234 617.95 119.588 608.441 117.912 598.937C117.411 596.101 117.2 587.687 115.401 585.75C113.591 583.8 104.354 583.005 101.454 581.574C95.6149 578.693 90.1221 574.6 85.2609 570.275C75.9418 561.984 67.8347 551.151 61.4359 540.472C46.6307 515.764 40.7116 485.61 41.0108 456.994C41.0682 451.438 50.0034 391.61 46.4149 390.786C46.631 390.533 46.8353 390.272 47.028 390C49.7448 394.549 52.4108 399.128 55.0614 403.716Z" fill="#89C5CC"/>
<path fill-rule="evenodd" clip-rule="evenodd" d="M303.846 547.887C304.202 547.374 306.517 543.807 305.351 544.035C307.724 543.57 302.087 547.969 308 545.27C305.192 547.922 306.813 551.366 306.85 554.935C306.911 560.73 305.942 566.476 304.851 572.146C303.126 581.109 300.557 589.823 296.828 598.159C288.701 616.326 274.901 633.814 258.518 645.172C250.43 650.779 242.504 652.689 233.28 655.27C227.453 656.901 226.991 659.915 223.898 665.569C217.46 677.345 211.136 689.078 205.457 701.251C198.677 715.788 192.095 730.34 185.886 745.132C164.969 794.957 147.945 846.578 139.005 900C138.786 868.519 146.069 836.095 155.255 806.088C161.947 784.226 170.658 763.151 179.95 742.29C182.201 737.236 185.613 730.735 186.57 725.155C187.239 721.245 185.192 717.486 184.255 713.367C180.601 697.33 180.863 679.363 184.071 663.24C187.609 645.461 197.839 637.209 215.145 634.691C221.474 633.769 229.519 634.107 235.322 631.408C241.645 628.47 244.253 618.81 247.849 612.61C257.506 595.953 268.98 579.979 282.155 565.945C285.803 562.059 289.726 558.473 293.888 555.15C296.513 553.053 302.058 550.47 303.846 547.887Z" fill="#89C5CC"/>
<path fill-rule="evenodd" clip-rule="evenodd" d="M104.845 871.729C104.4 868.71 106.74 866 109.791 866H171.209C174.26 866 176.6 868.71 176.155 871.729L171.408 903.918C169.961 913.73 161.541 921 151.622 921H129.378C119.459 921 111.039 913.73 109.592 903.918L104.845 871.729Z" fill="#C1DEE2"/>
</g>
<path fill-rule="evenodd" clip-rule="evenodd" d="M54.4177 882.456C54.4177 903.743 56.0976 921 78.6456 921C101.194 921 102.873 903.743 102.873 882.456" fill="#F2F2F2"/>
<path fill-rule="evenodd" clip-rule="evenodd" d="M85.3534 869.174C84.5269 870.603 83.79 872.061 83.139 873.54C83.116 870.493 83.2845 867.424 83.7446 864.313C84.531 858.983 85.7322 853.682 86.8609 848.388C87.6721 844.584 87.6208 837.752 90.6994 834.72C91.5436 834.065 91.7468 835.351 91.7468 835.908C91.7575 836.026 91.7445 833.632 90.9251 834.049C86.0544 836.564 84.4763 844.474 82.9169 848.434C80.6418 854.215 78.7061 860.124 77.909 866.138C77.7076 867.657 77.598 869.176 77.5727 870.692C77.4071 870.287 77.2516 869.878 77.0796 869.474C74.2684 862.881 70.4747 856.447 65.7431 850.514C64.5784 849.054 49.9342 834.649 48.7878 836.854C48.9009 837.174 49.1377 837.44 49.4988 837.651C49.52 837.675 49.5206 837.662 49.5083 837.626C50.3683 839.016 52.8137 841.161 53.5754 842.379C55.4923 845.442 56.9821 848.693 58.4961 851.882C61.6948 858.622 64.6621 865.429 67.5386 872.25C68.2084 873.839 68.9065 875.419 69.6187 876.994C62.2769 866.405 52.4826 856.791 39 851.287C43.6049 853.63 46.624 858.037 49.7339 861.412C53.4846 865.483 57.4351 869.444 61.1929 873.51C65.6253 878.307 70.8405 883.358 75.1038 888.666C79.2333 897.336 83.2462 906.015 85.7234 915.128C84.7084 911.98 85.6438 907.628 85.4701 904.324C85.3322 901.693 85.0247 899.084 84.6035 896.48C85.1243 897.655 85.5731 898.83 85.7764 899.924C85.5908 898.09 85.377 896.268 85.1472 894.455C85.7369 892.758 86.316 891.175 86.7072 889.87C88.7118 883.179 91.0988 876.602 94.3495 870.193C97.3574 864.264 100.808 858.41 104.567 852.735C106.321 850.089 108.099 847.453 109.866 844.812C111.022 843.083 112.123 840.316 113.733 838.659C103.326 848.174 91.956 857.757 85.3534 869.174" fill="#F2F2F2"/>
<path fill-rule="evenodd" clip-rule="evenodd" d="M1048.63 322.827C1045.65 312.876 1038.65 305.087 1031.37 297.951C1017.22 284.058 1009.61 275.468 1004.56 255.145C1001.6 243.193 998.575 230.527 989.165 221.856C982.313 215.541 970.521 210.236 961.358 214.758C947.261 223.172 943.475 240.438 944.897 255.9C946.659 275.063 955.61 286.88 972.807 293.938C982.497 297.913 988.938 303.158 994.198 312.298C998.405 319.607 1000.86 328.759 1006.15 335.384C1014.05 345.288 1023.94 349.691 1036.13 348.046C1024.71 327.035 1011.37 305.826 995.278 288.135C993.771 286.356 984.886 279.549 986.678 276.518C988.652 273.18 997.774 285.717 997.709 285.642C1002.39 291.01 1006.71 296.715 1010.96 302.475C1010.95 302.48 1010.94 302.483 1010.93 302.489C1015.3 308.399 1019.64 314.397 1023.9 320.469C1025.62 323.038 1027.3 325.639 1028.9 328.306C1031.26 332.219 1035 343.325 1038.85 345.731C1039.67 346.245 1040.44 346.533 1041.15 346.651C1043.78 350.956 1046.33 355.294 1048.77 359.685C1055.12 371.151 1060.57 383.257 1063.08 396.202C1063.81 399.98 1063.29 414.114 1065.87 416.841C1070.58 421.83 1069.2 412.223 1068.92 409.323C1066.58 385.31 1057.96 364.851 1045.44 344.663C1049.29 339.641 1049.84 326.859 1048.63 322.827" fill="#F2F2F2"/>
<path fill-rule="evenodd" clip-rule="evenodd" d="M887.131 334.43C892.102 328.573 904.052 327.579 911.361 327.971C920.404 328.456 929.694 330.658 938.298 333.32C952.471 337.704 966.244 345.706 978.727 353.451C980.231 354.384 998.764 365.529 997.124 367.485C995.498 369.423 977.305 356.184 973.25 353.902C964.597 349.032 956.662 343.272 947.124 340.055C937.249 336.724 926.805 335.405 916.42 335.496C915.087 335.508 910.74 334.579 910.646 336.551C910.554 338.479 917.748 337.473 919.016 337.485C924.255 337.533 929.527 338.026 934.691 338.934C944.368 340.635 953.465 344.061 961.753 349.317C959.44 354.694 953.897 357.173 948.081 355.828C943.055 354.664 938.156 351.795 933.234 350.966C929.845 350.395 926.451 350.735 923.164 351.69C914.494 354.209 909.494 359.371 899.961 355.78C892.489 352.966 879.991 342.853 887.131 334.43" fill="#F2F2F2"/>
<path fill-rule="evenodd" clip-rule="evenodd" d="M865.752 240.051C854.714 239.246 842.388 248.056 837.063 257.223C832.771 264.615 833.494 274.321 836.145 282.173C837.92 287.431 841.795 294.926 848.257 294.999C856.341 295.091 856.73 285.207 856.887 279.428C857.094 271.746 858.076 265.054 864.195 259.818C864.95 259.171 865.743 258.566 866.536 257.961C867.239 257.424 867.943 256.887 868.62 256.322C868.728 256.231 868.837 256.141 868.946 256.05C871.11 254.251 873.382 252.361 873.659 249.396C874.06 245.099 871.608 244.325 867.864 245.124C867.743 245.149 867.415 245.272 866.969 245.44C865.057 246.157 860.977 247.687 861.749 245.858C862.039 245.169 863.101 244.623 864.44 244.213C867.907 243.84 872.042 243.408 873.231 243.666C886.058 246.45 891.052 264.028 892.378 275.196C892.529 276.46 892.649 277.729 892.753 279H895.105C894.94 276.015 894.725 273.036 894.221 270.084C892.331 259.022 886.419 242.775 873.455 240.979C872.977 240.912 871.217 240.901 869.086 241.025C868.076 240.467 866.945 240.129 865.752 240.051Z" fill="#F2F2F2"/>
<path d="M154.5 219.673C177.972 219.673 197 209.6 197 197.173C197 184.747 177.972 174.673 154.5 174.673C131.028 174.673 112 184.747 112 197.173C112 209.6 131.028 219.673 154.5 219.673Z" fill="#F2F2F2"/>
<path fill-rule="evenodd" clip-rule="evenodd" d="M204 212.673C204 185.059 181.838 162.673 154.5 162.673C127.162 162.673 105 185.059 105 212.673" fill="#DDE3E9"/>
<path d="M157 10H152V170H157V10Z" fill="#DDE3E9"/>
<path d="M1129.23 517.071L1147.8 498.037C1150.92 494.836 1155.99 494.835 1159.11 498.035C1159.12 498.036 1159.12 498.037 1159.12 498.037L1208.55 548.701C1211.55 551.775 1213.23 555.943 1213.23 560.288V895.854" stroke="#CBCBCB" stroke-width="8"/>
<path d="M1239.23 894.829H1186.23C1184.58 894.829 1183.23 896.205 1183.23 897.903V898.927C1183.23 900.624 1184.58 902 1186.23 902H1239.23C1240.89 902 1242.23 900.624 1242.23 898.927V897.903C1242.23 896.205 1240.89 894.829 1239.23 894.829Z" fill="#AFB9C5"/>
<path fill-rule="evenodd" clip-rule="evenodd" d="M1140.4 505.904C1153.29 519.105 1153.29 540.509 1140.4 553.711L1120.6 573.993L1073.93 526.186L1093.73 505.904C1106.62 492.702 1127.51 492.702 1140.4 505.904Z" fill="#C5CFD6"/>
<path d="M1093.46 554.247C1106.35 567.449 1118.85 576.043 1121.39 573.442C1123.93 570.842 1115.54 558.032 1102.65 544.83C1089.77 531.629 1077.26 523.035 1074.72 525.635C1072.18 528.235 1080.57 541.045 1093.46 554.247Z" fill="#F2F2F2"/>
<path fill-rule="evenodd" clip-rule="evenodd" d="M460.773 511.137C466.582 524.941 476.457 534.531 481.687 548.884C484.789 557.396 486.081 566.651 486.16 576.129C486.202 581.277 486.113 586.429 486.089 591.577C486.065 596.598 485.929 601.587 485.503 606.575C485.074 611.59 484.595 616.545 484.383 621.591C484.219 625.523 484.144 630.096 482.811 633.682C481.751 636.534 479.058 636.952 478.343 633.493C477.946 631.57 477.996 629.423 478.04 627.447C478.096 624.912 478.243 622.38 478.318 619.845C478.621 609.672 478.229 599.498 478.434 589.322C478.634 579.379 479.912 569.447 478.498 559.57C477.33 551.414 474.363 544.411 470.954 537.696C467.674 531.237 464.104 524.934 461.887 517.586C461.251 515.476 460.759 513.289 460.522 511.02C460.626 510.972 460.709 511.011 460.773 511.137Z" fill="#C1DEE2"/>
<path fill-rule="evenodd" clip-rule="evenodd" d="M459.19 538.37C460.34 539.2 460.983 540.415 461.76 541.614C462.727 543.105 463.864 544.45 464.831 545.942C466.846 549.052 468.617 552.352 470.454 555.588C473.942 561.73 476.591 568.276 477.903 575.381C479.262 582.745 479.629 590.345 480.199 597.819C480.804 605.74 481.413 613.718 481.493 621.67C481.529 625.232 481.722 629.014 481.294 632.551C481.028 634.753 480.034 636.63 477.794 636.612C473.034 636.575 470.8 631.303 469.867 626.98C468.493 620.615 468.218 613.853 468.436 607.343C468.699 599.493 470.061 591.761 470.651 583.942C471.275 575.664 470.922 567.532 468.077 559.738C466.639 555.799 464.97 551.955 463.472 548.042C462.834 546.377 462.311 544.665 461.449 543.114C460.49 541.389 459.3 539.822 458.55 537.964C458.763 538.099 458.977 538.234 459.19 538.37Z" fill="#89C5CC"/>
<path fill-rule="evenodd" clip-rule="evenodd" d="M514.012 521.863C514.158 521.75 514.304 521.636 514.45 521.522C514.03 523.293 513.271 524.732 512.691 526.351C512.169 527.806 511.905 529.453 511.553 531.043C510.728 534.779 509.775 538.431 508.995 542.199C507.453 549.655 507.745 557.687 508.756 565.959C509.712 573.773 511.223 581.575 511.943 589.387C512.54 595.866 512.796 602.547 512.227 608.729C511.84 612.927 510.572 617.939 507.116 617.515C505.489 617.316 504.641 615.358 504.299 613.147C503.75 609.597 503.635 605.864 503.421 602.334C502.943 594.454 502.848 586.598 502.753 578.8C502.664 571.441 502.418 563.937 502.91 556.765C503.384 549.843 504.867 543.606 506.988 537.852C508.105 534.82 509.169 531.718 510.424 528.828C511.026 527.442 511.761 526.217 512.363 524.832C512.847 523.718 513.233 522.575 514.012 521.863Z" fill="#C1DEE2"/>
<path fill-rule="evenodd" clip-rule="evenodd" d="M460.66 561.18C461.289 560.124 462.674 563.608 462.885 564.046C462.796 563.828 462.706 563.611 462.616 563.393C463.865 565.47 465.008 567.633 465.719 570.014C466.422 572.372 467.026 574.777 467.685 577.152C468.923 581.607 470.52 585.935 471.641 590.43C472.734 594.811 473.01 599.117 472.745 603.648C472.47 608.357 472.302 613.138 472.623 617.844C472.776 620.092 473.506 622.186 474.007 624.35C474.508 626.516 474.903 628.711 475.496 630.851C475.632 630.572 475.649 631.504 475.649 631.574C475.645 632.109 475.57 632.557 475.398 633.064C474.956 634.367 474.13 635.474 472.872 635.834C470.599 636.483 468.488 634.415 467.755 632.232C466.704 629.099 466.124 625.637 465.623 622.344C465.163 619.325 465.055 616.287 465.191 613.226C465.46 607.189 466.553 601.232 466.848 595.197C467.17 588.627 465.868 582.454 464.778 576.059C464.253 572.977 463.751 569.925 462.73 566.989C462.316 565.8 461.777 564.751 461.211 563.653C460.89 563.028 460.239 561.914 460.66 561.18Z" fill="#C1DEE2"/>
<path fill-rule="evenodd" clip-rule="evenodd" d="M479.103 550.918C478.842 558.445 478.392 565.914 477.389 573.362C476.365 580.962 475.188 588.536 474.203 596.143C473.244 603.547 472.238 611.075 472.372 618.583C472.471 624.113 471.554 633.468 477.696 636.198C483.917 638.962 485.251 627.158 485.66 623.262C486.442 615.786 486.189 608.233 485.809 600.717C485.419 593.003 484.768 585.328 483.961 577.643C483.065 569.106 482.362 560.53 481.797 551.969C481.518 547.735 481.449 543.507 481.526 539.271C481.599 535.275 481.447 531.236 480.026 527.441C479.952 527.495 479.878 527.549 479.803 527.603" fill="#69A1AC"/>
<path fill-rule="evenodd" clip-rule="evenodd" d="M511.217 574.763C510.098 576.393 508.97 578.007 507.914 579.733C506.023 582.822 504.314 586.257 503.8 590.673C502.724 599.916 503.587 609.898 503.795 619.423C503.838 621.37 503.592 623.258 504.359 625.11C505.055 626.79 506.355 628.07 507.595 628.063C510.249 628.048 509.844 621.549 509.848 618.689C509.856 613.675 509.294 608.611 509.342 603.602C509.391 598.64 509.692 593.664 510.412 588.951C511.14 584.181 512.207 579.6 513.615 575.325C513.81 574.732 515.212 570.148 513.887 570.938" fill="#89C5CC"/>
<path fill-rule="evenodd" clip-rule="evenodd" d="M499.497 525.469C497.752 525.469 497.763 534.167 497.71 535.284C497.521 539.316 497.565 543.349 497.445 547.381C497.183 556.182 496.86 565.059 495.539 573.758C494.827 578.441 494.002 583.103 493.114 587.75C492.224 592.411 491.029 597.066 490.444 601.785C489.882 606.323 490.199 610.949 490.276 615.509C490.353 620.096 490.492 624.692 491.093 629.239C491.241 630.361 491.415 631.479 491.601 632.595C491.756 633.525 491.666 634.678 491.928 635.561C492.348 636.976 494.151 637.439 495.364 637.218C498.647 636.618 500.745 632.496 501.866 629.483C503.299 625.637 504.059 621.465 504.809 617.412C505.658 612.819 506.156 608.157 506.39 603.482C506.865 593.98 506.255 584.468 505.575 574.997C505.196 569.729 504.759 564.485 504.09 559.25C503.423 554.038 502.568 548.849 502.012 543.621C501.607 539.822 501.209 536.017 500.947 532.204C500.884 531.294 500.831 525.469 499.497 525.469Z" fill="#69A1AC"/>
<path fill-rule="evenodd" clip-rule="evenodd" d="M497.312 588.695C497.028 579.563 493.357 539.45 492.522 528.406C492.313 525.642 490.302 514.134 490.041 511C489.334 511.886 489.395 525.672 489.402 528.84C489.411 531.973 489.022 535.055 488.822 538.171C488.618 541.352 483.917 582.422 483.307 585.478C482.093 591.557 481.281 597.795 480.654 604.011C480.044 610.069 479.095 616.461 479.911 622.551C480.099 623.953 480.396 625.332 480.88 626.62C481.403 628.012 481.761 629.299 482.18 630.755C482.855 633.1 484.076 635.159 485.953 636.127C489.8 638.113 491.865 633.618 492.912 629.705C494.585 623.456 495.658 617.105 496.161 610.542C496.718 603.281 497.54 596.006 497.312 588.695Z" fill="#89C5CC"/>
<path d="M515.108 615.568H457.892C457.166 615.568 456.577 616.157 456.577 616.883V674.099C456.577 674.826 457.166 675.414 457.892 675.414H515.108C515.835 675.414 516.424 674.826 516.424 674.099V616.883C516.424 616.157 515.835 615.568 515.108 615.568Z" fill="white"/>
<path d="M455.261 622.144H451.315C450.589 622.144 450 622.733 450 623.459V695.144C450 695.87 450.589 696.459 451.315 696.459H455.261C455.988 696.459 456.577 695.87 456.577 695.144V623.459C456.577 622.733 455.988 622.144 455.261 622.144Z" fill="#C5CFD6"/>
<path d="M488.144 622.144H484.198C483.472 622.144 482.883 622.733 482.883 623.459V695.144C482.883 695.87 483.472 696.459 484.198 696.459H488.144C488.871 696.459 489.459 695.87 489.459 695.144V623.459C489.459 622.733 488.871 622.144 488.144 622.144Z" fill="#C5CFD6"/>
<path d="M521.685 622.144H517.739C517.012 622.144 516.423 622.733 516.423 623.459V695.144C516.423 695.87 517.012 696.459 517.739 696.459H521.685C522.411 696.459 523 695.87 523 695.144V623.459C523 622.733 522.411 622.144 521.685 622.144Z" fill="#C5CFD6"/>
<path fill-rule="evenodd" clip-rule="evenodd" d="M556 223C585.271 223 609 199.271 609 170C609 140.729 585.271 117 556 117C526.729 117 503 140.729 503 170C503 199.271 526.729 223 556 223Z" fill="#F2F2F2"/>
<path fill-rule="evenodd" clip-rule="evenodd" d="M556 131C557.657 131 559 129.657 559 128C559 126.343 557.657 125 556 125C554.343 125 553 126.343 553 128C553 129.657 554.343 131 556 131Z" fill="black" fill-opacity="0.1"/>
<path fill-rule="evenodd" clip-rule="evenodd" d="M514 173C515.657 173 517 171.657 517 170C517 168.343 515.657 167 514 167C512.343 167 511 168.343 511 170C511 171.657 512.343 173 514 173Z" fill="black" fill-opacity="0.1"/>
<path fill-rule="evenodd" clip-rule="evenodd" d="M598 173C599.657 173 601 171.657 601 170C601 168.343 599.657 167 598 167C596.343 167 595 168.343 595 170C595 171.657 596.343 173 598 173Z" fill="black" fill-opacity="0.1"/>
<path fill-rule="evenodd" clip-rule="evenodd" d="M556 215C557.657 215 559 213.657 559 212C559 210.343 557.657 209 556 209C554.343 209 553 210.343 553 212C553 213.657 554.343 215 556 215Z" fill="black" fill-opacity="0.1"/>
<path fill-rule="evenodd" clip-rule="evenodd" d="M556 134L558 169H554L556 134Z" fill="#AFB9C5"/>
<path fill-rule="evenodd" clip-rule="evenodd" d="M573.699 187.698L555.314 172.142L558.142 169.314L573.699 187.698Z" fill="#AFB9C5"/>
<path fill-rule="evenodd" clip-rule="evenodd" d="M567 201C569.209 201 571 199.209 571 197C571 194.791 569.209 193 567 193C564.791 193 563 194.791 563 197C563 199.209 564.791 201 567 201Z" fill="#C5CFD6"/>
<path fill-rule="evenodd" clip-rule="evenodd" d="M800.459 685.337C806.449 678.306 810.504 669.689 809.826 660.033C807.874 632.212 769.147 638.333 761.614 652.374C754.08 666.416 754.976 702.033 764.712 704.542C768.594 705.543 776.866 703.092 785.284 698.018L780 735.4H811.2L800.459 685.337Z" fill="#B28B67"/>
<path fill-rule="evenodd" clip-rule="evenodd" d="M768.644 643.115C769.359 642.688 770.854 641.789 771.612 641.463C771.791 641.384 773.046 640.489 773.08 640.5C774.03 640.821 776.782 642.004 777.018 643.027C777.054 643.105 777.09 643.177 777.125 643.241C777.515 643.95 777.873 644.676 778.214 645.411C778.963 647.025 779.61 648.712 780.227 650.386C781.43 653.645 782.474 656.98 783.435 660.323C784.413 663.726 785.243 667.169 786.172 670.586C787.509 675.503 789.22 680.299 790.548 685.214C791.396 688.353 791.868 691.528 791.645 694.758C791.643 694.797 791.642 694.835 791.638 694.875C791.637 694.891 791.635 694.907 791.633 694.923C791.595 695.419 791.541 695.917 791.469 696.416C791.406 696.843 791.343 697.272 791.276 697.7C790.063 695.281 789.137 692.617 788.155 690.087C788.058 689.84 787.967 689.59 787.877 689.34C787.56 688.827 787.237 688.318 786.911 687.81C784.85 684.611 782.782 681.423 780.807 678.166C777.253 672.308 773.733 666.326 769.521 660.946C768.277 659.358 767.004 657.794 765.775 656.192C765.077 655.281 764.396 654.354 763.737 653.411C763.266 652.736 761.219 650.386 761.96 648.973C762.339 648.251 766.791 644.222 768.644 643.115Z" fill="#2C2C2C"/>
<path fill-rule="evenodd" clip-rule="evenodd" d="M771.386 641.581C770.691 641.814 771.029 640.368 771.702 639.859C774.821 637.501 786.744 636.646 797.119 638.8C804.069 640.242 812.153 643.834 817.704 648.45C822.709 652.612 826.151 659.284 827.923 665.73C829.783 672.499 830.065 679.555 829.028 686.496C828.801 688.02 828.311 689.473 828.039 690.966C827.732 692.646 827.574 694.264 827.027 695.899C826.692 696.9 826.122 697.881 825.836 698.888C825.51 700.037 825.709 701.099 825.947 702.268C826.335 704.172 826.816 706.072 827.499 707.891C828.526 710.622 829.772 713.18 830.553 716.014C831.592 719.784 835.939 732.055 832.762 735.4H772.288C773.811 731.246 778.382 726.358 779.307 721.911C779.852 719.292 780.111 713.571 780.168 713.363C781.531 703.969 784.192 699.483 785.859 697.855C787.525 696.227 789.745 695.726 789.859 694.314C790.332 688.473 788.009 682.877 786.306 677.426C784.277 670.929 782.789 664.271 780.696 657.796C779.77 654.928 774.995 640.368 771.386 641.581Z" fill="#8991DC"/>
<path fill-rule="evenodd" clip-rule="evenodd" d="M792.589 648.3C794.87 655.536 795.36 659.398 794.87 669.285H795.988C798.078 659.955 796.218 651.172 793.995 648.3H792.589ZM823.183 666.974C818.934 677.285 816.996 683.375 805.129 691.719L806.045 692.361C817.826 685.684 821.257 677.72 824.077 667.403L823.183 666.974ZM805.723 656.48C803.792 671.116 803.229 679.477 793.174 695.487L794.243 695.814C804.592 681.874 806.232 670.496 806.721 656.56L805.723 656.48ZM816.83 699.957L815.914 698.845C803.425 702.757 804.816 710.833 789.085 719.012L790.4 719.809C804.174 714.124 807.394 701.932 816.83 699.957Z" fill="black" fill-opacity="0.2"/>
<path fill-rule="evenodd" clip-rule="evenodd" d="M867.591 897.9H767.16L754 1059.1H903.5L867.591 897.9Z" fill="#C5CFD6"/>
<path fill-rule="evenodd" clip-rule="evenodd" d="M867.591 897.9H836.702L818.215 1059.1H903.5L867.591 897.9Z" fill="black" fill-opacity="0.1"/>
<path fill-rule="evenodd" clip-rule="evenodd" d="M652.661 870.283C641.953 863.853 623.988 872.114 624 881.31C624.037 908.824 649.146 1038.5 650.457 1046.69C651.768 1054.89 665.812 1057.06 666.63 1046.72C667.931 1030.27 670.349 973.343 667.93 946.991C666.932 936.114 665.856 925.755 664.798 916.513C677.973 940.307 698.351 974.374 725.929 1018.71L740.9 1011.87C729.144 973.139 719.503 945.793 711.979 929.836C699.097 902.515 687.017 879.117 681.933 870.876C673.936 857.912 660.016 862.435 652.661 870.283Z" fill="#B28B67"/>
<path fill-rule="evenodd" clip-rule="evenodd" d="M739.83 990.363L688.444 868.634C676.134 848.831 641.62 872.663 645.818 884.148C655.349 910.223 703.82 994.639 706.66 1002.41L739.83 990.363Z" fill="#1F28CF"/>
<path fill-rule="evenodd" clip-rule="evenodd" d="M742.684 1004.2C745.885 1006.83 747.967 1008.98 748.931 1010.65C750.103 1012.68 751.475 1015.84 753.047 1020.13C750.692 1021.49 729.526 1033.71 689.548 1056.79C684.749 1052.29 684.001 1048.79 687.305 1046.3C690.609 1043.82 693.336 1041.72 695.485 1040.01L717.402 1009.81C717.824 1009.23 718.637 1009.1 719.218 1009.52C719.228 1009.53 719.238 1009.54 719.247 1009.55L723.801 1013.05C727.979 1012.69 731.097 1011.91 733.155 1010.72C734.826 1009.76 736.745 1007.75 738.911 1004.7L738.911 1004.7C739.743 1003.53 741.366 1003.25 742.537 1004.08C742.587 1004.12 742.636 1004.16 742.684 1004.2Z" fill="#E4E4E4"/>
<path fill-rule="evenodd" clip-rule="evenodd" d="M669.919 1040.12C671.373 1044.01 672.1 1046.91 672.1 1048.84C672.1 1051.18 671.71 1054.6 670.928 1059.1C668.209 1059.1 643.768 1059.1 597.606 1059.1C595.701 1052.8 596.801 1049.4 600.906 1048.9C605.011 1048.4 608.421 1047.94 611.137 1047.54L645.216 1032.34C645.872 1032.05 646.64 1032.35 646.933 1033C646.938 1033.01 646.943 1033.03 646.947 1033.04L649.138 1038.35C652.938 1040.12 656.026 1041.01 658.402 1041.01C660.333 1041.01 662.999 1040.23 666.4 1038.67L666.4 1038.67C667.706 1038.07 669.249 1038.65 669.847 1039.95C669.873 1040.01 669.897 1040.06 669.919 1040.12Z" fill="#E4E4E4"/>
<path fill-rule="evenodd" clip-rule="evenodd" d="M620.398 890.663C620.398 925.2 636.8 1005.76 636.811 1013.37L672.1 1013.39C666.935 941.509 665.103 905.18 666.605 904.406C668.858 903.244 758.971 913.403 785.998 913.403C824.97 913.403 841.092 888.827 842.4 843.3H765.198C749.479 844.982 667.486 861.52 637.036 867.205C624 869.639 620.398 881.149 620.398 890.663Z" fill="#2B44FF"/>
<path fill-rule="evenodd" clip-rule="evenodd" d="M700.059 826.998L663.233 862.924C652.518 867.495 643.738 872.541 636.894 878.064C635.355 879.921 633.68 883.478 640.921 881.886C648.162 880.295 655.851 878.946 657.212 881.301C658.573 883.656 654.562 887.264 657.078 890.346C658.754 892.401 664.394 885.866 673.996 870.74L712.29 848.162L700.059 826.998ZM880.139 794.485L851.673 794.591C873.354 864.835 884.863 901.614 886.2 904.927C889.208 912.382 882.842 923.736 880.12 929.837C888.986 933.805 888.041 919.112 899.226 924.315C909.434 929.065 917.2 937.67 928.994 930.393C930.444 929.498 932.033 926.129 928.194 923.497C918.629 916.938 904.845 905.459 902.983 901.681C900.443 896.528 892.828 860.796 880.139 794.485Z" fill="#B28B67"/>
<path fill-rule="evenodd" clip-rule="evenodd" d="M793.396 713.732L782.155 711.804C764.447 774.401 673.461 817.07 667.876 840.47C665.828 849.052 672.004 853.39 668.814 856.004L683.425 866.7C685.899 863.813 691.179 869.094 702.206 865.4C713.233 861.706 793.396 787.852 793.396 713.732Z" fill="#DB2721"/>
<path fill-rule="evenodd" clip-rule="evenodd" d="M774.487 722.054C775.783 804.928 727.875 826.068 738.547 859.314C747.359 886.768 831.704 916.28 846.3 889.369C852.208 878.476 854.889 865.301 855.193 850.977C858.923 861.982 861.873 871.455 864.044 879.398C867.787 893.1 882.302 895.278 882.302 900.556L901.424 895.278C900.127 888.107 909.142 884.615 906.725 868.594C895.895 796.811 866.797 744.778 819.43 712.495L818.94 705.487C818.739 702.622 816.255 700.462 813.39 700.663L778.375 703.111C775.51 703.312 773.35 705.796 773.551 708.661L774.487 722.054Z" fill="#FF4133"/>
<path fill-rule="evenodd" clip-rule="evenodd" d="M253.415 681.38C247.487 674.421 243.474 665.893 244.145 656.337C246.077 628.804 284.404 634.861 291.859 648.757C299.315 662.654 298.429 697.903 288.793 700.387C284.951 701.377 276.765 698.951 268.433 693.929L273.663 730.925H242.785L253.415 681.38Z" fill="#915B3C"/>
<path fill-rule="evenodd" clip-rule="evenodd" d="M251.043 687.578C247.167 670.336 236.127 658.584 237.813 650.877C238.937 645.74 241.933 642.545 246.801 641.293C249.319 631.108 257.439 626.776 271.161 628.296C291.745 630.578 304.308 639.126 298.883 657.936C293.895 657.936 287.875 656.132 279.55 659.222C276.908 660.203 275.019 663.243 273.882 668.344H270.119C266.468 662.291 262.868 660.067 259.319 661.671C255.769 663.275 254.963 667.173 256.898 673.363L255.045 687.578H251.043Z" fill="#191847"/>
<path fill-rule="evenodd" clip-rule="evenodd" d="M156.585 891.746H304.54C315.909 891.746 325.125 900.963 325.125 912.331V1030.7C325.125 1042.06 315.909 1051.28 304.54 1051.28H156.585C145.216 1051.28 136 1042.06 136 1030.7V912.331C136 900.963 145.216 891.746 156.585 891.746ZM177.17 927.77C174.328 927.77 172.024 930.074 172.024 932.916V1010.11C172.024 1012.95 174.328 1015.26 177.17 1015.26H283.955C286.797 1015.26 289.101 1012.95 289.101 1010.11V932.916C289.101 930.074 286.797 927.77 283.955 927.77H177.17Z" fill="#C5CFD6"/>
<path fill-rule="evenodd" clip-rule="evenodd" d="M452.7 1044.85C427.334 1013.87 410.171 990.909 401.211 975.957C385.868 950.355 373.311 927.575 369.349 918.873C359.899 898.121 391.103 888.404 398.165 898.084C408.854 912.733 431.681 958.832 466.648 1036.38L452.7 1044.85Z" fill="#B28B67"/>
<path fill-rule="evenodd" clip-rule="evenodd" d="M400.721 1035.84L353.514 917.01C343.417 895.348 392.176 881.109 399.596 891.19C416.442 914.077 456.482 1004.36 461.502 1011.18L400.721 1035.84Z" fill="#2F3676"/>
<path fill-rule="evenodd" clip-rule="evenodd" d="M274.992 1012.01C284.188 998.597 317.636 953.468 335.854 934.796C341.089 929.43 346.198 924.28 351.029 919.481C365.39 905.216 393.987 929.193 379.653 942.186C343.955 974.543 291.869 1018.22 287.517 1022.12C281.418 1027.58 269.213 1020.44 274.992 1012.01Z" fill="#915B3C"/>
<path fill-rule="evenodd" clip-rule="evenodd" d="M277.142 1005.95C273.974 1008.56 271.914 1010.69 270.96 1012.34C269.8 1014.35 268.442 1017.48 266.886 1021.72C269.217 1023.06 290.164 1035.16 329.729 1058C334.479 1053.54 335.219 1050.08 331.949 1047.62C328.679 1045.16 325.981 1043.08 323.854 1041.39L302.163 1011.51C301.745 1010.93 300.941 1010.81 300.366 1011.22C300.356 1011.23 300.346 1011.24 300.337 1011.24L295.83 1014.72C291.695 1014.35 288.61 1013.59 286.573 1012.41C284.919 1011.46 283.019 1009.47 280.876 1006.45L280.876 1006.45C280.053 1005.29 278.447 1005.02 277.288 1005.84C277.238 1005.88 277.189 1005.91 277.142 1005.95Z" fill="#E4E4E4"/>
<path fill-rule="evenodd" clip-rule="evenodd" d="M441.789 1040.22C440.35 1044.06 439.63 1046.94 439.63 1048.84C439.63 1051.16 440.016 1054.55 440.789 1059C443.481 1059 467.669 1059 513.354 1059C515.24 1052.77 514.151 1049.4 510.089 1048.9C506.026 1048.41 502.651 1047.96 499.963 1047.56L466.236 1032.52C465.587 1032.23 464.826 1032.52 464.537 1033.17C464.532 1033.18 464.527 1033.19 464.523 1033.21L462.355 1038.46C458.594 1040.22 455.537 1041.1 453.186 1041.1C451.276 1041.1 448.637 1040.33 445.271 1038.78L445.271 1038.78C443.979 1038.19 442.452 1038.76 441.859 1040.05C441.834 1040.1 441.81 1040.16 441.789 1040.22Z" fill="#E4E4E4"/>
<path fill-rule="evenodd" clip-rule="evenodd" d="M336.527 922.946C297.291 916.554 271.01 912.183 257.684 909.833C219.701 903.136 208.624 882.696 215.173 838.099H285.157C294.418 840.774 333.115 857.315 401.248 887.722C413.507 893.807 411.224 911.749 408.983 917.66C408.892 917.902 388.226 953.312 346.987 1023.89L289.737 987.423L336.634 927.243C337.873 924.749 337.837 923.316 336.527 922.946Z" fill="#5C63AB"/>
<path fill-rule="evenodd" clip-rule="evenodd" d="M341.569 821.257L382.609 851.393C393.739 854.397 403.039 858.134 410.507 862.604C412.271 864.211 414.403 867.467 407.087 866.904C399.771 866.341 392.05 866.079 391.041 868.574C390.031 871.069 394.458 874.054 392.418 877.42C391.057 879.665 384.63 874.037 373.137 860.536L332.497 843.683L341.569 821.257ZM183.999 822.297L210.885 822.403C194.284 875.993 185.322 904.428 183.999 907.707C181.022 915.085 187.322 926.321 190.016 932.36C181.242 936.286 182.176 921.745 171.108 926.895C161.005 931.595 153.319 940.112 141.647 932.909C140.212 932.024 138.639 928.69 142.439 926.084C151.905 919.594 165.546 908.233 167.39 904.494C169.903 899.395 175.44 871.996 183.999 822.297Z" fill="#915B3C"/>
<path fill-rule="evenodd" clip-rule="evenodd" d="M260.405 709.481L271.53 707.573C312.807 743.231 329.761 811.733 380.357 848.022L368.179 863.117C280.405 852.249 258.649 768.692 260.405 709.481Z" fill="#E87613"/>
<path fill-rule="evenodd" clip-rule="evenodd" d="M211.907 849.29C256.515 849.29 289.327 849.29 310.345 849.29C314.843 849.29 313.995 842.794 313.345 839.517C305.84 801.691 276.546 760.917 276.546 707.073L248.152 702.621C224.667 740.392 216.545 786.897 211.907 849.29Z" fill="#DDE3E9"/>
<path fill-rule="evenodd" clip-rule="evenodd" d="M212.698 739.749C208.575 738.563 205.309 735.798 202.901 731.454C192.523 712.728 196.271 702.418 207.362 699.029C218.453 695.64 228.344 702.621 246.014 702.621C246.976 702.621 247.856 702.681 248.655 702.802L257.544 703.309C283.047 789.741 290.08 847.407 278.645 876.307H201.167C196.576 887.012 192.184 896.017 187.989 903.325H166.878C164.891 839.083 180.164 784.558 212.698 739.749Z" fill="#FF9B21"/>
<path fill-rule="evenodd" clip-rule="evenodd" d="M218.038 831.918C220.475 852.305 224.435 867.102 229.919 876.308H201.167C206.522 863.822 212.145 849.025 218.038 831.918V831.918Z" fill="black" fill-opacity="0.1"/>
</svg>
