<svg width="1634" height="1169" viewBox="0 0 1634 1169" fill="none" xmlns="http://www.w3.org/2000/svg">
<rect width="1634" height="1169" fill="white"/>
<path fill-rule="evenodd" clip-rule="evenodd" d="M1191.93 235.837C1191.29 235.369 1189.76 235.203 1189.05 235.063C1186.1 234.48 1183.06 234.227 1180.05 234.227C1170.76 234.24 1161.33 235.152 1152.2 236.73C1146.4 237.732 1139.39 241.103 1133.63 239.272C1123.58 236.082 1113.43 236.239 1103.9 240.793C1095.19 244.958 1088.57 252.867 1084.71 261.413C1084.13 262.703 1081.77 267.451 1081.1 270.652C1080.81 271.306 1080.54 271.965 1080.29 272.634C1079.59 274.533 1078.95 276.465 1078.37 278.401C1078.12 279.227 1077.49 281.05 1078.24 281.403C1077.04 283.608 1075.98 285.881 1075.1 288.227C1072.54 295.051 1069.73 302.536 1068.83 309.768C1068.5 312.446 1068.49 315.139 1068.8 317.823C1068.95 319.149 1068.89 321.816 1069.78 322.824C1071.69 324.964 1072.67 321.968 1072.46 320.542C1070.81 309.668 1073.98 299.456 1077.74 289.235C1080.17 282.625 1084.16 276.578 1088.64 271.102C1092.26 266.669 1096.14 263.179 1101.1 260.24C1107.17 256.646 1113.65 253.741 1120.08 250.826C1124.31 248.909 1128.54 247.043 1132.88 245.39C1133.85 245.023 1135.37 244.08 1136.44 244.077C1138.71 244.068 1141.92 245.741 1144.1 246.363C1151.3 248.41 1158.59 251.032 1166.03 252.077C1170.8 252.748 1175.27 251.993 1179.73 250.402C1180.19 250.24 1180.95 249.823 1181.89 249.226C1185.2 247.951 1188.33 246.347 1191.06 244.032C1192.64 242.698 1194.06 240.974 1195.36 239.397C1195.75 238.925 1195.92 238.384 1195.93 237.871C1196.22 237.716 1196.42 237.537 1196.46 237.326C1196.79 235.774 1193.83 235.745 1191.93 235.837Z" fill="#89C5CC"/>
<path fill-rule="evenodd" clip-rule="evenodd" d="M437.769 365.273C435.948 366.749 434.161 368.257 432.419 369.825C431.09 371.02 428.74 372.451 428.263 374.262C427.767 376.143 429.332 377.905 430.568 379.043C437.105 385.06 444.466 389.128 453.524 389.804C467.472 390.846 479.61 387.283 491.711 380.271C500.212 375.346 505.843 368.06 507.072 358.222C517.196 362.432 526.987 368.234 535.307 375.355C539.412 378.869 542.948 382.762 546.219 387.076C548.313 389.841 550.34 392.649 552.22 395.566C553.037 396.833 553.868 399.081 555.218 399.81C556.802 400.668 558.716 399.324 558.638 397.562C558.573 396.095 556.99 394.394 556.25 393.195C555.02 391.204 553.773 389.226 552.458 387.289C550.332 384.155 548.135 381.064 545.738 378.13C540.352 371.539 533.499 366.094 526.394 361.451C512.765 352.543 497.808 346.932 481.224 346.456C471.027 346.164 462.449 349.649 453.729 354.855C448.3 358.095 442.696 361.282 437.769 365.273Z" fill="#DDE3E9"/>
<path fill-rule="evenodd" clip-rule="evenodd" d="M570.041 322.189C559.415 311.24 548.752 300.427 536.88 290.786C529.883 285.105 522.509 279.94 515.288 274.553C516.121 275.283 516.938 276.035 517.736 276.804C515.482 275.273 512.531 274.408 510.141 272.991C507.475 271.41 504.927 269.602 502.428 267.78C497.549 264.223 492.743 260.599 487.729 257.227C482.141 253.472 476.35 250.001 470.668 246.387C465.845 243.32 460.964 239.962 455.804 237.455C452.992 236.088 450.174 234.468 447.35 233.043C446.405 232.566 436.817 226.508 436.841 226.49C437.371 226.09 442.196 228.359 442.942 228.664C445.122 229.555 447.206 230.62 449.302 231.682C448.152 229.412 447.241 227.027 446.746 224.517C446.592 223.742 445.366 218.101 445.993 217.628C446.307 217.391 449.366 227.484 449.523 228.454C449.65 229.243 449.631 230.378 449.889 231.124C450.306 232.329 450.285 231.965 451.202 232.644C452.883 233.889 455.114 234.667 456.934 235.707C457.915 236.255 460.952 238.428 462.782 239.047C468.318 241.738 473.929 245.876 479.189 249.312C477.809 246.716 476.758 244.002 475.992 241.158C475.81 240.483 473.844 234.425 474.321 234.065C474.858 233.661 478.604 242.913 478.826 243.788C479.238 245.415 479.323 247.226 479.839 248.809C480.406 250.547 482.173 251.163 483.767 252.175C489.628 255.902 495.289 259.861 500.855 264.002C506.928 253.195 499.925 240.145 494.023 231.078C489.769 224.544 484.042 218.941 477.995 214.05C469.925 207.522 460.692 202.307 451.47 197.537C440.725 191.979 429.111 188.536 417.037 186.945C410.722 186.112 404.261 186.136 397.883 186.403C394.767 186.533 391.776 186.946 388.79 187.962C387.444 188.421 386.143 188.999 384.875 189.647C383.912 190.139 381.582 190.658 381.029 191.391C376.47 197.327 374.138 203.242 374.495 210.701C374.831 217.762 377.06 224.826 380.085 231.124C383.454 238.137 387.786 244.503 393.452 249.845C397.776 253.921 402.609 257.468 407.41 260.969C424.487 273.421 446.138 284.25 468.255 281.468C475.415 280.568 482.224 278.063 488.588 274.659C490.087 273.856 491.578 273.045 492.993 272.098C493.948 271.46 496.499 268.583 497.459 268.478C498.774 268.335 501.609 271.012 502.843 271.827C512.224 278.023 521.359 284.554 530.303 291.35C539.819 298.58 548.868 306.301 557.65 314.386C561.385 317.825 565.097 321.272 568.724 324.826C569.568 325.653 571.633 328.698 573.164 328.836C574.132 328.923 574.785 328.096 574.647 327.2C574.407 325.641 571.129 323.31 570.041 322.189Z" fill="#C1DEE2"/>
<path fill-rule="evenodd" clip-rule="evenodd" d="M1180.78 279.695C1176.66 278.795 1172.12 278.864 1167.92 278.938C1145.44 279.244 1123.36 289.896 1108.99 306.915C1096.75 321.403 1093.39 339.417 1090.97 357.626C1090.73 359.434 1090.63 361.231 1090.49 363.042C1090.46 363.431 1090.42 363.778 1090.37 364.104C1089.42 364.955 1088.93 365.946 1089.49 367.035C1087.39 371.619 1085.62 376.32 1084.1 381.168C1079.63 395.439 1075.08 409.982 1077.88 424.988C1078.54 416.73 1079.91 408.285 1081.56 400.163C1081.66 399.696 1081.76 399.234 1081.87 398.773C1081.88 398.724 1081.89 398.676 1081.9 398.627C1082.48 396.14 1083.24 393.727 1084.16 391.352C1084.17 391.326 1084.18 391.301 1084.19 391.275C1084.31 390.962 1084.44 390.652 1084.57 390.341C1084.83 389.697 1085.1 389.055 1085.39 388.416C1085.49 388.198 1085.58 387.978 1085.67 387.757C1087.01 384.466 1087.58 380.757 1088.78 377.352C1089.07 376.578 1089.37 375.806 1089.69 375.039C1089.71 374.994 1089.72 374.949 1089.74 374.904C1090.59 372.839 1091.54 370.8 1092.53 368.781C1093.07 368.375 1093.36 367.366 1093.83 366.45C1093.92 366.269 1094.68 365.065 1094.9 364.371C1095.49 363.237 1096.07 362.103 1096.66 360.971C1096.64 360.977 1096.63 360.984 1096.61 360.991C1097.2 359.904 1097.79 358.821 1098.38 357.744C1098.51 357.507 1098.64 357.27 1098.77 357.032C1098.98 356.654 1099.19 356.277 1099.4 355.9C1101.37 352.373 1103.46 348.917 1105.63 345.504C1106.4 344.286 1108.25 342.54 1108.6 341.172C1108.62 341.121 1108.62 341.074 1108.63 341.025C1113.33 334.412 1118.75 328.312 1125.25 323.479C1124.46 324.328 1122.8 327.211 1122.35 327.781C1121 329.529 1119.54 331.155 1118.07 332.802C1115.43 335.751 1112.86 338.794 1110.57 342.012C1106.39 347.896 1102.78 354.089 1099.37 360.406C1099.34 360.443 1099.3 360.479 1099.27 360.516C1097.56 362.63 1096.48 365.825 1095.24 368.244C1100.13 365.981 1105.53 364.507 1110.54 362.498C1115.53 360.495 1120.4 358.264 1125.09 355.645C1131.33 352.163 1137.8 348.233 1143.69 343.785C1150.45 339.593 1156.12 333.823 1161.13 327.768C1167.06 320.604 1172.5 313.378 1175.86 304.679C1177.51 300.405 1178.8 295.948 1179.57 291.438C1179.61 291.242 1179.65 291.029 1179.7 290.807C1180.48 289.25 1181.19 287.658 1181.78 286.029C1182.72 283.445 1184.93 280.603 1180.78 279.695Z" fill="#69A1AC"/>
<path fill-rule="evenodd" clip-rule="evenodd" d="M483.306 309.962C482.017 308.565 480.568 307.305 478.868 306.406C478.438 306.179 475.236 304.657 475.027 304.991C474.541 305.769 482.919 309.516 483.306 309.962ZM498.489 300.631C498.478 300.69 499.589 302.575 499.891 303.154C500.534 304.387 501.128 305.643 501.687 306.901C500.86 304.678 500.01 302.617 498.489 300.631ZM420.84 315.975C419.771 316.319 418.485 314.961 419.872 314.627C420.995 314.358 420.94 314.295 421.444 313.391C421.853 312.656 422.105 311.76 422.464 310.989C423.226 309.355 424.09 307.795 425.15 306.335C427.423 303.203 430.193 300.504 433.299 298.23C438.72 294.262 444.798 290.634 451.245 288.812C461.497 285.915 473.165 285.736 483.432 287.745C489.791 288.989 495.603 291.151 499.825 296.274C501.936 298.834 503.592 301.833 504.317 305.136C504.506 305.999 504.47 306.959 504.707 307.804C505.071 309.103 504.91 308.758 506.429 309.01C508.088 309.286 509.745 309.568 511.402 309.855C515.74 310.605 520.103 311.402 524.33 312.621C525.722 313.022 527.082 313.511 528.411 314.081C529.417 314.511 533.42 315.861 533.906 317.168C534.716 319.342 532.003 318.357 531.16 317.883C530.421 317.468 529.663 317.081 528.894 316.725C526.957 315.828 524.94 315.135 522.876 314.583C520.647 313.986 518.371 313.541 516.105 313.095C513.991 312.679 511.869 312.301 509.745 311.939C508.565 311.738 507.383 311.543 506.202 311.348C505.799 311.281 505.087 310.932 505.141 311.457C502.658 310.978 499.972 311.047 497.443 310.915C494.345 310.753 491.235 310.621 488.126 310.718C485.884 310.788 483.641 310.935 481.41 311.236C480.107 311.412 478.824 311.67 477.545 311.996C476.843 312.175 474.073 312.556 473.69 313.168C473.855 312.905 476.912 313.16 477.301 313.145C478.857 313.087 480.401 312.933 481.952 312.759C484.829 312.438 487.708 312.27 490.595 312.294C490.584 312.801 488.612 313.704 488.131 314.04C487.051 314.794 486.018 315.616 485.054 316.517C483.355 318.105 481.321 320.072 480.146 321.953C480.492 321.399 482.2 320.677 482.807 320.254C483.778 319.575 484.729 318.851 485.629 318.077C486.46 317.362 487.236 316.59 487.999 315.801C488.761 315.012 489.796 313.372 490.798 312.846C490.859 312.814 491.295 313.16 491.543 313.042C491.793 312.924 492.105 312.333 492.169 312.309C493.101 311.949 494.873 312.396 495.853 312.442C498.396 312.559 500.937 312.713 503.478 312.852C504.266 312.896 504.934 312.717 505.232 313.298C505.549 313.917 504.968 315.546 504.803 316.221C504.19 318.728 503.102 320.975 501.389 322.917C498.181 326.555 494.225 328.98 489.756 330.602C472.639 336.815 454.428 339.303 437.316 332.84C430.232 330.164 419.563 325.383 420.84 315.975Z" fill="#89C5CC"/>
<g opacity="0.6">
<path fill-rule="evenodd" clip-rule="evenodd" d="M1204.59 608.69C1216.23 687.559 933.823 739.002 690.747 703.101C447.67 667.2 336.158 527.002 452.15 452.299C568.142 377.595 1192.94 529.821 1204.59 608.69Z" fill="#DDE3E9"/>
</g>
<path d="M707.753 91.7588H535.186C529.855 91.7588 525.532 96.0832 525.532 101.418V446.721C525.532 452.055 529.855 456.379 535.186 456.379H707.753C713.084 456.379 717.407 452.055 717.407 446.721V101.418C717.407 96.0832 713.084 91.7588 707.753 91.7588Z" fill="#F2F2F2"/>
<path d="M620.866 433.44C630.863 433.44 638.968 425.332 638.968 415.33C638.968 405.327 630.863 397.219 620.866 397.219C610.869 397.219 602.765 405.327 602.765 415.33C602.765 425.332 610.869 433.44 620.866 433.44Z" fill="white"/>
<path d="M605.178 115.906C606.511 115.906 607.592 114.825 607.592 113.491C607.592 112.158 606.511 111.077 605.178 111.077C603.845 111.077 602.765 112.158 602.765 113.491C602.765 114.825 603.845 115.906 605.178 115.906Z" fill="white"/>
<path d="M636.554 111.077H616.039C614.706 111.077 613.626 112.158 613.626 113.491C613.626 114.825 614.706 115.906 616.039 115.906H636.554C637.887 115.906 638.968 114.825 638.968 113.491C638.968 112.158 637.887 111.077 636.554 111.077Z" fill="white"/>
<path d="M695.685 125.564H547.254C544.588 125.564 542.427 127.727 542.427 130.394V185.932C542.427 188.599 544.588 190.762 547.254 190.762H695.685C698.351 190.762 700.512 188.599 700.512 185.932V130.394C700.512 127.727 698.351 125.564 695.685 125.564Z" fill="white"/>
<path d="M673.963 145.124H593.111C591.111 145.124 589.491 146.745 589.491 148.746V151.281C589.491 153.281 591.111 154.903 593.111 154.903H673.963C675.963 154.903 677.584 153.281 677.584 151.281V148.746C677.584 146.745 675.963 145.124 673.963 145.124Z" fill="#DDE3E9"/>
<path d="M645.001 161.423H593.111C591.111 161.423 589.491 163.045 589.491 165.045V167.58C589.491 169.581 591.111 171.202 593.111 171.202H645.001C647.001 171.202 648.622 169.581 648.622 167.58V165.045C648.622 163.045 647.001 161.423 645.001 161.423Z" fill="#DDE3E9"/>
<path d="M567.769 172.651C575.767 172.651 582.25 166.165 582.25 158.163C582.25 150.161 575.767 143.675 567.769 143.675C559.771 143.675 553.288 150.161 553.288 158.163C553.288 166.165 559.771 172.651 567.769 172.651Z" fill="#C5CFD6"/>
<path d="M695.685 200.42H547.254C544.588 200.42 542.427 202.583 542.427 205.25V246.3C542.427 248.967 544.588 251.129 547.254 251.129H695.685C698.351 251.129 700.512 248.967 700.512 246.3V205.25C700.512 202.583 698.351 200.42 695.685 200.42Z" fill="white"/>
<path d="M673.963 215.633H593.111C591.111 215.633 589.491 217.255 589.491 219.255V219.618C589.491 221.618 591.111 223.24 593.111 223.24H673.963C675.963 223.24 677.584 221.618 677.584 219.618V219.255C677.584 217.255 675.963 215.633 673.963 215.633Z" fill="#DDE3E9"/>
<path d="M645.001 228.311H593.111C591.111 228.311 589.491 229.932 589.491 231.933V232.295C589.491 234.295 591.111 235.917 593.111 235.917H645.001C647.001 235.917 648.622 234.295 648.622 232.295V231.933C648.622 229.932 647.001 228.311 645.001 228.311Z" fill="#DDE3E9"/>
<path d="M567.769 240.263C575.767 240.263 582.25 233.776 582.25 225.775C582.25 217.773 575.767 211.287 567.769 211.287C559.771 211.287 553.288 217.773 553.288 225.775C553.288 233.776 559.771 240.263 567.769 240.263Z" fill="#C5CFD6"/>
<path d="M695.685 260.788H547.254C544.588 260.788 542.427 262.95 542.427 265.617V306.667C542.427 309.335 544.588 311.497 547.254 311.497H695.685C698.351 311.497 700.512 309.335 700.512 306.667V265.617C700.512 262.95 698.351 260.788 695.685 260.788Z" fill="white"/>
<path d="M673.963 276.001H593.111C591.111 276.001 589.491 277.623 589.491 279.623V279.985C589.491 281.986 591.111 283.607 593.111 283.607H673.963C675.963 283.607 677.584 281.986 677.584 279.985V279.623C677.584 277.623 675.963 276.001 673.963 276.001Z" fill="#DDE3E9"/>
<path d="M645.001 288.678H593.111C591.111 288.678 589.491 290.3 589.491 292.3V292.662C589.491 294.663 591.111 296.285 593.111 296.285H645.001C647.001 296.285 648.622 294.663 648.622 292.662V292.3C648.622 290.3 647.001 288.678 645.001 288.678Z" fill="#DDE3E9"/>
<path d="M567.769 300.631C575.767 300.631 582.25 294.144 582.25 286.143C582.25 278.141 575.767 271.654 567.769 271.654C559.771 271.654 553.288 278.141 553.288 286.143C553.288 294.144 559.771 300.631 567.769 300.631Z" fill="#AFB9C5"/>
<path d="M695.685 321.156H547.254C544.588 321.156 542.427 323.318 542.427 325.985V367.035C542.427 369.702 544.588 371.865 547.254 371.865H695.685C698.351 371.865 700.512 369.702 700.512 367.035V325.985C700.512 323.318 698.351 321.156 695.685 321.156Z" fill="white"/>
<path d="M673.963 336.369H593.111C591.111 336.369 589.491 337.99 589.491 339.991V340.353C589.491 342.353 591.111 343.975 593.111 343.975H673.963C675.963 343.975 677.584 342.353 677.584 340.353V339.991C677.584 337.99 675.963 336.369 673.963 336.369Z" fill="#DDE3E9"/>
<path d="M645.001 349.046H593.111C591.111 349.046 589.491 350.668 589.491 352.668V353.03C589.491 355.031 591.111 356.652 593.111 356.652H645.001C647.001 356.652 648.622 355.031 648.622 353.03V352.668C648.622 350.668 647.001 349.046 645.001 349.046Z" fill="#DDE3E9"/>
<path d="M567.769 360.998C575.767 360.998 582.25 354.512 582.25 346.51C582.25 338.509 575.767 332.022 567.769 332.022C559.771 332.022 553.288 338.509 553.288 346.51C553.288 354.512 559.771 360.998 567.769 360.998Z" fill="#C5CFD6"/>
<path fill-rule="evenodd" clip-rule="evenodd" d="M561.904 386.353C560.305 386.353 558.711 386.385 557.115 386.468C555.897 386.532 554.037 386.279 553.008 387.038C551.938 387.827 552.011 389.441 552.178 390.58C553.062 396.607 555.219 401.951 559.731 406.221C566.677 412.795 574.641 416.136 584.065 417.624C590.685 418.669 596.796 417.218 601.669 412.508C605.23 419.119 607.931 426.436 609.286 433.82C609.955 437.464 610.159 441.064 610.041 444.774C609.966 447.15 609.835 449.521 609.58 451.887C609.47 452.914 608.946 454.47 609.348 455.441C609.82 456.582 611.412 456.692 612.126 455.72C612.721 454.91 612.611 453.321 612.734 452.363C612.936 450.771 613.124 449.179 613.258 447.58C613.476 444.993 613.637 442.398 613.625 439.801C613.598 433.965 612.301 428.107 610.527 422.567C607.124 411.939 601.602 402.494 593.015 395.084C587.735 390.527 581.691 388.682 574.835 387.691C570.567 387.074 566.228 386.353 561.904 386.353Z" fill="#89C5CC"/>
<path fill-rule="evenodd" clip-rule="evenodd" d="M586.56 428.61C569.304 428.61 557.683 442.524 552.188 456.985C550.117 462.436 549.631 468.421 548.833 474.145C548.577 475.982 548.672 478.781 547.926 480.417C547.656 481.01 547.036 481.224 547.332 482.032C547.512 482.522 547.864 482.821 548.393 482.919C549.478 483.119 551.013 481.936 551.943 481.469C559.662 477.596 564.733 471.608 568.87 464.281C571.434 459.74 574.036 455.026 575.56 450.041C576.49 446.995 577.032 443.788 577.35 440.628C577.475 439.384 577.597 438.11 577.589 436.858C577.582 435.617 577.004 434.96 576.589 433.879C582.347 431.698 588.846 431.104 594.678 433.364C600.072 435.454 604.553 439.492 607.062 444.566C607.714 445.885 608.217 447.276 608.583 448.695C608.823 449.625 608.834 450.831 609.278 451.671C610.356 453.708 612.622 452.346 612.404 450.45C611.798 445.16 608.773 439.849 604.907 436.171C600.031 431.533 593.422 428.61 586.56 428.61Z" fill="#89C5CC"/>
<path d="M787.399 123.15H614.832C609.501 123.15 605.178 127.474 605.178 132.809V478.112C605.178 483.446 609.501 487.771 614.832 487.771H787.399C792.73 487.771 797.053 483.446 797.053 478.112V132.809C797.053 127.474 792.73 123.15 787.399 123.15Z" fill="#DDE3E9"/>
<path d="M700.512 464.831C710.509 464.831 718.613 456.723 718.613 446.721C718.613 436.719 710.509 428.61 700.512 428.61C690.515 428.61 682.411 436.719 682.411 446.721C682.411 456.723 690.515 464.831 700.512 464.831Z" fill="white"/>
<path d="M684.824 147.297C686.157 147.297 687.238 146.216 687.238 144.882C687.238 143.549 686.157 142.468 684.824 142.468C683.491 142.468 682.411 143.549 682.411 144.882C682.411 146.216 683.491 147.297 684.824 147.297Z" fill="white"/>
<path d="M716.2 142.468H695.685C694.352 142.468 693.272 143.549 693.272 144.882C693.272 146.216 694.352 147.297 695.685 147.297H716.2C717.533 147.297 718.613 146.216 718.613 144.882C718.613 143.549 717.533 142.468 716.2 142.468Z" fill="white"/>
<path d="M775.331 156.956H626.9C624.234 156.956 622.073 159.118 622.073 161.785V217.323C622.073 219.99 624.234 222.153 626.9 222.153H775.331C777.997 222.153 780.158 219.99 780.158 217.323V161.785C780.158 159.118 777.997 156.956 775.331 156.956Z" fill="white"/>
<path d="M717.407 176.515H636.554C634.555 176.515 632.934 178.136 632.934 180.137V182.672C632.934 184.673 634.555 186.294 636.554 186.294H717.407C719.406 186.294 721.027 184.673 721.027 182.672V180.137C721.027 178.136 719.406 176.515 717.407 176.515Z" fill="#DDE3E9"/>
<path d="M688.445 192.814H636.554C634.555 192.814 632.934 194.436 632.934 196.436V198.971C632.934 200.972 634.555 202.594 636.554 202.594H688.445C690.444 202.594 692.065 200.972 692.065 198.971V196.436C692.065 194.436 690.444 192.814 688.445 192.814Z" fill="#DDE3E9"/>
<path d="M763.263 198.005C767.929 198.005 771.711 194.222 771.711 189.554C771.711 184.886 767.929 181.103 763.263 181.103C758.598 181.103 754.816 184.886 754.816 189.554C754.816 194.222 758.598 198.005 763.263 198.005Z" fill="#DDE3E9"/>
<path d="M763.263 193.176C765.263 193.176 766.884 191.555 766.884 189.554C766.884 187.554 765.263 185.932 763.263 185.932C761.264 185.932 759.643 187.554 759.643 189.554C759.643 191.555 761.264 193.176 763.263 193.176Z" fill="#F2F2F2"/>
<path d="M775.331 231.812H626.9C624.234 231.812 622.073 233.974 622.073 236.641V277.691C622.073 280.358 624.234 282.52 626.9 282.52H775.331C777.997 282.52 780.158 280.358 780.158 277.691V236.641C780.158 233.974 777.997 231.812 775.331 231.812Z" fill="white"/>
<path d="M753.609 247.024H672.757C670.757 247.024 669.136 248.646 669.136 250.646V251.009C669.136 253.009 670.757 254.631 672.757 254.631H753.609C755.609 254.631 757.23 253.009 757.23 251.009V250.646C757.23 248.646 755.609 247.024 753.609 247.024Z" fill="#DDE3E9"/>
<path d="M724.647 259.702H672.757C670.757 259.702 669.136 261.323 669.136 263.324V263.686C669.136 265.686 670.757 267.308 672.757 267.308H724.647C726.647 267.308 728.268 265.686 728.268 263.686V263.324C728.268 261.323 726.647 259.702 724.647 259.702Z" fill="#DDE3E9"/>
<path d="M647.415 271.654C655.413 271.654 661.896 265.168 661.896 257.166C661.896 249.164 655.413 242.678 647.415 242.678C639.417 242.678 632.934 249.164 632.934 257.166C632.934 265.168 639.417 271.654 647.415 271.654Z" fill="#C5CFD6"/>
<path d="M775.331 292.179H626.9C624.234 292.179 622.073 294.341 622.073 297.009V338.059C622.073 340.726 624.234 342.888 626.9 342.888H775.331C777.997 342.888 780.158 340.726 780.158 338.059V297.009C780.158 294.341 777.997 292.179 775.331 292.179Z" fill="white"/>
<path d="M717.407 307.392H636.554C634.555 307.392 632.934 309.014 632.934 311.014V311.376C632.934 313.377 634.555 314.998 636.554 314.998H717.407C719.406 314.998 721.027 313.377 721.027 311.376V311.014C721.027 309.014 719.406 307.392 717.407 307.392Z" fill="#DDE3E9"/>
<path d="M688.445 320.069H636.554C634.555 320.069 632.934 321.691 632.934 323.691V324.054C632.934 326.054 634.555 327.676 636.554 327.676H688.445C690.444 327.676 692.065 326.054 692.065 324.054V323.691C692.065 321.691 690.444 320.069 688.445 320.069Z" fill="#AFB9C5"/>
<path d="M763.263 325.985C767.929 325.985 771.711 322.201 771.711 317.534C771.711 312.866 767.929 309.082 763.263 309.082C758.598 309.082 754.816 312.866 754.816 317.534C754.816 322.201 758.598 325.985 763.263 325.985Z" fill="#DDE3E9"/>
<path d="M763.263 321.156C765.263 321.156 766.884 319.534 766.884 317.534C766.884 315.533 765.263 313.912 763.263 313.912C761.264 313.912 759.643 315.533 759.643 317.534C759.643 319.534 761.264 321.156 763.263 321.156Z" fill="#F2F2F2"/>
<path d="M775.331 352.547H626.9C624.234 352.547 622.073 354.709 622.073 357.376V398.426C622.073 401.093 624.234 403.256 626.9 403.256H775.331C777.997 403.256 780.158 401.093 780.158 398.426V357.376C780.158 354.709 777.997 352.547 775.331 352.547Z" fill="white"/>
<path d="M753.609 367.76H672.757C670.757 367.76 669.136 369.381 669.136 371.382V371.744C669.136 373.744 670.757 375.366 672.757 375.366H753.609C755.609 375.366 757.23 373.744 757.23 371.744V371.382C757.23 369.381 755.609 367.76 753.609 367.76Z" fill="#DDE3E9"/>
<path d="M724.647 380.437H672.757C670.757 380.437 669.136 382.059 669.136 384.059V384.421C669.136 386.422 670.757 388.043 672.757 388.043H724.647C726.647 388.043 728.268 386.422 728.268 384.421V384.059C728.268 382.059 726.647 380.437 724.647 380.437Z" fill="#DDE3E9"/>
<path d="M647.415 392.39C655.413 392.39 661.896 385.903 661.896 377.901C661.896 369.9 655.413 363.413 647.415 363.413C639.417 363.413 632.934 369.9 632.934 377.901C632.934 385.903 639.417 392.39 647.415 392.39Z" fill="#C5CFD6"/>
<path d="M1079.43 153.333H694.478C689.147 153.333 684.824 157.658 684.824 162.992V561.419C684.824 566.753 689.147 571.078 694.478 571.078H1079.43C1084.77 571.078 1089.09 566.753 1089.09 561.419V162.992C1089.09 157.658 1084.77 153.333 1079.43 153.333Z" fill="#F2F2F2"/>
<path d="M1060.13 205.25H994.961C989.629 205.25 985.307 209.574 985.307 214.908V293.386C985.307 298.721 989.629 303.045 994.961 303.045H1060.13C1065.46 303.045 1069.78 298.721 1069.78 293.386V214.908C1069.78 209.574 1065.46 205.25 1060.13 205.25Z" fill="white"/>
<path d="M1027.54 261.995C1038.21 261.995 1046.85 253.346 1046.85 242.678C1046.85 232.009 1038.21 223.36 1027.54 223.36C1016.88 223.36 1008.24 232.009 1008.24 242.678C1008.24 253.346 1016.88 261.995 1027.54 261.995Z" fill="#DDE3E9"/>
<path d="M1054.09 266.825H1000.99C998.995 266.825 997.374 268.446 997.374 270.447C997.374 272.447 998.995 274.069 1000.99 274.069H1054.09C1056.09 274.069 1057.71 272.447 1057.71 270.447C1057.71 268.446 1056.09 266.825 1054.09 266.825Z" fill="#DDE3E9"/>
<path d="M1044.44 278.898H1010.65C1008.65 278.898 1007.03 280.52 1007.03 282.52C1007.03 284.52 1008.65 286.142 1010.65 286.142H1044.44C1046.44 286.142 1048.06 284.52 1048.06 282.52C1048.06 280.52 1046.44 278.898 1044.44 278.898Z" fill="#DDE3E9"/>
<path fill-rule="evenodd" clip-rule="evenodd" d="M694.478 153.333H1079.43C1084.77 153.333 1089.09 157.658 1089.09 162.992V185.932H684.824V162.992C684.824 157.658 689.147 153.333 694.478 153.333Z" fill="#C5CFD6"/>
<path d="M700.512 175.066C703.178 175.066 705.339 172.904 705.339 170.237C705.339 167.569 703.178 165.407 700.512 165.407C697.846 165.407 695.685 167.569 695.685 170.237C695.685 172.904 697.846 175.066 700.512 175.066Z" fill="#F2F2F2"/>
<path d="M714.993 175.066C717.659 175.066 719.82 172.904 719.82 170.237C719.82 167.569 717.659 165.407 714.993 165.407C712.327 165.407 710.166 167.569 710.166 170.237C710.166 172.904 712.327 175.066 714.993 175.066Z" fill="#F2F2F2"/>
<path d="M729.474 175.066C732.14 175.066 734.301 172.904 734.301 170.237C734.301 167.569 732.14 165.407 729.474 165.407C726.808 165.407 724.647 167.569 724.647 170.237C724.647 172.904 726.808 175.066 729.474 175.066Z" fill="#F2F2F2"/>
<path d="M1060.13 312.704H994.961C989.629 312.704 985.307 317.029 985.307 322.363V537.272C985.307 542.606 989.629 546.931 994.961 546.931H1060.13C1065.46 546.931 1069.78 542.606 1069.78 537.272V322.363C1069.78 317.029 1065.46 312.704 1060.13 312.704Z" fill="white"/>
<path d="M1043.23 334.437H1011.86C1009.19 334.437 1007.03 336.599 1007.03 339.266V360.998C1007.03 363.665 1009.19 365.828 1011.86 365.828H1043.23C1045.9 365.828 1048.06 363.665 1048.06 360.998V339.266C1048.06 336.599 1045.9 334.437 1043.23 334.437Z" fill="#DDE3E9"/>
<path d="M1043.23 375.486H1011.86C1009.19 375.486 1007.03 377.649 1007.03 380.316V400.841C1007.03 403.508 1009.19 405.67 1011.86 405.67H1043.23C1045.9 405.67 1048.06 403.508 1048.06 400.841V380.316C1048.06 377.649 1045.9 375.486 1043.23 375.486Z" fill="#AFB9C5"/>
<path d="M1043.23 415.329H1011.86C1009.19 415.329 1007.03 417.491 1007.03 420.159V440.684C1007.03 443.351 1009.19 445.513 1011.86 445.513H1043.23C1045.9 445.513 1048.06 443.351 1048.06 440.684V420.159C1048.06 417.491 1045.9 415.329 1043.23 415.329Z" fill="#DDE3E9"/>
<path d="M1043.23 495.015H1011.86C1009.19 495.015 1007.03 497.177 1007.03 499.844V520.369C1007.03 523.036 1009.19 525.198 1011.86 525.198H1043.23C1045.9 525.198 1048.06 523.036 1048.06 520.369V499.844C1048.06 497.177 1045.9 495.015 1043.23 495.015Z" fill="#DDE3E9"/>
<path d="M1043.23 455.172H1011.86C1009.19 455.172 1007.03 457.334 1007.03 460.001V480.526C1007.03 483.193 1009.19 485.356 1011.86 485.356H1043.23C1045.9 485.356 1048.06 483.193 1048.06 480.526V460.001C1048.06 457.334 1045.9 455.172 1043.23 455.172Z" fill="#C5CFD6"/>
<path d="M970.826 206.457H708.959C706.294 206.457 704.132 208.619 704.132 211.286V258.373C704.132 261.04 706.294 263.203 708.959 263.203H970.826C973.492 263.203 975.653 261.04 975.653 258.373V211.286C975.653 208.619 973.492 206.457 970.826 206.457Z" fill="white"/>
<path d="M912.901 223.48H718.613C716.614 223.48 714.993 225.102 714.993 227.103V228.37C714.993 230.371 716.614 231.992 718.613 231.992H912.901C914.901 231.992 916.522 230.371 916.522 228.37V227.103C916.522 225.102 914.901 223.48 912.901 223.48Z" fill="#DDE3E9"/>
<path d="M846.645 237.667H718.613C716.614 237.667 714.993 239.289 714.993 241.289V242.557C714.993 244.557 716.614 246.179 718.613 246.179H846.645C848.645 246.179 850.266 244.557 850.266 242.557V241.289C850.266 239.289 848.645 237.667 846.645 237.667Z" fill="#DDE3E9"/>
<path d="M946.635 243.281C951.301 243.281 955.083 239.498 955.083 234.83C955.083 230.162 951.301 226.378 946.635 226.378C941.97 226.378 938.188 230.162 938.188 234.83C938.188 239.498 941.97 243.281 946.635 243.281Z" fill="#DDE3E9"/>
<path d="M946.635 238.452C948.635 238.452 950.255 236.83 950.255 234.83C950.255 232.83 948.635 231.208 946.635 231.208C944.636 231.208 943.015 232.83 943.015 234.83C943.015 236.83 944.636 238.452 946.635 238.452Z" fill="#F2F2F2"/>
<path d="M970.826 272.861H708.959C706.294 272.861 704.132 275.024 704.132 277.691V315.119C704.132 317.786 706.294 319.948 708.959 319.948H970.826C973.492 319.948 975.653 317.786 975.653 315.119V277.691C975.653 275.024 973.492 272.861 970.826 272.861Z" fill="white"/>
<path d="M912.992 286.987H718.523C716.574 286.987 714.993 288.568 714.993 290.519C714.993 292.469 716.574 294.05 718.523 294.05H912.992C914.941 294.05 916.522 292.469 916.522 290.519C916.522 288.568 914.941 286.987 912.992 286.987Z" fill="#DDE3E9"/>
<path d="M846.736 298.759H718.523C716.574 298.759 714.993 300.34 714.993 302.29C714.993 304.241 716.574 305.822 718.523 305.822H846.736C848.685 305.822 850.266 304.241 850.266 302.29C850.266 300.34 848.685 298.759 846.736 298.759Z" fill="#DDE3E9"/>
<path d="M946.635 304.856C951.301 304.856 955.083 301.072 955.083 296.405C955.083 291.737 951.301 287.953 946.635 287.953C941.97 287.953 938.188 291.737 938.188 296.405C938.188 301.072 941.97 304.856 946.635 304.856Z" fill="#DDE3E9"/>
<path d="M946.635 300.027C948.635 300.027 950.255 298.405 950.255 296.405C950.255 294.404 948.635 292.783 946.635 292.783C944.636 292.783 943.015 294.404 943.015 296.405C943.015 298.405 944.636 300.027 946.635 300.027Z" fill="#F2F2F2"/>
<path d="M970.826 329.607H708.959C706.294 329.607 704.132 331.769 704.132 334.436V371.864C704.132 374.531 706.294 376.694 708.959 376.694H970.826C973.492 376.694 975.653 374.531 975.653 371.864V334.436C975.653 331.769 973.492 329.607 970.826 329.607Z" fill="white"/>
<path d="M912.992 343.733H718.523C716.574 343.733 714.993 345.314 714.993 347.264C714.993 349.215 716.574 350.796 718.523 350.796H912.992C914.941 350.796 916.522 349.215 916.522 347.264C916.522 345.314 914.941 343.733 912.992 343.733Z" fill="#DDE3E9"/>
<path d="M846.736 355.504H718.523C716.574 355.504 714.993 357.086 714.993 359.036C714.993 360.986 716.574 362.567 718.523 362.567H846.736C848.685 362.567 850.266 360.986 850.266 359.036C850.266 357.086 848.685 355.504 846.736 355.504Z" fill="#DDE3E9"/>
<path d="M946.635 361.602C951.301 361.602 955.083 357.818 955.083 353.15C955.083 348.483 951.301 344.699 946.635 344.699C941.97 344.699 938.188 348.483 938.188 353.15C938.188 357.818 941.97 361.602 946.635 361.602Z" fill="#DDE3E9"/>
<path d="M946.635 356.772C948.635 356.772 950.255 355.151 950.255 353.15C950.255 351.15 948.635 349.528 946.635 349.528C944.636 349.528 943.015 351.15 943.015 353.15C943.015 355.151 944.636 356.772 946.635 356.772Z" fill="#AFB9C5"/>
<path d="M970.826 499.844H708.959C706.294 499.844 704.132 502.006 704.132 504.673V542.101C704.132 544.768 706.294 546.931 708.959 546.931H970.826C973.492 546.931 975.653 544.768 975.653 542.101V504.673C975.653 502.006 973.492 499.844 970.826 499.844Z" fill="white"/>
<path d="M912.992 513.97H718.523C716.574 513.97 714.993 515.551 714.993 517.501C714.993 519.452 716.574 521.033 718.523 521.033H912.992C914.941 521.033 916.522 519.452 916.522 517.501C916.522 515.551 914.941 513.97 912.992 513.97Z" fill="#DDE3E9"/>
<path d="M846.736 525.741H718.523C716.574 525.741 714.993 527.322 714.993 529.273C714.993 531.223 716.574 532.804 718.523 532.804H846.736C848.685 532.804 850.266 531.223 850.266 529.273C850.266 527.322 848.685 525.741 846.736 525.741Z" fill="#DDE3E9"/>
<path d="M946.635 531.838C951.301 531.838 955.083 528.055 955.083 523.387C955.083 518.719 951.301 514.936 946.635 514.936C941.97 514.936 938.188 518.719 938.188 523.387C938.188 528.055 941.97 531.838 946.635 531.838Z" fill="#DDE3E9"/>
<path d="M946.635 527.009C948.635 527.009 950.255 525.388 950.255 523.387C950.255 521.387 948.635 519.765 946.635 519.765C944.636 519.765 943.015 521.387 943.015 523.387C943.015 525.388 944.636 527.009 946.635 527.009Z" fill="#F2F2F2"/>
<path d="M970.826 443.098H708.959C706.294 443.098 704.132 445.26 704.132 447.928V485.355C704.132 488.023 706.294 490.185 708.959 490.185H970.826C973.492 490.185 975.653 488.023 975.653 485.355V447.928C975.653 445.26 973.492 443.098 970.826 443.098Z" fill="white"/>
<path d="M912.992 457.224H718.523C716.574 457.224 714.993 458.805 714.993 460.756C714.993 462.706 716.574 464.287 718.523 464.287H912.992C914.941 464.287 916.522 462.706 916.522 460.756C916.522 458.805 914.941 457.224 912.992 457.224Z" fill="#DDE3E9"/>
<path d="M846.736 468.996H718.523C716.574 468.996 714.993 470.577 714.993 472.527C714.993 474.478 716.574 476.059 718.523 476.059H846.736C848.685 476.059 850.266 474.478 850.266 472.527C850.266 470.577 848.685 468.996 846.736 468.996Z" fill="#DDE3E9"/>
<path d="M946.635 475.093C951.301 475.093 955.083 471.309 955.083 466.641C955.083 461.974 951.301 458.19 946.635 458.19C941.97 458.19 938.188 461.974 938.188 466.641C938.188 471.309 941.97 475.093 946.635 475.093Z" fill="#DDE3E9"/>
<path d="M946.635 470.264C948.635 470.264 950.255 468.642 950.255 466.642C950.255 464.641 948.635 463.02 946.635 463.02C944.636 463.02 943.015 464.641 943.015 466.642C943.015 468.642 944.636 470.264 946.635 470.264Z" fill="#F2F2F2"/>
<path d="M970.826 386.353H708.959C706.294 386.353 704.132 388.515 704.132 391.182V428.61C704.132 431.277 706.294 433.439 708.959 433.439H970.826C973.492 433.439 975.653 431.277 975.653 428.61V391.182C975.653 388.515 973.492 386.353 970.826 386.353Z" fill="white"/>
<path d="M912.992 400.479H718.523C716.574 400.479 714.993 402.06 714.993 404.01C714.993 405.96 716.574 407.542 718.523 407.542H912.992C914.941 407.542 916.522 405.96 916.522 404.01C916.522 402.06 914.941 400.479 912.992 400.479Z" fill="#DDE3E9"/>
<path d="M846.736 412.25H718.523C716.574 412.25 714.993 413.831 714.993 415.782C714.993 417.732 716.574 419.313 718.523 419.313H846.736C848.685 419.313 850.266 417.732 850.266 415.782C850.266 413.831 848.685 412.25 846.736 412.25Z" fill="#DDE3E9"/>
<path d="M946.635 418.347C951.301 418.347 955.083 414.563 955.083 409.896C955.083 405.228 951.301 401.444 946.635 401.444C941.97 401.444 938.188 405.228 938.188 409.896C938.188 414.563 941.97 418.347 946.635 418.347Z" fill="#DDE3E9"/>
<path d="M946.635 413.518C948.635 413.518 950.255 411.896 950.255 409.896C950.255 407.896 948.635 406.274 946.635 406.274C944.636 406.274 943.015 407.896 943.015 409.896C943.015 411.896 944.636 413.518 946.635 413.518Z" fill="#F2F2F2"/>
<path fill-rule="evenodd" clip-rule="evenodd" d="M1189.23 359.037C1184.47 355.808 1178.14 354.961 1172.45 354.961C1150.2 354.961 1129.29 363.22 1111.22 375.525C1101.32 382.267 1092.47 390.854 1084.65 399.793C1080.14 404.954 1076.11 410.536 1073.26 416.745C1071.34 420.936 1070.02 425.302 1069.13 429.806C1068.04 435.295 1067.17 440.895 1066.78 446.475C1066.63 448.672 1065.35 460.332 1069 460.53C1068.98 460.817 1068.98 461.091 1069 461.337C1061.07 473.741 1056.17 488.277 1051.63 502.06C1047.68 514.053 1044.15 526.148 1041.87 538.555C1038.86 554.89 1036.88 571.471 1035.94 588.04C1035.74 591.601 1035.6 595.164 1035.48 598.73C1035.38 601.771 1035.28 604.813 1035.18 607.854C1035.07 611.263 1034.47 615.187 1035.01 618.575C1035.48 621.526 1038.03 621.079 1038.14 618.143C1038.28 614.597 1038.26 611.043 1038.41 607.495C1038.62 602.785 1038.83 598.075 1039.06 593.366C1040.67 560.657 1046.68 528.428 1057.79 497.531C1062.28 485.027 1067.43 473.191 1074.05 461.625C1079.86 451.455 1086.86 441.61 1094.02 432.441C1100.97 423.53 1108.2 414.825 1116.72 407.276C1123.63 401.15 1131.23 395.813 1139.05 390.847C1148.98 384.539 1158.89 378.385 1169.65 373.544C1175.24 371.027 1180.93 368.774 1186.57 366.359C1187.58 365.925 1188.67 365.504 1189.64 365.001C1192.89 363.322 1191.82 360.795 1189.23 359.037Z" fill="#C1DEE2"/>
<path fill-rule="evenodd" clip-rule="evenodd" d="M1099.73 473.282C1108.75 473.282 1116.78 474.455 1125.1 478.043C1132.27 481.139 1138.81 485.238 1145.16 489.701C1154.09 495.978 1161.13 503.283 1166.05 512.962C1169 518.744 1171.15 526.926 1169.18 533.233C1166.85 540.661 1160.46 546.857 1152.04 545.548C1146.84 544.739 1142.07 541.292 1138.11 538.048C1133.38 534.167 1129.59 529.5 1126.46 524.317C1121.36 515.862 1118.36 506.304 1114.03 497.47C1111.97 493.277 1109.98 489.054 1107.52 485.069C1106.3 483.095 1105 481.141 1103.15 479.674C1102.16 478.89 1097.99 477.532 1099.59 475.77C1076.19 476.078 1055.46 494.058 1050.97 516.313C1050.55 518.387 1050.22 520.479 1049.87 522.566C1049.66 523.884 1049.74 528.744 1048.57 529.586C1045.97 531.443 1047.06 525.801 1047.17 524.989C1047.46 522.889 1047.77 520.791 1048.09 518.697C1049.85 507.307 1054.91 496.719 1063.37 488.595C1073.03 479.307 1086.07 473.282 1099.73 473.282Z" fill="#89C5CC"/>
<path fill-rule="evenodd" clip-rule="evenodd" d="M449.432 445.195C471.958 483.004 498.193 519.613 513.949 560.951C513.314 556.079 512.64 551.211 511.887 546.351C507.889 520.585 502.921 495.007 497.7 469.461C495.041 456.454 492.229 443.494 489.345 430.535C487.793 423.575 486.261 416.61 484.678 409.657C484.294 407.971 483.965 405.03 483.485 402.048C498.797 452.319 513.562 502.627 524.363 554.105C525.78 560.861 526.986 567.605 527.975 574.338C528.313 572.802 528.645 571.266 529.009 569.734C533.379 551.374 539.935 533.159 547.74 515.992C551.471 507.782 555.757 499.752 560.804 492.269C563.95 487.605 571.372 482.061 574.242 477.284C558.543 506.093 552.874 542.139 543.809 573.46C541.596 581.103 539.37 588.734 537.189 596.378C550.859 568.949 572.069 546.413 601.558 536.647C565.862 560.244 544.452 601.568 530.024 643.833C529.977 644.334 529.92 644.835 529.871 645.337C534.117 637.276 539.465 629.984 546.713 624.877C562.226 613.944 579.435 617.129 594.483 626.507C582.673 618.996 561.328 625.836 551.391 633.47C544.277 638.935 538.197 646.266 532.918 653.419C531.652 655.133 529.927 657.134 528.103 659.268C525.547 675.87 521.381 692.359 515.483 708.716C516.456 704.021 515.753 696.512 516.023 693.012C516.052 692.633 516.076 692.254 516.105 691.876C515.208 695.458 514.342 698.999 513.508 702.482C515.166 695.835 516.067 688.895 516.77 681.884C516.952 678.871 517.128 675.858 517.315 672.845C517.256 667.127 517.02 661.386 516.622 655.636C515.21 650.048 513.63 644.777 512.326 640.393C507.622 624.576 500.727 609.423 492.239 595.286C484.495 582.386 475.226 570.701 464.525 560.133C458.756 554.437 452.718 549.013 446.766 543.513C444.614 541.525 440.766 536.637 437.439 534.088C461.671 547.454 486.613 561.915 504.291 583.45C502.218 575.488 499.967 567.638 497.586 559.946C485.506 520.918 470.252 480.469 449.432 445.195Z" fill="#DDE3E9"/>
<path fill-rule="evenodd" clip-rule="evenodd" d="M473.642 659.214C473.642 702.557 477.072 737.692 523.119 737.692C569.165 737.692 572.596 702.557 572.596 659.214" fill="#C5CFD6"/>
<path d="M993.754 105.04C993.754 103.039 992.133 101.417 990.134 101.417C988.134 101.417 986.513 103.039 986.513 105.04V127.979C986.513 129.98 988.134 131.601 990.134 131.601C992.133 131.601 993.754 129.98 993.754 127.979V105.04Z" fill="#DDE3E9"/>
<path d="M1010.65 85.7222C1010.65 83.7217 1009.03 82.1001 1007.03 82.1001C1005.03 82.1001 1003.41 83.7217 1003.41 85.7222V127.98C1003.41 129.98 1005.03 131.602 1007.03 131.602C1009.03 131.602 1010.65 129.98 1010.65 127.98V85.7222Z" fill="#DDE3E9"/>
<path d="M1027.54 76.063C1027.54 74.0626 1025.92 72.4409 1023.92 72.4409C1021.92 72.4409 1020.3 74.0626 1020.3 76.063V127.979C1020.3 129.98 1021.92 131.601 1023.92 131.601C1025.92 131.601 1027.54 129.98 1027.54 127.979V76.063Z" fill="#DDE3E9"/>
<path d="M1044.44 85.7222C1044.44 83.7217 1042.82 82.1001 1040.82 82.1001C1038.82 82.1001 1037.2 83.7217 1037.2 85.7222V127.98C1037.2 129.98 1038.82 131.602 1040.82 131.602C1042.82 131.602 1044.44 129.98 1044.44 127.98V85.7222Z" fill="#DDE3E9"/>
<path d="M1061.33 66.4043C1061.33 64.4039 1059.71 62.7822 1057.71 62.7822C1055.71 62.7822 1054.09 64.4039 1054.09 66.4043V127.979C1054.09 129.98 1055.71 131.601 1057.71 131.601C1059.71 131.601 1061.33 129.98 1061.33 127.979V66.4043Z" fill="#C5CFD6"/>
<path fill-rule="evenodd" clip-rule="evenodd" d="M392.789 432.542C392.789 419.093 403.652 408.085 416.924 408.085V432.542L400.43 450.342C395.738 445.99 392.789 439.606 392.789 432.542Z" fill="#F2F2F2"/>
<path fill-rule="evenodd" clip-rule="evenodd" d="M416.286 432.232H440.659C440.659 438.536 438.089 444.442 434.026 448.734C429.557 453.428 423.193 456.379 416.286 456.379C409.923 456.379 404.099 453.833 399.629 449.807L416.286 432.232Z" fill="#AFB9C5"/>
<path fill-rule="evenodd" clip-rule="evenodd" d="M441.059 432.232C441.059 418.954 430.196 408.085 416.924 408.085V432.232H441.059ZM404.857 408.085L414.511 429.817L392.789 420.158C394.937 414.525 399.761 410.234 404.857 408.085Z" fill="#C5CFD6"/>
<path fill-rule="evenodd" clip-rule="evenodd" d="M1178.11 443.314C1175.79 445.777 1172.5 447.324 1168.85 447.324C1161.83 447.324 1156.14 441.648 1156.14 434.647C1156.14 427.645 1161.83 421.97 1168.85 421.97V398.426C1148.88 398.426 1132.53 414.729 1132.53 434.647C1132.53 454.565 1148.88 470.867 1168.85 470.867C1179.34 470.867 1188.82 466.441 1195.28 459.4L1178.11 443.314Z" fill="#F2F2F2"/>
<path fill-rule="evenodd" clip-rule="evenodd" d="M1168.73 398.426V421.97C1175.73 421.97 1181.4 427.645 1181.4 434.647H1204.94C1204.94 414.729 1188.64 398.426 1168.73 398.426Z" fill="#AFB9C5"/>
<path fill-rule="evenodd" clip-rule="evenodd" d="M1180.92 434.647C1180.92 438.76 1178.98 442.417 1175.97 444.778L1190.77 463.623C1199.38 456.876 1204.94 446.418 1204.94 434.647H1180.92Z" fill="#C5CFD6"/>
<path fill-rule="evenodd" clip-rule="evenodd" d="M947.959 110.477C946.175 112.366 943.648 113.551 940.838 113.551C935.438 113.551 931.06 109.2 931.06 103.832C931.06 98.4643 935.438 94.1129 940.838 94.1129V76.063C925.476 76.063 912.901 88.5619 912.901 103.832C912.901 119.102 925.476 131.601 940.838 131.601C948.907 131.601 956.2 128.208 961.172 122.81L947.959 110.477Z" fill="#F2F2F2"/>
<path fill-rule="evenodd" clip-rule="evenodd" d="M940.657 76.063V94.1129C946.022 94.1129 950.371 98.4643 950.371 103.832H968.412C968.412 88.5619 955.919 76.063 940.657 76.063Z" fill="#AFB9C5"/>
<path fill-rule="evenodd" clip-rule="evenodd" d="M950.399 103.832C950.399 106.917 948.946 109.659 946.691 111.43L957.788 125.564C964.248 120.504 968.412 112.66 968.412 103.832H950.399Z" fill="#C5CFD6"/>
<path fill-rule="evenodd" clip-rule="evenodd" d="M508.646 131.584C508.641 131.596 508.636 131.608 508.629 131.621C508.636 131.61 508.646 131.564 508.646 131.584Z" fill="#C5CFD6"/>
<path fill-rule="evenodd" clip-rule="evenodd" d="M508.635 131.602C508.635 131.605 508.633 131.609 508.633 131.614C508.633 131.602 508.653 131.568 508.635 131.602Z" fill="#C5CFD6"/>
<path fill-rule="evenodd" clip-rule="evenodd" d="M508.719 131.399C508.702 131.447 508.68 131.493 508.661 131.541C508.671 131.517 508.68 131.498 508.69 131.474C508.439 132.102 508.598 131.694 508.719 131.399Z" fill="#C5CFD6"/>
<path fill-rule="evenodd" clip-rule="evenodd" d="M508.664 131.544C508.655 131.565 508.645 131.589 508.636 131.611C508.566 131.745 508.664 131.544 508.664 131.544Z" fill="#C5CFD6"/>
<path fill-rule="evenodd" clip-rule="evenodd" d="M508.637 131.603C508.637 131.601 508.637 131.601 508.639 131.599C508.637 131.601 508.637 131.601 508.637 131.603Z" fill="#C5CFD6"/>
<path fill-rule="evenodd" clip-rule="evenodd" d="M508.625 131.621C508.611 131.65 508.693 131.51 508.625 131.621Z" fill="#C5CFD6"/>
<path fill-rule="evenodd" clip-rule="evenodd" d="M508.635 131.603L508.639 131.599C508.637 131.601 508.637 131.603 508.635 131.603Z" fill="#C5CFD6"/>
<path d="M560.528 68.8188H455.541C452.875 68.8188 450.714 70.981 450.714 73.6483V140.053C450.714 142.72 452.875 144.882 455.541 144.882H560.528C563.194 144.882 565.355 142.72 565.355 140.053V73.6483C565.355 70.981 563.194 68.8188 560.528 68.8188Z" fill="#DDE3E9"/>
<path fill-rule="evenodd" clip-rule="evenodd" d="M494.157 90.5513L460.368 144.882H527.946L494.157 90.5513Z" fill="#AFB9C5"/>
<path fill-rule="evenodd" clip-rule="evenodd" d="M527.343 105.04L497.777 144.882H556.908L527.343 105.04Z" fill="#C5CFD6"/>
<path d="M540.014 105.039C546.012 105.039 550.874 100.175 550.874 94.1733C550.874 88.1721 546.012 83.3071 540.014 83.3071C534.015 83.3071 529.153 88.1721 529.153 94.1733C529.153 100.175 534.015 105.039 540.014 105.039Z" fill="white"/>
<path fill-rule="evenodd" clip-rule="evenodd" d="M1084.25 647.124C1084.26 647.136 1084.26 647.147 1084.27 647.161C1084.26 647.149 1084.25 647.103 1084.25 647.124Z" fill="#C5CFD6"/>
<path fill-rule="evenodd" clip-rule="evenodd" d="M1084.26 647.142C1084.26 647.144 1084.27 647.149 1084.27 647.153C1084.27 647.142 1084.25 647.108 1084.26 647.142Z" fill="#C5CFD6"/>
<path fill-rule="evenodd" clip-rule="evenodd" d="M1084.18 646.938C1084.2 646.987 1084.22 647.033 1084.24 647.081C1084.23 647.057 1084.22 647.037 1084.21 647.013C1084.46 647.641 1084.3 647.233 1084.18 646.938Z" fill="#C5CFD6"/>
<path fill-rule="evenodd" clip-rule="evenodd" d="M1084.23 647.084C1084.24 647.106 1084.25 647.129 1084.26 647.151C1084.33 647.285 1084.23 647.084 1084.23 647.084Z" fill="#C5CFD6"/>
<path fill-rule="evenodd" clip-rule="evenodd" d="M1084.26 647.143C1084.26 647.141 1084.26 647.141 1084.26 647.139C1084.26 647.141 1084.26 647.141 1084.26 647.143Z" fill="#C5CFD6"/>
<path fill-rule="evenodd" clip-rule="evenodd" d="M1084.27 647.161C1084.29 647.19 1084.21 647.05 1084.27 647.161Z" fill="#C5CFD6"/>
<path fill-rule="evenodd" clip-rule="evenodd" d="M1084.26 647.143L1084.26 647.139C1084.26 647.141 1084.26 647.143 1084.26 647.143Z" fill="#C5CFD6"/>
<path d="M1003.41 554.175H1165.11C1167.78 554.175 1169.94 556.337 1169.94 559.004V662.837C1169.94 665.504 1167.78 667.666 1165.11 667.666H1003.41C1000.74 667.666 998.581 665.504 998.581 662.837V559.004C998.581 556.337 1000.74 554.175 1003.41 554.175Z" fill="#DDE3E9"/>
<path fill-rule="evenodd" clip-rule="evenodd" d="M1106.31 586.773L1155.86 667.666H1056.77L1106.31 586.773Z" fill="#AFB9C5"/>
<path fill-rule="evenodd" clip-rule="evenodd" d="M1055.23 608.441L1099.03 667.666H1011.43L1055.23 608.441Z" fill="#C5CFD6"/>
<path d="M1036.59 608.506C1027.6 608.506 1020.3 601.208 1020.3 592.206C1020.3 583.205 1027.6 575.907 1036.59 575.907C1045.59 575.907 1052.89 583.205 1052.89 592.206C1052.89 601.208 1045.59 608.506 1036.59 608.506Z" fill="white"/>
<path d="M178 304C207.271 304 231 280.271 231 251C231 221.729 207.271 198 178 198C148.729 198 125 221.729 125 251C125 280.271 148.729 304 178 304Z" fill="#F2F2F2"/>
<path d="M178 212C179.657 212 181 210.657 181 209C181 207.343 179.657 206 178 206C176.343 206 175 207.343 175 209C175 210.657 176.343 212 178 212Z" fill="black" fill-opacity="0.1"/>
<path d="M136 254C137.657 254 139 252.657 139 251C139 249.343 137.657 248 136 248C134.343 248 133 249.343 133 251C133 252.657 134.343 254 136 254Z" fill="black" fill-opacity="0.1"/>
<path d="M220 254C221.657 254 223 252.657 223 251C223 249.343 221.657 248 220 248C218.343 248 217 249.343 217 251C217 252.657 218.343 254 220 254Z" fill="black" fill-opacity="0.1"/>
<path d="M178 296C179.657 296 181 294.657 181 293C181 291.343 179.657 290 178 290C176.343 290 175 291.343 175 293C175 294.657 176.343 296 178 296Z" fill="black" fill-opacity="0.1"/>
<path fill-rule="evenodd" clip-rule="evenodd" d="M178 215L180 250H176L178 215Z" fill="#AFB9C5"/>
<path fill-rule="evenodd" clip-rule="evenodd" d="M195.698 268.698L177.314 253.142L180.142 250.314L195.698 268.698Z" fill="#AFB9C5"/>
<path d="M178 255C180.209 255 182 253.209 182 251C182 248.791 180.209 247 178 247C175.791 247 174 248.791 174 251C174 253.209 175.791 255 178 255Z" fill="#C5CFD6"/>
<path fill-rule="evenodd" clip-rule="evenodd" d="M1120.74 596.49C1125.35 591.081 1128.46 584.453 1127.94 577.025C1126.44 555.625 1096.65 560.333 1090.86 571.134C1085.06 581.935 1085.75 609.333 1093.24 611.263C1096.23 612.033 1102.59 610.147 1109.06 606.244L1105 635H1129L1120.74 596.49Z" fill="#B28B67"/>
<path fill-rule="evenodd" clip-rule="evenodd" d="M1100.34 559.37C1103.62 558.37 1108.38 558.031 1110.38 558.26C1109.24 555.531 1108.79 552.49 1109.16 549.529C1109.51 546.652 1110.8 544.202 1111.99 541.635C1112.54 540.452 1113.16 539.275 1114.08 538.37C1115.03 537.448 1116.22 536.84 1117.47 536.549C1118.76 536.252 1120.09 536.277 1121.38 536.547C1121.95 536.666 1122.46 536.925 1123.01 537.07C1123.58 537.218 1123.86 536.861 1124.27 536.502C1125.27 535.638 1126.73 535.211 1127.99 535.059C1129.41 534.887 1130.88 535.101 1132.23 535.566C1133.54 536.019 1134.81 536.755 1135.76 537.827C1136.18 538.304 1136.56 538.847 1136.81 539.446C1136.91 539.692 1136.93 539.838 1137.18 539.928C1137.4 540.012 1137.67 540.014 1137.9 540.094C1140.17 540.861 1142.11 542.612 1143.16 544.86C1143.78 546.171 1144.07 548.48 1143.99 551.068C1143.91 553.656 1141.57 560.408 1139.39 562.871C1137.44 565.07 1134.57 566.52 1131.8 567.155C1133.64 569.255 1134.86 571.878 1135.76 574.547C1136.75 577.445 1137.35 580.457 1137.58 583.525C1137.79 586.44 1137.81 589.524 1137.13 592.377C1136.49 595.045 1135.12 597.234 1132.84 598.622C1131.79 599.258 1130.67 599.736 1129.54 600.173C1128.42 600.603 1127.3 601.022 1126.14 601.263C1123.93 601.72 1121.38 601.642 1119.68 599.882C1119.06 599.248 1118.39 598.451 1117.94 597.676C1117.78 597.397 1117.68 597.215 1117.88 596.943C1118.11 596.616 1118.49 596.366 1118.79 596.111C1120.51 594.656 1121.57 592.713 1121.84 590.405C1122.11 588.063 1121.48 585.039 1119.2 584.017C1116.39 582.755 1113.3 584.204 1110.8 585.554C1109.74 581.806 1107.55 578.431 1104.14 576.712C1100.35 574.811 1096.02 574.588 1092.13 572.956C1091.12 572.531 1090.08 572.048 1089.34 571.182C1089.03 570.82 1088.66 570.35 1088.54 569.871C1088.37 569.242 1088.78 568.715 1089.09 568.224C1090.75 565.624 1097.06 560.37 1100.34 559.37Z" fill="#191847"/>
<path fill-rule="evenodd" clip-rule="evenodd" d="M1010.12 736.096C1002.94 726.358 984.989 732.804 985 740.865C985.028 762.031 1004.34 862.512 1005.35 868.856C1006.36 875.2 1017.16 877.275 1017.79 869.348C1018.79 856.736 1020.65 813.013 1018.79 792.671C1018.25 786.73 1017.68 780.987 1017.1 775.607C1027.25 793.843 1042.69 819.619 1063.41 852.934L1074.92 847.672C1065.88 817.876 1058.46 796.841 1052.68 784.566C1042.77 763.55 1033.47 745.552 1029.56 739.212C1024.4 730.838 1016.02 731.949 1010.12 736.096Z" fill="#B28B67"/>
<path fill-rule="evenodd" clip-rule="evenodd" d="M1074.1 831.125L1034.57 737.487C1025.1 722.255 998.554 740.587 1001.78 749.422C1009.11 769.479 1046.4 834.414 1048.58 840.39L1074.1 831.125Z" fill="#1F28CF"/>
<path fill-rule="evenodd" clip-rule="evenodd" d="M984 748.176C984 774.718 995.634 837.106 995.642 842.95L1023.82 842C1018.9 787.757 1016.82 760.452 1017.59 760.084C1019.33 759.257 1088.74 769.691 1109.56 770.479C1139.57 771.615 1151.99 753.199 1153 718.25H1094.85C1045.13 724.186 1012.45 728.314 996.815 730.634C986.774 732.125 984 740.865 984 748.176Z" fill="#2B44FF"/>
<path fill-rule="evenodd" clip-rule="evenodd" d="M1076.48 844.736C1078.29 847.363 1079.37 849.396 1079.73 850.835C1080.17 852.584 1080.51 855.21 1080.77 858.713C1078.74 859.219 1060.5 863.767 1026.04 872.357C1023.45 868.01 1023.63 865.267 1026.61 864.129C1029.58 862.99 1032.04 862.017 1033.99 861.209L1056.6 843.528C1057.03 843.187 1057.66 843.264 1058 843.699C1058.01 843.707 1058.01 843.714 1058.02 843.722L1060.64 847.28C1063.81 847.897 1066.28 847.984 1068.05 847.542C1069.49 847.182 1071.34 846.104 1073.59 844.307L1073.59 844.307C1074.45 843.618 1075.71 843.758 1076.4 844.621C1076.43 844.659 1076.46 844.697 1076.48 844.736Z" fill="#E4E4E4"/>
<path fill-rule="evenodd" clip-rule="evenodd" d="M1019.32 854.402C1020.44 857.388 1021 859.623 1021 861.106C1021 862.909 1020.7 865.54 1020.1 869C1018.01 869 999.206 869 963.697 869C962.231 864.155 963.077 861.539 966.235 861.152C969.393 860.766 972.016 860.417 974.105 860.106L1000.32 848.419C1000.82 848.194 1001.42 848.421 1001.64 848.925C1001.64 848.934 1001.65 848.942 1001.65 848.951L1003.34 853.039C1006.26 854.403 1008.64 855.085 1010.46 855.085C1011.95 855.085 1014 854.485 1016.62 853.286L1016.62 853.285C1017.62 852.825 1018.81 853.266 1019.27 854.27C1019.29 854.313 1019.31 854.357 1019.32 854.402Z" fill="#E4E4E4"/>
<path d="M970.5 869H1016.5C1018.43 869 1020 870.567 1020 872.5C1020 874.433 1018.43 876 1016.5 876H970.5C968.567 876 967 874.433 967 872.5C967 870.567 968.567 869 970.5 869Z" fill="#2F3676"/>
<path fill-rule="evenodd" clip-rule="evenodd" d="M1156 724H1049C1043.48 724 1039 728.477 1039 734V783H1162C1164.21 783 1166 781.209 1166 779V734C1166 728.477 1161.52 724 1156 724Z" fill="#2F3676"/>
<path fill-rule="evenodd" clip-rule="evenodd" d="M1049 724H1046.81C1041.91 724 1037.73 727.547 1036.94 732.38L1015 866H1025.69" fill="#2F3676"/>
<path d="M1020 886C1010.06 886 1002 877.941 1002 868C1002 858.059 1010.06 850 1020 850C1029.94 850 1038 858.059 1038 868C1038 877.941 1029.94 886 1020 886Z" fill="#191847"/>
<path fill-rule="evenodd" clip-rule="evenodd" d="M1153 884C1194.97 884 1229 849.974 1229 808C1229 766.026 1194.97 732 1153 732C1111.03 732 1077 766.026 1077 808C1077 849.974 1111.03 884 1153 884ZM1153 870C1118.76 870 1091 842.242 1091 808C1091 773.758 1118.76 746 1153 746C1187.24 746 1215 773.758 1215 808C1215 842.242 1187.24 870 1153 870Z" fill="#191847"/>
<path d="M1149 742H1157V874H1149V742Z" fill="#191847"/>
<path d="M1104.92 762.745L1107.75 759.917C1108.53 759.136 1109.79 759.136 1110.57 759.917L1201.08 850.426C1201.86 851.207 1201.86 852.474 1201.08 853.255L1198.25 856.083C1197.47 856.864 1196.21 856.864 1195.43 856.083L1104.92 765.574C1104.14 764.792 1104.14 763.526 1104.92 762.745Z" fill="#191847"/>
<path d="M1087 810V806C1087 804.895 1087.9 804 1089 804H1217C1218.1 804 1219 804.895 1219 806V810C1219 811.105 1218.1 812 1217 812H1089C1087.9 812 1087 811.105 1087 810Z" fill="#191847"/>
<path d="M1107.75 856.083L1104.92 853.255C1104.14 852.474 1104.14 851.208 1104.92 850.427L1195.43 759.917C1196.21 759.136 1197.47 759.136 1198.25 759.917L1201.08 762.745C1201.86 763.526 1201.86 764.793 1201.08 765.574L1110.57 856.083C1109.79 856.865 1108.53 856.865 1107.75 856.083Z" fill="#191847"/>
<path fill-rule="evenodd" clip-rule="evenodd" d="M1051.54 615.341L1013.64 603.962C1006.57 598.458 999.899 594.433 993.631 591.889C991.808 591.545 988.79 591.745 992.562 596.023C996.333 600.301 1000.11 604.971 999.031 606.765C997.954 608.559 994.031 607.206 992.895 610.048C992.138 611.942 998.638 613.299 1012.4 614.118L1041.87 631.462L1051.54 615.341ZM1054.89 682.168L1022.99 705.592C1014.34 707.926 1007.12 710.831 1001.31 714.305C999.94 715.554 998.283 718.085 1003.97 717.647C1009.66 717.21 1015.66 717.006 1016.44 718.945C1017.23 720.885 1013.78 723.205 1015.37 725.822C1016.43 727.566 1021.42 723.192 1030.36 712.698L1061.94 699.599L1054.89 682.168Z" fill="#B28B67"/>
<path fill-rule="evenodd" clip-rule="evenodd" d="M1104.44 619.087C1087.07 651.476 1061.95 676.305 1025.53 702.116L1039.32 717.663C1079.98 702.553 1101.44 693.436 1111.98 662.835C1114.62 655.154 1116.47 630.671 1118.06 617.789L1104.44 619.087Z" fill="#2026A2"/>
<path fill-rule="evenodd" clip-rule="evenodd" d="M1153 727H1076C1093.44 673.805 1102.35 637.296 1102.73 617.472C1102.75 616.461 1104.62 614.68 1105.44 614.913C1111.48 616.619 1117.94 615.981 1124.83 613C1143.08 642.358 1149.4 678.505 1153 727Z" fill="#F2F2F2"/>
<path fill-rule="evenodd" clip-rule="evenodd" d="M1118.26 613.047C1096.19 613.228 1060.38 617.259 1019.08 604L1015 624.373C1046.21 644.448 1077.82 659.999 1105.51 657.791C1093.49 709.377 1094.04 751.606 1120.59 751.606C1133.27 751.606 1146.96 751.606 1161.65 751.606C1168.17 707.784 1151.03 647.024 1135.14 616.377C1134.54 615.206 1133.25 613 1130.2 613C1127.55 613 1123.58 613 1118.27 613C1118.27 613.016 1118.26 613.032 1118.26 613.047Z" fill="#1F28CF"/>
<path fill-rule="evenodd" clip-rule="evenodd" d="M613.047 496.95C609.865 490.257 608.512 482.738 611.042 475.397C618.331 454.244 647.07 467.028 649.992 479.472C652.914 491.917 644.825 519.331 636.759 519.254C633.543 519.223 627.642 515.606 622.173 509.926L618.505 539.991L594.329 533.513L613.047 496.95Z" fill="#D4A181"/>
<path fill-rule="evenodd" clip-rule="evenodd" d="M621.82 497.676C617.28 502.627 611.973 505.85 607.83 504.74C599.962 502.632 597.186 490.613 600.217 479.303C600.323 478.906 600.437 478.513 600.558 478.125C590.704 481.607 581.273 491.146 570.26 488.195C555.277 484.18 557.424 452.365 578.358 457.974C592.594 461.789 599.04 465.741 604.253 470.427C606.342 467.391 608.913 465.056 611.661 463.68C612.356 463.222 613.328 462.867 614.527 462.616C615.267 462.436 616.013 462.328 616.757 462.295C620.755 461.933 626.28 462.402 632.224 463.774C633.333 464.03 634.416 464.309 635.466 464.605C636.97 459.061 642.678 455.774 648.23 457.262C653.794 458.753 657.096 464.472 655.605 470.035C654.163 475.416 648.767 478.681 643.382 477.541C640.093 477.665 636.006 477.307 631.6 476.438C631.597 478.13 631.345 479.987 630.801 482.015C630.321 483.806 629.614 485.653 628.733 487.485C628.094 486.117 627.034 485.053 625.76 484.712C622.196 483.757 618.93 486.024 618.096 489.136C617.038 493.087 618.552 496.555 621.82 497.676Z" fill="#191847"/>
<path fill-rule="evenodd" clip-rule="evenodd" d="M563.491 625.707L601.693 757.348L619.661 856.186H637.696L619.693 625.707H563.491Z" fill="#BA8B72"/>
<path fill-rule="evenodd" clip-rule="evenodd" d="M546.322 625.707C548.988 694.094 547.937 731.394 547.34 737.607C546.743 743.82 543.356 785.433 520.277 858.272H539.035C569.6 788.395 580.27 746.783 583.775 737.607C587.281 728.431 597.634 691.131 612.75 625.707H546.322Z" fill="#D4A181"/>
<path fill-rule="evenodd" clip-rule="evenodd" d="M562.671 625.707C572.608 671.005 589.794 743.312 614.231 842.629H640.609C642.557 740.69 634.269 673.597 619.916 625.707H562.671Z" fill="#69A1AC"/>
<path fill-rule="evenodd" clip-rule="evenodd" d="M546.189 625.707C548.8 694.094 542.034 761.468 521.077 843.694H549.22C579.842 774.859 601.789 707.817 616.788 625.707H546.189Z" fill="#89C5CC"/>
<path fill-rule="evenodd" clip-rule="evenodd" d="M517.603 871.83L518.638 855.143C524.698 856.916 532.288 856.22 541.408 853.058C551.214 860.004 563.559 864.747 578.443 867.287L578.443 867.287C579.578 867.481 580.342 868.558 580.148 869.694C580.136 869.768 580.119 869.84 580.099 869.912L578.668 874.958H541.408H519.673L517.603 871.83Z" fill="#191847"/>
<path fill-rule="evenodd" clip-rule="evenodd" d="M615.635 871.83L616.67 855.143C622.73 856.916 630.32 856.22 639.44 853.058C649.247 860.004 661.592 864.747 676.475 867.287L676.475 867.287C677.611 867.481 678.374 868.558 678.18 869.694C678.168 869.768 678.151 869.84 678.131 869.912L676.7 874.958H639.44H617.705L615.635 871.83Z" fill="#191847"/>
<path fill-rule="evenodd" clip-rule="evenodd" d="M638.111 567.079L677.203 553.84C684.372 547.845 691.177 543.408 697.617 540.527C699.505 540.103 702.658 540.201 698.883 544.798C695.108 549.394 691.344 554.398 692.531 556.229C693.719 558.059 697.759 556.507 699.046 559.427C699.904 561.374 693.178 563.025 678.869 564.38L648.784 583.529L638.111 567.079ZM691.039 593.397L708.215 587.556C711.886 579.583 715.254 575.839 718.319 576.326C720.859 575.647 714.909 585.491 719.52 585.359C724.132 585.228 736.417 579.065 737.999 581.035C740.34 583.95 736.558 590.965 732.995 594.158C726.338 600.127 721.419 601.702 709.747 602.842C703.644 603.439 696.782 605.581 689.16 609.268L691.039 593.397Z" fill="#D4A181"/>
<path fill-rule="evenodd" clip-rule="evenodd" d="M621.517 559.668C634.027 561.738 651.142 562.037 670.897 553.892L675.131 570.682C660.732 580.683 641.738 587.637 626.746 584.557C614.931 582.13 611.395 566.698 621.517 559.668Z" fill="#2026A2"/>
<path fill-rule="evenodd" clip-rule="evenodd" d="M633.93 587.586C646.603 593.229 669.52 593.25 702.68 587.649C707.597 605.025 709.162 617.071 707.376 623.787C678.143 633.049 654.101 635.238 635.128 632.317C633.751 643.638 630.504 654.069 624.199 663.011C611.237 681.395 559.307 653.096 540.101 653.477C535.134 613.679 560.313 602.301 564.59 578.15C569.274 551.702 597.692 514.733 600.817 515.284L629.314 520.309C627.325 540.787 631.313 564.446 633.93 587.586Z" fill="#1F28CF"/>
<path fill-rule="evenodd" clip-rule="evenodd" d="M1403.63 627.3C1408.43 621.659 1411.69 614.746 1411.14 607C1409.58 584.682 1378.51 589.591 1372.46 600.856C1366.42 612.12 1367.14 640.693 1374.95 642.707C1378.06 643.51 1384.7 641.543 1391.45 637.472L1387.21 667.461H1412.24L1403.63 627.3Z" fill="#B28B67"/>
<path fill-rule="evenodd" clip-rule="evenodd" d="M1383.5 602.489C1386.9 604.389 1389.32 607.949 1392.23 612.619C1392.94 612.341 1393.71 612.188 1394.51 612.188C1397.97 612.188 1400.77 614.989 1400.77 618.445C1400.77 620.2 1400.05 621.785 1398.89 622.922C1400.34 624.965 1401.96 627.1 1403.82 629.303C1410.76 625.14 1415.92 613.007 1409.29 601.294C1403.59 577.832 1371.29 592.395 1365.08 588.438C1363.72 596.952 1368.1 603.817 1383.5 602.489Z" fill="#191847"/>
<path fill-rule="evenodd" clip-rule="evenodd" d="M1413.25 758L1362.06 887.556L1327.73 997.084H1314.18L1366.66 758L1413.25 758Z" fill="#997659"/>
<path fill-rule="evenodd" clip-rule="evenodd" d="M1423.56 758C1424.1 803.527 1432.05 864.821 1433.32 867.659C1434.17 869.551 1463.4 893.61 1521.01 939.837L1511.67 949.829C1443.7 910.195 1408.14 887.736 1404.99 882.449C1400.27 874.52 1384.91 801.555 1372.58 758H1423.56Z" fill="#B28B67"/>
<path fill-rule="evenodd" clip-rule="evenodd" d="M1522.26 936.502C1525.39 937.61 1527.55 938.661 1528.74 939.655C1530.18 940.864 1532.08 942.868 1534.44 945.667C1533.04 947.338 1520.43 962.358 1496.63 990.726C1491.78 988.649 1490.25 986.22 1492.06 983.438C1493.87 980.656 1495.35 978.326 1496.5 976.449L1504.74 947.671C1504.9 947.118 1505.48 946.797 1506.03 946.956C1506.04 946.958 1506.05 946.961 1506.06 946.964L1510.45 948.358C1513.5 946.937 1515.64 945.496 1516.86 944.036C1517.86 942.85 1518.76 940.81 1519.55 937.915L1519.55 937.915C1519.86 936.804 1521 936.152 1522.12 936.457C1522.16 936.47 1522.21 936.485 1522.26 936.502Z" fill="#E4E4E4"/>
<path fill-rule="evenodd" clip-rule="evenodd" d="M1333.28 992.028C1334.45 995.142 1335.03 997.473 1335.03 999.019C1335.03 1000.9 1334.72 1003.64 1334.09 1007.25C1331.91 1007.25 1312.31 1007.25 1275.27 1007.25C1273.75 1002.2 1274.63 999.47 1277.92 999.067C1281.21 998.665 1283.95 998.301 1286.13 997.976L1313.47 985.788C1313.99 985.553 1314.61 985.79 1314.84 986.316C1314.85 986.325 1314.85 986.334 1314.86 986.343L1316.61 990.606C1319.66 992.028 1322.14 992.74 1324.05 992.74C1325.59 992.74 1327.73 992.114 1330.46 990.863L1330.46 990.863C1331.51 990.383 1332.75 990.843 1333.23 991.89C1333.25 991.935 1333.27 991.981 1333.28 992.028Z" fill="#E4E4E4"/>
<path fill-rule="evenodd" clip-rule="evenodd" d="M1378.84 985.803L1314.38 978.807L1362.15 758H1419.88L1378.84 985.803Z" fill="#69A1AC"/>
<path fill-rule="evenodd" clip-rule="evenodd" d="M1507.68 923.717L1465.4 973.76C1420.87 925.124 1394.9 893.389 1387.51 878.555C1380.12 863.72 1373.47 823.536 1367.57 758H1432.57C1435.79 815.655 1437.96 845.824 1439.08 848.507C1440.21 851.19 1463.07 876.26 1507.68 923.717Z" fill="#89C5CC"/>
<path fill-rule="evenodd" clip-rule="evenodd" d="M1319.16 745.393L1288.51 775.101C1279.59 778.88 1272.28 783.053 1266.59 787.62C1265.31 789.156 1263.91 792.097 1269.94 790.781C1275.97 789.465 1282.36 788.349 1283.5 790.297C1284.63 792.244 1281.29 795.228 1283.39 797.776C1284.78 799.476 1289.47 794.071 1297.47 781.564L1329.34 762.894L1319.16 745.393ZM1469.03 718.507L1445.34 718.596C1463.39 776.681 1472.96 807.094 1474.08 809.834C1476.58 815.998 1471.28 825.387 1469.02 830.432C1476.4 833.713 1475.61 821.563 1484.92 825.866C1493.41 829.793 1499.88 836.909 1509.69 830.891C1510.9 830.151 1512.22 827.366 1509.03 825.189C1501.07 819.765 1489.6 810.273 1488.05 807.149C1485.93 802.888 1479.59 773.341 1469.03 718.507Z" fill="#B28B67"/>
<path fill-rule="evenodd" clip-rule="evenodd" d="M1396.84 651.732L1387.48 650.138C1372.75 701.9 1297.02 737.184 1292.37 756.534C1290.67 763.63 1295.81 767.217 1293.15 769.378L1305.31 778.223C1307.37 775.836 1311.77 780.203 1320.94 777.148C1330.12 774.094 1396.84 713.023 1396.84 651.732Z" fill="#DB2721"/>
<path fill-rule="evenodd" clip-rule="evenodd" d="M1381.1 658.574C1382.2 727.136 1342.31 744.619 1351.19 772.115C1358.52 794.817 1428.72 819.222 1440.87 796.968C1445.79 787.961 1448.02 777.066 1448.27 765.222C1451.38 774.321 1453.83 782.155 1455.64 788.723C1458.75 800.053 1470.83 801.854 1470.83 806.219L1486.75 801.854C1485.67 795.924 1493.17 793.037 1491.16 779.789C1482.15 720.431 1457.93 677.404 1418.51 650.709L1418.09 644.787C1417.92 642.49 1415.93 640.758 1413.64 640.918L1413.64 640.914L1384.18 642.957C1381.88 643.116 1380.15 645.109 1380.31 647.407C1380.31 647.409 1380.31 647.41 1380.31 647.411L1381.1 658.574Z" fill="#FF4133"/>
<path fill-rule="evenodd" clip-rule="evenodd" d="M319.262 714.49C314.654 709.081 311.536 702.453 312.057 695.025C313.558 673.625 343.349 678.333 349.143 689.134C354.938 699.935 354.25 727.333 346.76 729.263C343.774 730.033 337.411 728.147 330.935 724.244L335 753H311L319.262 714.49Z" fill="#915B3C"/>
<path fill-rule="evenodd" clip-rule="evenodd" d="M317.418 719.308C314.406 705.906 305.825 696.771 307.135 690.782C308.009 686.789 310.338 684.305 314.121 683.332C316.078 675.416 322.39 672.048 333.056 673.23C349.055 675.004 358.819 681.648 354.602 696.268C350.726 696.268 346.046 694.866 339.576 697.268C337.522 698.03 336.054 700.393 335.17 704.358H332.246C329.408 699.653 326.609 697.924 323.851 699.171C321.092 700.418 320.465 703.447 321.97 708.259L320.529 719.308H317.418Z" fill="#191847"/>
<path fill-rule="evenodd" clip-rule="evenodd" d="M244 878H359C367.837 878 375 885.163 375 894V986C375 994.837 367.837 1002 359 1002H244C235.163 1002 228 994.837 228 986V894C228 885.163 235.163 878 244 878ZM260 906C257.791 906 256 907.791 256 910V970C256 972.209 257.791 974 260 974H343C345.209 974 347 972.209 347 970V910C347 907.791 345.209 906 343 906H260Z" fill="#C5CFD6"/>
<path fill-rule="evenodd" clip-rule="evenodd" d="M474.159 997C454.443 972.924 441.103 955.075 434.138 943.454C422.213 923.555 412.453 905.848 409.373 899.084C402.028 882.955 426.282 875.403 431.771 882.926C440.079 894.312 457.822 930.143 485 990.417L474.159 997Z" fill="#B28B67"/>
<path fill-rule="evenodd" clip-rule="evenodd" d="M433.758 990L397.065 897.637C389.217 880.8 427.116 869.732 432.883 877.568C445.977 895.357 477.099 965.534 481 970.834L433.758 990Z" fill="#2F3676"/>
<path fill-rule="evenodd" clip-rule="evenodd" d="M336.033 971.477C343.181 961.051 369.179 925.974 383.339 911.461C387.408 907.291 391.379 903.288 395.134 899.557C406.296 888.47 428.524 907.106 417.382 917.205C389.635 942.355 349.151 976.307 345.769 979.334C341.028 983.577 331.541 978.029 336.033 971.477Z" fill="#915B3C"/>
<path fill-rule="evenodd" clip-rule="evenodd" d="M337.705 966.767C335.242 968.794 333.641 970.45 332.899 971.734C331.998 973.295 330.942 975.725 329.733 979.021C331.544 980.067 347.826 989.467 378.578 1007.22C382.27 1003.76 382.845 1001.07 380.304 999.156C377.762 997.243 375.665 995.629 374.012 994.315L357.152 971.087C356.828 970.64 356.202 970.54 355.756 970.865C355.748 970.87 355.74 970.876 355.733 970.882L352.23 973.579C349.016 973.299 346.618 972.702 345.035 971.788C343.749 971.045 342.273 969.5 340.607 967.153L340.607 967.153C339.967 966.253 338.719 966.041 337.818 966.68C337.779 966.708 337.741 966.737 337.705 966.767Z" fill="#E4E4E4"/>
<path fill-rule="evenodd" clip-rule="evenodd" d="M465.678 993.402C464.559 996.388 464 998.623 464 1000.11C464 1001.91 464.3 1004.54 464.901 1008C466.993 1008 485.794 1008 521.303 1008C522.769 1003.15 521.923 1000.54 518.765 1000.15C515.607 999.766 512.984 999.417 510.895 999.106L484.68 987.419C484.176 987.194 483.584 987.421 483.359 987.925C483.356 987.934 483.352 987.942 483.348 987.951L481.663 992.039C478.74 993.403 476.364 994.085 474.537 994.085C473.052 994.085 471.001 993.485 468.384 992.286L468.384 992.285C467.38 991.825 466.193 992.266 465.733 993.27C465.713 993.313 465.695 993.357 465.678 993.402Z" fill="#E4E4E4"/>
<path fill-rule="evenodd" clip-rule="evenodd" d="M383.862 902.25C353.365 897.282 332.938 893.884 322.581 892.058C293.057 886.852 284.448 870.965 289.538 836.302H343.934C351.133 838.381 381.21 851.237 434.168 874.872C443.696 879.602 441.921 893.548 440.18 898.142C440.109 898.329 424.046 925.853 391.992 980.713L347.494 952.366L383.946 905.59C384.908 903.652 384.88 902.538 383.862 902.25Z" fill="#5C63AB"/>
<path fill-rule="evenodd" clip-rule="evenodd" d="M387.781 823.211L419.68 846.635C428.331 848.97 435.559 851.874 441.364 855.348C442.735 856.598 444.392 859.128 438.705 858.691C433.019 858.254 427.018 858.049 426.233 859.989C425.449 861.928 428.89 864.248 427.304 866.865C426.246 868.61 421.251 864.235 412.317 853.741L380.73 840.642L387.781 823.211ZM265.308 824.02L286.205 824.102C273.302 865.756 266.336 887.857 265.308 890.406C262.994 896.14 267.891 904.874 269.985 909.567C263.165 912.619 263.891 901.317 255.288 905.319C247.435 908.973 241.462 915.592 232.389 909.994C231.274 909.306 230.051 906.715 233.005 904.69C240.362 899.644 250.965 890.815 252.398 887.908C254.352 883.945 258.655 862.649 265.308 824.02Z" fill="#915B3C"/>
<path fill-rule="evenodd" clip-rule="evenodd" d="M324.695 736.332L333.342 734.849C365.425 762.564 378.603 815.809 417.93 844.015L408.464 855.748C340.24 847.301 323.33 782.355 324.695 736.332Z" fill="#E87613"/>
<path fill-rule="evenodd" clip-rule="evenodd" d="M287 845C321.672 845 347.176 845 363.511 845C367.008 845 366.349 839.952 365.843 837.404C360.011 808.004 337.241 776.312 337.241 734.461L315.172 731C296.917 760.358 290.605 796.505 287 845Z" fill="#DDE3E9"/>
<path fill-rule="evenodd" clip-rule="evenodd" d="M287.615 759.858C284.41 758.937 281.871 756.788 280 753.411C271.934 738.856 274.847 730.842 283.467 728.208C292.088 725.574 299.775 731 313.51 731C314.257 731 314.941 731.047 315.563 731.141L322.472 731.535C342.294 798.715 347.761 843.537 338.872 866H278.652C275.084 874.32 271.67 881.32 268.409 887H252C250.456 837.067 262.327 794.686 287.615 759.858Z" fill="#FF9B21"/>
<path fill-rule="evenodd" clip-rule="evenodd" d="M291.765 831.498C293.659 847.344 296.737 858.845 301 866H278.652C282.814 856.295 287.185 844.794 291.765 831.498V831.498Z" fill="black" fill-opacity="0.1"/>
<path fill-rule="evenodd" clip-rule="evenodd" d="M932.961 964.537C935.383 964.26 937.968 964.358 940.221 965.254C945.011 967.159 946.372 972.462 946.307 976.773C946.236 981.412 945.185 986.479 948.948 990.217C950.679 991.936 952.831 993.251 954.53 995.001C956.345 996.871 957.769 999.011 958.824 1001.31C960.76 1005.53 961.711 1010.49 959.94 1014.92C958.381 1018.82 954.458 1022.34 955.306 1026.77C956.19 1031.39 961.165 1034.93 964.275 1038.37C967.795 1042.27 971.036 1047.25 971.568 1052.37C972.079 1057.26 969.803 1062.22 966.311 1065.92C959.334 1073.32 948.847 1076.95 938.272 1076.93C933.783 1076.92 928.699 1076.73 924.825 1074.47C923.628 1073.77 922.996 1072.98 922.284 1071.89C921.646 1070.91 920.803 1070.28 919.827 1069.59C917.683 1068.07 916.134 1066.02 915.146 1063.73C911.309 1054.83 914.376 1043.82 919.747 1035.91C921.02 1034.04 922.062 1032.24 921.443 1030C920.798 1027.67 919.212 1025.57 917.81 1023.57C916.424 1021.59 914.841 1019.7 913.758 1017.56C912.624 1015.32 912.304 1012.97 912.505 1010.52C912.881 1005.91 915.005 1001.66 918.011 997.948C920.906 994.378 924.305 990.961 924.313 986.283C924.321 981.324 920.784 976.913 922.291 971.872C922.915 969.784 924.168 967.642 926.188 966.391C928.125 965.191 930.683 964.798 932.961 964.537Z" fill="#DDE3E9"/>
<path fill-rule="evenodd" clip-rule="evenodd" d="M931.378 972.464C931.423 971.798 932.266 971.399 932.93 971.572C933.803 971.801 933.787 972.566 933.764 973.247C933.693 975.342 934.016 977.378 934.554 979.41C935.67 983.635 937.734 987.528 939.369 991.587C941.002 995.642 941.769 999.829 940.811 1004.12C939.907 1008.17 938.488 1012.11 937.564 1016.16C936.749 1019.73 935.882 1023.49 937.123 1027.06C938.317 1030.48 940.957 1033.28 942.858 1036.37C946.793 1042.79 948.539 1049.9 948.773 1057.22C948.881 1060.62 948.784 1064.05 947.942 1067.39C947.458 1069.31 946.807 1071.9 945.051 1073.23C944.241 1073.84 942.857 1074.05 942.175 1073.15C941.536 1072.3 942.097 1070.98 942.3 1070.08C943.179 1066.16 943.356 1062.16 943.146 1058.18C942.942 1054.33 942.456 1050.48 941.162 1046.8C939.961 1043.38 938.137 1040.32 935.99 1037.33C933.801 1034.29 931.527 1031.23 930.623 1027.63C929.704 1023.96 930.45 1020.24 931.448 1016.64C932.503 1012.84 933.886 1009.15 935.315 1005.45C936.707 1001.85 937.201 998.439 936.432 994.668C934.913 987.217 930.848 980.223 931.378 972.464Z" fill="#C5CFD6"/>
<path fill-rule="evenodd" clip-rule="evenodd" d="M996.916 973.578C999.914 974.431 1002.89 975.807 1005.03 977.965C1009.57 982.554 1008.18 989.489 1005.67 994.555C1002.97 1000.01 998.878 1005.49 1001.18 1011.74C1002.24 1014.62 1004.03 1017.22 1005.03 1020.12C1006.11 1023.22 1006.57 1026.44 1006.51 1029.67C1006.4 1035.61 1004.72 1041.94 1000.14 1046.32C996.116 1050.17 989.53 1052.42 988.024 1058.07C986.453 1063.97 990.294 1070.58 992 1076.17C993.93 1082.49 994.921 1089.96 992.663 1096.27C990.498 1102.31 985.035 1107.06 978.851 1109.74C966.494 1115.09 952.148 1114.26 939.758 1109.08C934.497 1106.88 928.642 1104.18 925.373 1099.62C924.363 1098.21 924.064 1096.97 923.844 1095.33C923.646 1093.87 923.016 1092.7 922.261 1091.41C920.603 1088.57 919.942 1085.39 920.076 1082.2C920.595 1069.8 930.403 1058.27 941.162 1051.55C943.711 1049.95 945.949 1048.33 946.483 1045.39C947.04 1042.32 946.366 1039.06 945.85 1036.01C945.341 1032.99 944.55 1029.98 944.487 1026.92C944.421 1023.72 945.37 1020.79 946.989 1017.98C950.031 1012.72 954.92 1008.72 960.537 1005.8C965.947 1002.99 971.861 1000.61 974.509 995.079C977.315 989.219 975.654 982.278 980.265 977.051C982.174 974.886 984.852 972.964 987.927 972.469C990.876 971.993 994.097 972.776 996.916 973.578Z" fill="#DDE3E9"/>
<path fill-rule="evenodd" clip-rule="evenodd" d="M990.793 983.269C991.219 982.502 992.428 982.443 993.106 982.975C994 983.675 993.553 984.573 993.145 985.368C991.892 987.814 991.132 990.383 990.625 993.054C989.569 998.606 989.807 1004.23 989.45 1009.84C989.094 1015.44 987.651 1020.78 984.132 1025.39C980.815 1029.74 976.953 1033.71 973.608 1038.05C970.659 1041.88 967.541 1045.91 967.002 1050.74C966.483 1055.39 968.009 1059.99 968.501 1064.59C969.519 1074.12 967.584 1083.4 963.766 1092.19C961.992 1096.27 959.961 1100.28 957.113 1103.82C955.474 1105.85 953.263 1108.6 950.469 1109.31C949.181 1109.64 947.444 1109.21 947.153 1107.8C946.879 1106.48 948.27 1105.2 949.013 1104.23C952.231 1100.02 954.675 1095.37 956.652 1090.55C958.567 1085.89 960.148 1081.1 960.692 1076.1C961.196 1071.47 960.777 1066.94 959.935 1062.35C959.078 1057.67 958.123 1052.94 959.082 1048.22C960.055 1043.43 963.011 1039.39 966.186 1035.62C969.544 1031.64 973.223 1027.95 976.961 1024.27C980.603 1020.68 983.086 1016.89 984.294 1012.05C986.683 1002.48 985.838 992.197 990.793 983.269Z" fill="#C5CFD6"/>
<path fill-rule="evenodd" clip-rule="evenodd" d="M904.251 1008.78C909.236 1008.78 913.617 1011.25 916.637 1014.77C920.171 1018.88 920.885 1023.9 922.32 1028.8C923.035 1031.24 924.263 1033.66 926.415 1035.32C928.373 1036.83 930.859 1037.13 933.202 1037.87C937.886 1039.34 941.668 1042.88 943.161 1047.21C944.983 1052.49 943.053 1057.81 943.386 1063.15C943.691 1068.07 948.858 1071.13 953.015 1073.48C957.114 1075.81 960.807 1077.98 962.041 1082.5C963.35 1087.3 963.79 1092.65 961.976 1097.39C958.957 1105.28 950.122 1108.75 941.584 1109.29C933.836 1109.78 924.094 1109.01 918.275 1103.74C914.793 1100.59 913.532 1096.18 913.689 1091.79C913.786 1089.06 914.363 1086.36 915.109 1083.72C915.637 1081.85 916.352 1079.99 916.555 1078.06C917.096 1072.92 912.028 1071.93 907.714 1070.52C902.232 1068.73 898.395 1065.34 895.726 1060.62C893.241 1056.23 892.198 1051.3 893.688 1046.46C894.449 1043.99 895.829 1041.75 897.701 1039.84C898.525 1039 899.686 1038.31 900.429 1037.42C901.124 1036.6 900.972 1035.53 900.733 1034.57C899.627 1030.12 896.181 1026.43 894.949 1021.99C893.836 1017.97 894.494 1012.98 898.408 1010.39C900.099 1009.27 902.184 1008.79 904.251 1008.78Z" fill="#C5CFD6"/>
<path fill-rule="evenodd" clip-rule="evenodd" d="M911.043 1020.38C916.326 1025.65 917.761 1032.81 918.183 1039.74C918.419 1043.63 918.173 1047.73 919.392 1051.5C920.435 1054.73 922.881 1057.2 925.401 1059.53C930.475 1064.23 936.134 1069 937.618 1075.8C938.489 1079.78 937.901 1083.9 939.104 1087.85C940.199 1091.43 942.125 1094.95 944.468 1097.98C946.355 1100.42 948.812 1102.28 950.875 1104.56C951.504 1105.25 952.405 1106.27 952.145 1107.25C951.842 1108.4 950.283 1108.76 949.177 1108.58C946.598 1108.16 944.428 1105.85 942.742 1104.17C940.277 1101.72 938.182 1099.08 936.479 1096.12C934.589 1092.84 933.067 1089.35 932.416 1085.66C931.742 1081.84 932.077 1077.85 930.536 1074.18C927.943 1068 921.654 1064.36 917.106 1059.54C911.44 1053.54 912.285 1046.08 912.866 1038.7C913.184 1034.64 913.501 1030.06 911.315 1026.36C910.48 1024.95 908.619 1023.63 908.26 1022.02C907.931 1020.55 909.725 1019.06 911.043 1020.38Z" fill="#AFB9C5"/>
<path fill-rule="evenodd" clip-rule="evenodd" d="M916.676 1107.04C916.677 1137.2 921.929 1153 949.655 1153C977.38 1153 982.632 1137.2 982.632 1107.04H916.676Z" fill="#89C5CC"/>
<path d="M835 1040H801C799.895 1040 799 1040.9 799 1042V1047C799 1048.1 799.895 1049 801 1049H835C836.105 1049 837 1048.1 837 1047V1042C837 1040.9 836.105 1040 835 1040Z" fill="#AFB9C5"/>
<path fill-rule="evenodd" clip-rule="evenodd" d="M809 1011C813.293 997.085 815.699 982.419 816.217 967H819H820.783C821.301 982.419 823.707 997.085 828 1011H834.5C843.06 1011 850 1017.94 850 1026.5C850 1035.06 843.06 1042 834.5 1042H801.5C792.94 1042 786 1035.06 786 1026.5C786 1017.94 792.94 1011 801.5 1011H809Z" fill="#DDE3E9"/>
<path fill-rule="evenodd" clip-rule="evenodd" d="M782.622 897.679C794.081 896.56 805.541 896 817 896C828.459 896 839.919 896.56 851.378 897.679L856 977.133C843 978.378 830 979 817 979C804 979 791 978.378 778 977.133L782.622 897.679Z" fill="#C5CFD6"/>
<path fill-rule="evenodd" clip-rule="evenodd" d="M776 1049H859H880V1153H859V1071H776V1153H755V1049H776Z" fill="#F2F2F2"/>
</svg>
